<?xml version="1.0" standalone="no"?>
<!DOCTYPE svg PUBLIC "-//W3C//DTD SVG 1.1//EN" "http://www.w3.org/Graphics/SVG/1.1/DTD/svg11.dtd" >
<svg xmlns="http://www.w3.org/2000/svg">
<metadata>
This is a custom SVG webfont generated by Font Squirrel.
Copyright   : Copyright c 2008 by Steeve GRUSON All rights reserved
Designer    : Steeve GRUSON
Foundry     : Steeve GRUSON
</metadata>
<defs>
<font id="GrutchGroteskCondensedLight" horiz-adv-x="829" >
<font-face units-per-em="2048" ascent="1536" descent="-512" />
<missing-glyph horiz-adv-x="362" />
<glyph unicode=" "  horiz-adv-x="362" />
<glyph unicode="&#x09;" horiz-adv-x="362" />
<glyph unicode="&#xa0;" horiz-adv-x="362" />
<glyph unicode="!" horiz-adv-x="219" d="M80 0v59h59v-59h-59zM80 178v1252h59v-1252h-59z" />
<glyph unicode="&#x22;" horiz-adv-x="356" d="M55 1077v357h60v-357h-60zM233 1077v357h60v-357h-60z" />
<glyph unicode="#" horiz-adv-x="987" d="M49 477v60h215l58 358h-213v59h223l67 418h60l-68 -418h293l68 418h61l-68 -418h193v-59h-203l-59 -358h203v-60h-211l-78 -477h-60l76 477h-293l-77 -477h-60l78 477h-205zM324 537h292l60 358h-295z" />
<glyph unicode="$" horiz-adv-x="847" d="M55 1108q0 63 22.5 120.5t62.5 100.5t94.5 70.5t115.5 34.5v120h60v-120q74 -6 134 -42t101 -94l-51 -28q-33 43 -80 70.5t-104 33.5v-536q59 -2 114 -25q59 -23 108.5 -60.5t85.5 -89t56.5 -113t20.5 -128.5q0 -82 -30 -154.5t-82 -129t-123 -91.5t-150 -41v-121h-60 v121q-88 6 -162.5 46t-128.5 106l45 39q45 -55 108.5 -90t137.5 -41v716q-31 2 -58.5 10.5t-53.5 20.5q-82 41 -132.5 119t-50.5 176zM115 1108q0 -51 18.5 -97t50 -82t74.5 -58.5t92 -28.5v532q-49 -6 -92 -28.5t-74.5 -58.5t-50 -82t-18.5 -97zM410 66q68 6 127 36.5 t103 77.5t69.5 109.5t25.5 132.5t-25.5 133t-69.5 110.5t-103.5 77t-126.5 35.5v-712z" />
<glyph unicode="%" horiz-adv-x="1040" d="M45 1104q0 68 18.5 127t51 104t74.5 71t92 26q49 0 92 -26t75.5 -71t51 -104.5t18.5 -126.5q0 -68 -18.5 -127t-51 -104.5t-75.5 -71t-92 -25.5t-91.5 25.5t-75 71t-51 104.5t-18.5 127zM104 1104q0 -55 14.5 -104.5t38 -85t55.5 -57t69 -21.5t69.5 21.5t56 57t38 85 t14.5 104.5t-14.5 104t-38 85t-56.5 57.5t-69 21.5q-37 0 -69 -21.5t-55.5 -57.5t-38 -85t-14.5 -104zM193 0l583 1432h64l-582 -1432h-65zM518 330q0 68 18.5 127t51.5 104t76 70.5t92 25.5t92 -25.5t74.5 -70.5t50 -104.5t18.5 -126.5q0 -68 -18.5 -128.5t-50 -105.5 t-74.5 -70.5t-92 -25.5t-92 25.5t-76 70.5t-51.5 105.5t-18.5 128.5zM578 330q0 -55 14 -104.5t37.5 -86.5t56.5 -57.5t70 -20.5t68.5 20.5t56 57.5t38 86t13.5 105q0 55 -13.5 104t-38 85t-56 57.5t-68.5 21.5t-70 -21.5t-56.5 -57.5t-37.5 -85t-14 -104z" />
<glyph unicode="&#x26;" horiz-adv-x="1261" d="M49 379q0 115 59.5 206t155.5 138l109 53l-101 90q-53 45 -84.5 108.5t-31.5 139.5q0 66 25.5 124t68.5 101t100.5 68t122.5 25q66 0 124 -25t101 -68t68 -101t25 -124q0 -98 -51.5 -176t-135.5 -115l-125 -61l307 -279l68 -61l111 303l55 -20l-119 -326l305 -275 l-39 -45l-288 260l-11 -28q-20 -47 -58 -96.5t-93 -94.5q-53 -43 -125 -71.5t-158 -28.5h-10q-78 0 -146.5 29.5t-118.5 81t-80 121t-30 147.5zM109 379q0 -66 24.5 -124t67.5 -101t100 -68t123 -25h10q74 0 136.5 25t109.5 61q33 25 57.5 52.5t42.5 56.5q23 33 35 59l16 47 l-370 334l-43 41q-29 -16 -53 -28q-23 -10 -42.5 -20.5t-25.5 -14.5q-16 -6 -38.5 -20.5t-57.5 -47.5q-43 -45 -67.5 -103t-24.5 -124zM217 1114q0 -53 19.5 -101t54.5 -83q2 -2 23.5 -21.5t47.5 -42.5q31 -27 68 -61l148 72q43 18 77 53q35 35 55.5 83t20.5 101 t-20.5 100.5t-55.5 81.5q-35 35 -82 55.5t-100 20.5t-100 -20.5t-82 -55.5t-54.5 -82t-19.5 -100z" />
<glyph unicode="'" horiz-adv-x="174" d="M55 1077v357h60v-357h-60z" />
<glyph unicode="(" horiz-adv-x="518" d="M70 659q0 160 29.5 301.5t81.5 247t123 166t151 60.5v-60q-68 0 -127.5 -56t-103.5 -152.5t-69.5 -227.5t-25.5 -279q0 -147 25.5 -278t69.5 -228.5t103.5 -153.5t127.5 -56v-60q-80 0 -151 61.5t-123 167t-81.5 246.5t-29.5 301z" />
<glyph unicode=")" horiz-adv-x="505" d="M57 -57q68 0 127.5 56t103.5 153.5t69.5 228.5t25.5 278t-25.5 278.5t-69.5 228t-103.5 152.5t-127.5 56v60q80 0 149.5 -60.5t122 -166t83 -247t30.5 -301.5t-30.5 -301t-83 -246.5t-122 -167t-149.5 -61.5v60z" />
<glyph unicode="*" horiz-adv-x="763" d="M37 1161l18 58l297 -99v314h60v-314l295 99l18 -58l-297 -96l184 -254l-49 -35l-182 254l-182 -254l-49 35l184 254z" />
<glyph unicode="+" horiz-adv-x="1009" d="M61 555v59h414v418h60v-418h413v-59h-413v-418h-60v418h-414z" />
<glyph unicode="," horiz-adv-x="233" d="M37 -217q57 84 65 190q2 6 2 14v13v57h60v-59q0 -8 -1 -15.5t-1 -15.5q-12 -131 -88 -235z" />
<glyph unicode="-" horiz-adv-x="536" d="M61 555v59h414v-59h-414z" />
<glyph unicode="." horiz-adv-x="186" d="M63 0v59h60v-59h-60z" />
<glyph unicode="/" horiz-adv-x="757" d="M37 -59l610 1728h64l-611 -1728h-63z" />
<glyph unicode="0" horiz-adv-x="1071" d="M61 715q0 147 37 278t101.5 227.5t150.5 153t185 56.5q98 0 184 -56.5t150.5 -153t102.5 -227.5t38 -278t-38 -278.5t-102.5 -227.5t-150.5 -152.5t-184 -56.5t-184.5 56.5t-151 152.5t-101.5 227.5t-37 278.5zM121 715q0 -135 32.5 -255t89 -209t131.5 -140.5t161 -51.5 t161.5 51.5t132 140.5t89 209t32.5 255t-32.5 255t-89 209t-132 140t-161.5 51t-161 -51t-131.5 -140t-89 -209t-32.5 -255z" />
<glyph unicode="1" horiz-adv-x="395" d="M51 1251l195 181h88v-1432h-64v1374l-131 -123h-88z" />
<glyph unicode="2" horiz-adv-x="886" d="M61 0v59q131 195 238 353q45 68 89 132t80 117.5t60.5 89t28.5 44.5q41 61 70.5 104t48 77t28 63.5t9.5 62.5q0 55 -20.5 104t-57.5 86t-85 57.5t-104 20.5q-86 0 -153.5 -48t-95.5 -124l-50 31q37 90 118 146.5t184 56.5q66 0 124 -26t102 -69t69.5 -101t27.5 -124v-10 q0 -47 -12 -90t-35 -80q-2 -2 -27.5 -41t-67.5 -100.5t-94.5 -139.5t-107.5 -159q-129 -190 -293 -433h696v-59h-770z" />
<glyph unicode="3" horiz-adv-x="968" d="M55 283l54 26q20 -55 55 -100t82 -79t103.5 -52.5t117.5 -18.5q80 0 149.5 31t122 83t83 123t30.5 150q0 80 -30.5 151t-83 123t-122 83t-149.5 31h-29v61q8 0 14.5 -1t14.5 -1q49 0 92 19.5t76 51t51.5 75.5t18.5 94q0 49 -18.5 92t-51.5 75.5t-76 51t-92 18.5 q-72 0 -130 -40t-87 -103l-55 28q35 78 106.5 127.5t163.5 49.5q61 0 115.5 -24t94.5 -64.5t63.5 -95t23.5 -115.5q0 -86 -43 -155t-111 -108q66 -23 122 -63.5t96 -96t62.5 -123t22.5 -141.5q0 -92 -34.5 -172.5t-95 -142t-141.5 -96.5t-173 -35q-70 0 -134.5 20.5 t-117.5 58.5t-94 90.5t-66 113.5z" />
<glyph unicode="4" horiz-adv-x="1120" d="M55 297v61l652 1074h57v-62v-1012h297v-61h-297v-297h-57v297h-652zM125 358h582v959z" />
<glyph unicode="5" horiz-adv-x="962" d="M51 283l53 26q41 -111 138.5 -180.5t222.5 -69.5q80 0 149.5 31t121.5 83t83 123t31 150q0 80 -31 151t-83 123t-121.5 83t-149.5 31h-236v22l131 576h512v-62h-464l-109 -477h166q76 0 147 -25q4 -2 6.5 -2t4.5 -2q4 -2 6 -2t6 -2q12 -6 25.5 -12t25.5 -14 q100 -57 160.5 -160t60.5 -228q0 -92 -34.5 -172.5t-95 -142t-140.5 -96.5t-172 -35q-72 0 -135.5 20.5t-117.5 58.5t-95 90.5t-66 113.5z" />
<glyph unicode="6" horiz-adv-x="993" d="M55 446q0 78 27 154q10 29 22 49l33 56l434 727h74l-352 -590q96 51 207 51q92 0 173 -35t141 -95.5t95 -142t35 -174.5q0 -92 -35 -172.5t-95 -142t-141 -96.5t-173 -35t-173 35t-141.5 96.5t-95.5 142t-35 172.5zM115 446q0 -80 29.5 -150.5t82 -122.5t123 -83 t150.5 -31t149.5 31t121.5 83t83 123t31 150q0 80 -31 151t-83 123t-121.5 83t-149.5 31q-88 0 -164 -37t-129 -99q-20 -25 -36.5 -51t-27.5 -57q-28 -68 -28 -144z" />
<glyph unicode="7" horiz-adv-x="872" d="M51 1370v62h770v-62l-594 -1370h-65l596 1370h-707z" />
<glyph unicode="8" horiz-adv-x="931" d="M53 418q0 135 76 240.5t195 150.5q-82 41 -132.5 118t-50.5 175q0 68 26 128t70 104t103 70t127 26t127 -26t103 -70t70 -104.5t26 -127.5q0 -98 -50.5 -175t-132.5 -118q119 -45 195 -150.5t76 -240.5q0 -86 -33 -163t-88 -133t-131 -89t-162 -33t-162 33t-131 89 t-88 133t-33 163zM113 418q0 -74 27.5 -139.5t75.5 -114.5t112.5 -77t138.5 -28t138.5 28t112.5 77t75.5 114.5t27.5 139.5t-27.5 138.5t-75.5 113.5t-112.5 76.5t-138.5 27.5t-138.5 -27.5t-112.5 -76.5t-75.5 -113.5t-27.5 -138.5zM201 1102q0 -55 20.5 -104.5t57 -85 t85 -57t103.5 -21.5t103 21.5t85 57t57.5 85t20.5 104.5t-20.5 104t-57.5 86t-85 57.5t-103 20.5t-103.5 -20.5t-85 -57.5t-57 -86t-20.5 -104z" />
<glyph unicode="9" horiz-adv-x="1009" d="M66 983q0 92 34.5 174t95 143.5t140.5 96.5t172 35t173 -35t141.5 -96.5t95 -143.5t34.5 -174q0 -41 -7 -79t-19 -75q-4 -12 -11 -24l-12 -25l-31 -53l-436 -727h-74l353 588q-96 -51 -207 -51q-92 0 -172 34.5t-140.5 96t-95 142.5t-34.5 173zM123 983 q0 -80 30.5 -150.5t83 -123t122 -83t149.5 -30.5q90 0 166 37t129 100q20 23 35.5 50.5t27.5 56.5q12 35 19.5 69.5t7.5 73.5q0 80 -31 150.5t-83 123t-121.5 83t-149.5 30.5t-149.5 -30.5t-122 -83t-83 -123t-30.5 -150.5z" />
<glyph unicode=":" horiz-adv-x="182" d="M61 0v59h60v-59h-60zM61 834v59h60v-59h-60z" />
<glyph unicode=";" horiz-adv-x="182" d="M-4 -215l37 -51q35 51 58.5 110.5t29.5 124.5v31v59h-58v-57q-2 -6 -2 -13v-14q-4 -53 -21 -101t-44 -89zM63 834v59h58v-59h-58z" />
<glyph unicode="&#x3c;" horiz-adv-x="933" d="M53 444v68l830 319v-63l-752 -289l752 -289v-65z" />
<glyph unicode="=" horiz-adv-x="1013" d="M61 258v59h889v-59h-889zM61 614v60h889v-60h-889z" />
<glyph unicode="&#x3e;" horiz-adv-x="940" d="M51 123v63l752 289l-752 289v65l830 -319v-68z" />
<glyph unicode="?" horiz-adv-x="753" d="M53 1227q47 92 123 147.5t168 55.5q74 0 138.5 -38t113.5 -102.5t76.5 -151.5t27.5 -186q0 -94 -25.5 -177t-69.5 -146.5t-104.5 -103.5t-127.5 -48v-299h-60v361q10 -2 31 -2q20 0 29 2q55 8 104 42.5t86 90t57.5 128t20.5 152.5q0 86 -23.5 163t-63.5 133.5t-94 89 t-116 32.5q-74 0 -136.5 -47t-103.5 -127zM313 0v59h60v-59h-60z" />
<glyph unicode="@" horiz-adv-x="1433" d="M68 596q0 184 51 348t139 285t207 191.5t254 70.5t253 -70.5t207 -191.5t140 -285t51 -348q0 -51 -6 -128t-26.5 -154.5t-60.5 -141t-110 -88.5q-4 -2 -10 -2t-12 -2q-8 -2 -15 -2q-88 0 -139 82q-12 14 -18 30q-23 47 -33 111q-4 -8 -6 -10t-2 -4q-29 -49 -67 -91 t-81 -73t-91 -47.5t-93 -16.5q-74 0 -134 38t-100 102.5t-56.5 151.5t-4.5 186q12 98 51 185t94.5 151.5t125 102.5t143.5 38q92 0 162.5 -57.5t105.5 -155.5l27 213h59l-51 -414q0 2 2 2l-29 -219v-23q0 -47 11.5 -85.5t29.5 -67.5q43 -61 94 -62q18 0 38 6.5t36 22.5 q39 45 61.5 108.5t32 127t11.5 114.5t2 72q0 172 -47 324.5t-127 266t-187.5 179.5t-230.5 66t-230.5 -66t-188.5 -179.5t-127 -266t-46 -324.5t46 -324.5t127 -265t188.5 -178.5t230.5 -66q121 0 227.5 63.5t186.5 174.5h69q-90 -137 -214 -217t-269 -80q-135 0 -254 69.5 t-207 191.5t-139 285t-51 347zM362 537q-10 -86 3.5 -162t47 -133.5t84 -90t111.5 -32.5t118.5 32.5t105 90t80 133.5t42.5 162t-3 162.5t-46 133t-83 89t-111 32.5t-120 -32.5t-106 -89t-80 -133t-43 -162.5z" />
<glyph unicode="A" horiz-adv-x="1026" d="M37 0l416 1432h59l473 -1432h-59l-158 477h-532l-140 -477h-59zM252 537h496l-265 798z" />
<glyph unicode="B" horiz-adv-x="944" d="M61 0v776v60v596h295q86 0 162 -26t131.5 -71t88 -104.5t32.5 -126.5q0 -94 -58.5 -170t-154.5 -117q72 -20 133.5 -59t105.5 -91.5t68.5 -116t24.5 -132.5q0 -86 -37 -163t-101.5 -133t-150.5 -89t-184 -33h-355zM119 59h297q86 0 161.5 29t131 77t88 113.5t32.5 139.5 t-32.5 139.5t-88 113.5t-131 76.5t-161.5 28.5h-297v-717zM119 836h237q74 0 138.5 20.5t112.5 57t76 86t28 104.5t-28 104t-76 85t-112.5 57.5t-138.5 21.5h-237v-536z" />
<glyph unicode="C" horiz-adv-x="1107" d="M70 715q0 147 42 278t113.5 228.5t169 154t207.5 56.5q135 0 251 -84t187 -226l-51 -28q-66 127 -166 202.5t-221 75.5q-98 0 -185 -52t-151.5 -141t-101.5 -209t-37 -255t37 -255t101.5 -209t151.5 -140.5t185 -51.5q121 0 221.5 76t165.5 203l51 -29 q-72 -141 -187.5 -225t-250.5 -84q-111 0 -208 56.5t-168.5 153.5t-113.5 227.5t-42 277.5z" />
<glyph unicode="D" horiz-adv-x="1097" d="M61 0v1432h439q10 0 18 -1t17 -1q104 -10 195 -68.5t157.5 -155t105.5 -222.5t39 -269q0 -141 -39 -267t-105.5 -222.5t-157.5 -156t-195 -67.5q-8 -2 -17 -2h-18h-439zM121 59h379q98 0 184 51.5t150.5 140.5t101.5 209t37 255t-37 255t-101.5 209t-150.5 141t-184 52 h-379v-1313z" />
<glyph unicode="E" horiz-adv-x="884" d="M61 0v1432h770v-60h-710v-596h532v-61h-532v-656h710v-59h-770z" />
<glyph unicode="F" horiz-adv-x="882" d="M61 0v1432h768v-60h-710v-596h534v-61h-534v-715h-58z" />
<glyph unicode="G" horiz-adv-x="1179" d="M57 715q0 147 42 278t114 228.5t169 154t208 56.5q135 0 249.5 -83t186.5 -223l-51 -28q-66 125 -165 199.5t-220 74.5q-98 0 -184.5 -52t-151 -141t-101 -209t-36.5 -255t36.5 -255t101 -209t151 -140.5t184.5 -51.5q86 0 165 41t140 113t103 170t59 213h-467v59h526 v-59q-16 -127 -63 -235.5t-117 -188.5t-159 -126t-187 -46q-111 0 -208 56.5t-169 153.5t-114 227.5t-42 277.5z" />
<glyph unicode="H" horiz-adv-x="1009" d="M61 0v1432h60v-656h768v656h59v-1432h-59v715h-768v-715h-60z" />
<glyph unicode="I" horiz-adv-x="227" d="M84 2v1432h59v-1432h-59z" />
<glyph unicode="J" horiz-adv-x="493" d="M53 2v59q61 0 115.5 33t94.5 90.5t63.5 133t23.5 161.5v955h60v-955q0 -98 -28 -185t-77 -151.5t-113.5 -102.5t-138.5 -38z" />
<glyph unicode="K" horiz-adv-x="978" d="M61 -2v1432h60v-644l637 644h71l-565 -570l684 -862h-71l-652 821l-104 -106v-715h-60z" />
<glyph unicode="L" horiz-adv-x="882" d="M61 0v1432h58v-1373h710v-59h-768z" />
<glyph unicode="M" horiz-adv-x="1253" d="M61 0v1432h66l500 -1266l499 1266h66v-1432h-57v1272l-508 -1272l-506 1272v-1272h-60z" />
<glyph unicode="N" horiz-adv-x="952" d="M63 0v1432h66l705 -1321v1321h57v-1432h-66l-702 1321v-1321h-60z" />
<glyph unicode="O" horiz-adv-x="1069" d="M61 715q0 147 37 278t101.5 227.5t150.5 153t185 56.5q98 0 184 -56.5t150.5 -153t101.5 -227.5t37 -278t-37 -278.5t-101.5 -227.5t-150.5 -152.5t-184 -56.5t-184.5 56.5t-151 152.5t-101.5 227.5t-37 278.5zM119 715q0 -135 32.5 -255t89 -209t132.5 -140.5t162 -51.5 t161.5 51.5t131 140.5t88 209t32.5 255t-32.5 255t-88 209t-131 140t-161.5 51t-162 -51t-132.5 -140t-89 -209t-32.5 -255z" />
<glyph unicode="P" horiz-adv-x="827" d="M61 0v1430h330q80 0 148.5 -29t121 -77t82 -112.5t29.5 -138.5t-29.5 -138.5t-82 -113.5t-121 -77.5t-148.5 -28.5h-270v-715h-60zM121 774h266q68 0 127 23.5t103.5 64.5t70 95.5t25.5 115.5t-25.5 114.5t-70 94.5t-103.5 64.5t-127 23.5h-266v-596z" />
<glyph unicode="Q" horiz-adv-x="1073" d="M63 715q0 147 37 278t101.5 227.5t150.5 153t185 56.5q98 0 184 -56.5t150.5 -153t101.5 -227.5t37 -278q0 -180 -53.5 -332t-145.5 -250l186 -133h-106l-125 90q-51 -43 -108.5 -66.5t-120.5 -23.5q-98 0 -184.5 56.5t-151 152.5t-101.5 227.5t-37 278.5zM123 715 q0 -135 32.5 -255t88 -209t131.5 -140.5t162 -51.5q96 0 180 66l-232 166l37 51l242 -176q86 90 136 232.5t50 316.5q0 135 -32.5 255t-88 209t-131 140t-161.5 51t-162 -51t-131.5 -140t-88 -209t-32.5 -255z" />
<glyph unicode="R" horiz-adv-x="858" d="M63 0v1430h330q80 0 148.5 -29t121 -77t82 -112.5t29.5 -138.5q0 -68 -24.5 -128t-68.5 -107t-103.5 -78t-128.5 -41l385 -719h-66l-383 715h-262v-715h-60zM123 774h266q68 0 127 23.5t103.5 64.5t70 95.5t25.5 115.5t-25.5 114.5t-70 94.5t-103.5 64.5t-127 23.5h-266 v-596z" />
<glyph unicode="S" horiz-adv-x="843" d="M53 1102q0 68 25.5 128t70 104t103.5 70t127 26q82 0 150.5 -37t113.5 -101l-51 -28q-37 49 -92.5 77.5t-120.5 28.5q-55 0 -103.5 -20.5t-85 -57.5t-57 -86t-20.5 -104t20.5 -104.5t57 -85t85 -57t103.5 -21.5q76 0 143 -25q59 -23 108.5 -61.5t85.5 -90t56.5 -113 t20.5 -128.5q0 -86 -33 -162t-89.5 -132t-131 -89t-160.5 -33q-98 0 -181 41t-141 113l45 36q49 -59 120 -95t157 -36q74 0 138.5 28t112.5 77t75.5 113.5t27.5 138.5t-27.5 139.5t-75.5 114.5t-112.5 76.5t-138.5 27.5q-76 0 -146 35q-80 41 -130 118t-50 175z" />
<glyph unicode="T" horiz-adv-x="1110" d="M51 1370v60h1008v-60h-473v-1370h-60v1370h-475z" />
<glyph unicode="U" horiz-adv-x="1073" d="M63 655v775h60v-775q0 -135 32.5 -245.5t89 -188.5t131.5 -120t161 -42t161.5 42t132 120t89 188.5t32.5 245.5v775h60v-1430h-60v324q-61 -154 -170.5 -239t-244.5 -85t-245 85t-169 239q-29 72 -44.5 154.5t-15.5 176.5z" />
<glyph unicode="V" horiz-adv-x="1069" d="M25 1430h65l442 -1342l445 1342h65l-473 -1430h-71z" />
<glyph unicode="W" horiz-adv-x="1773" d="M18 1430h68l442 -1342l324 975l-123 367h66l444 -1342l444 1342h66l-473 -1430h-74l-317 963l-320 -963h-71z" />
<glyph unicode="X" horiz-adv-x="1013" d="M27 1430h65l416 -668l414 668h65l-446 -721l440 -709h-66l-407 657l-410 -657h-65l440 709z" />
<glyph unicode="Y" horiz-adv-x="1005" d="M23 1430h67l414 -668l414 668h65l-887 -1430h-65l440 709z" />
<glyph unicode="Z" horiz-adv-x="1052" d="M49 0v59l881 1311h-881v60h946v-60l-880 -1311h880v-59h-946z" />
<glyph unicode="[" horiz-adv-x="305" d="M61 -295v1729h179v-60h-119v-1610h119v-59h-179z" />
<glyph unicode="\" horiz-adv-x="745" d="M33 1669h63l611 -1728h-64z" />
<glyph unicode="]" horiz-adv-x="299" d="M59 -236h119v1610h-119v60h179v-1729h-179v59z" />
<glyph unicode="^" horiz-adv-x="600" d="M63 1491l179 178h114l176 -178h-83l-150 151l-152 -151h-84z" />
<glyph unicode="_" horiz-adv-x="946" d="M0 -92h946v-60h-946v60z" />
<glyph unicode="`" horiz-adv-x="362" d="M43 1669h88l195 -178h-88z" />
<glyph unicode="a" d="M57 477q0 98 28 185.5t76 152t112.5 102t138.5 37.5q94 0 172 -57t125 -156v213h59v-954h-59v215q-47 -98 -125 -156.5t-172 -58.5q-74 0 -138.5 38t-112.5 102.5t-76 151.5t-28 185zM117 477q0 -86 22.5 -161.5t62.5 -132t94 -89.5t116 -33q61 0 115.5 33t94.5 89.5 t63.5 132t23.5 161.5t-23.5 163t-63.5 133t-94.5 89t-115.5 33t-115.5 -33t-94.5 -89t-62.5 -133t-22.5 -163z" />
<glyph unicode="b" horiz-adv-x="827" d="M61 0v1432h60v-691q47 98 126 155.5t171 57.5q74 0 138.5 -37.5t112.5 -102t75.5 -152t27.5 -185.5t-27.5 -185t-75.5 -151.5t-112.5 -102.5t-138.5 -38q-92 0 -171 58.5t-126 156.5v-215h-60zM121 477q0 -86 23.5 -161.5t63.5 -133t94 -90.5t116 -33q61 0 114.5 33 t93.5 90.5t63.5 133t23.5 161.5t-23.5 163t-63.5 133t-93.5 89t-114.5 33t-115.5 -33t-94.5 -89t-63.5 -133t-23.5 -163z" />
<glyph unicode="c" horiz-adv-x="788" d="M63 477q0 98 28 185.5t77 152t113.5 102t138.5 37.5q92 0 168 -56t123 -148l-52 -29q-41 78 -103 126t-136 48q-61 0 -115.5 -33t-94.5 -89t-63.5 -133t-23.5 -163t23.5 -161.5t63.5 -133t94 -90.5t116 -33q74 0 136 48.5t103 128.5l52 -31q-47 -92 -123 -148.5 t-168 -56.5q-74 0 -138.5 38t-113.5 102.5t-77 151.5t-28 185z" />
<glyph unicode="d" horiz-adv-x="835" d="M61 477q0 98 28 185.5t77 152t113.5 102t138.5 37.5q92 0 170 -57t125 -156v691h59v-1432h-59v215q-47 -98 -125 -156.5t-170 -58.5q-74 0 -138.5 38t-113.5 102.5t-77 151.5t-28 185zM121 477q0 -86 23.5 -161.5t63.5 -133t94 -90.5t116 -33q61 0 114.5 33t93.5 90.5 t63.5 133t23.5 161.5t-23.5 163t-63.5 133t-93.5 89t-114.5 33t-115.5 -33t-94.5 -89t-63.5 -133t-23.5 -163z" />
<glyph unicode="e" horiz-adv-x="833" d="M61 477q0 98 28 185.5t76 152t112.5 102t138.5 37.5t138 -37.5t112.5 -102t76 -152t27.5 -185.5h-649q0 -86 22.5 -161.5t62.5 -133t94 -90.5t116 -33q76 0 138 49.5t103 129.5l54 -27q-49 -96 -126 -153.5t-169 -57.5q-74 0 -138.5 38t-112.5 102.5t-76 151.5t-28 185z M123 537h586q-8 76 -34 141t-65 113.5t-89 76t-105 27.5t-105.5 -27.5t-89.5 -76t-64.5 -113.5t-33.5 -141z" />
<glyph unicode="f" horiz-adv-x="487" d="M61 0v954q0 145 58 265q47 98 126 155.5t171 57.5q84 0 162 -52l-41 -45q-55 37 -121 37q-61 0 -115.5 -32.5t-94.5 -89t-63.5 -133.5t-23.5 -163v-178h297v-59h-297v-717h-58z" />
<glyph unicode="g" horiz-adv-x="833" d="M61 477q0 98 28 185.5t76 152t112.5 102t138.5 37.5q94 0 172 -57t125 -156v213h59v-954q0 -72 -15.5 -138.5t-43.5 -123.5q-47 -98 -125 -155.5t-172 -57.5q-92 0 -169 56.5t-124 152.5l51 26q41 -80 104.5 -128t137.5 -48q61 0 115.5 33t94.5 89t63.5 132t23.5 162v215 q-6 -12 -12.5 -23.5t-12.5 -21.5q-49 -78 -119.5 -124t-152.5 -46q-74 0 -138.5 38t-112.5 102.5t-76 151.5t-28 185zM121 477q0 -92 24 -168l13 -33q6 -16 14 -32q41 -84 104.5 -134.5t139.5 -50.5t139 49.5t104 131.5q16 33 29 69q10 39 17.5 81t7.5 87q0 86 -23.5 163 t-63.5 133t-94.5 89t-115.5 33t-115.5 -33t-94.5 -89t-62.5 -133t-22.5 -163z" />
<glyph unicode="h" horiz-adv-x="833" d="M61 0v1432h60v-691q47 98 125 155.5t172 57.5q74 0 138.5 -37.5t112.5 -102t75.5 -152t27.5 -185.5v-477h-59v477q0 86 -23.5 163t-63.5 133t-93.5 89t-114.5 33t-115.5 -33t-94.5 -89t-63.5 -133t-23.5 -163v-477h-60z" />
<glyph unicode="i" horiz-adv-x="221" d="M82 0v954h57v-954h-57zM82 1133v61h57v-61h-57z" />
<glyph unicode="j" horiz-adv-x="186" d="M-231 -416q61 0 114.5 33t93 89t63 132t23.5 162v954h60v-954q0 -98 -27.5 -185t-76 -151.5t-113 -101.5t-137.5 -37v59zM63 1133v61h60v-61h-60z" />
<glyph unicode="k" horiz-adv-x="811" d="M61 0v1432h60v-889l461 411h71l-346 -309l465 -645h-65l-441 608l-145 -131v-477h-60z" />
<glyph unicode="l" horiz-adv-x="223" d="M82 0v1432h59v-1432h-59z" />
<glyph unicode="m" horiz-adv-x="1480" d="M61 0v954h60v-213q47 98 126 155.5t171 57.5q111 0 197.5 -79.5t127.5 -206.5q41 127 128 206.5t198 79.5q74 0 138.5 -37.5t112.5 -102t75.5 -152t27.5 -185.5v-477h-59v477q0 86 -23.5 163t-63.5 133t-93.5 89t-114.5 33t-115.5 -33t-94.5 -89t-63.5 -133t-23.5 -163 v-477h-59v477q0 86 -23.5 163t-63.5 133t-93.5 89t-114.5 33t-115.5 -33t-94.5 -89t-63.5 -133t-23.5 -163v-477h-60z" />
<glyph unicode="n" horiz-adv-x="833" d="M61 0v954h60v-213q47 98 125 155.5t170 57.5q74 0 138 -37.5t113.5 -102t77 -152t27.5 -185.5v-477h-59v477q0 86 -23.5 163t-63.5 133t-94.5 89t-115.5 33t-115.5 -33t-94.5 -89t-62.5 -133t-22.5 -163v-477h-60z" />
<glyph unicode="o" d="M59 477q0 98 28 185.5t76 152t112.5 102t138.5 37.5t138 -37.5t113.5 -102t77 -152t27.5 -185.5t-27.5 -185t-77 -151.5t-114 -102.5t-137.5 -38q-74 0 -138.5 38t-112.5 102.5t-76 151.5t-28 185zM119 477q0 -86 22.5 -161.5t62.5 -133t94 -90.5t116 -33q61 0 115.5 33 t94.5 90.5t63.5 133t23.5 161.5t-23.5 163t-63.5 133t-94.5 89t-115.5 33t-115.5 -33t-94.5 -89t-62.5 -133t-22.5 -163z" />
<glyph unicode="p" horiz-adv-x="835" d="M63 -477v1431h60v-213q47 98 125 155.5t170 57.5q74 0 138.5 -37.5t113.5 -102t76.5 -152t27.5 -185.5t-27.5 -185t-76.5 -151.5t-113.5 -102.5t-138.5 -38q-92 0 -170 58.5t-125 154.5v-690h-60zM123 477q0 -86 23.5 -161.5t63.5 -133t93 -90.5t115 -33q61 0 115.5 33 t94.5 90.5t63.5 133t23.5 161.5t-23.5 163t-63.5 133t-94.5 89t-115.5 33t-114.5 -33t-93.5 -89t-63.5 -133t-23.5 -163z" />
<glyph unicode="q" horiz-adv-x="833" d="M61 477q0 98 28 185.5t77 152t113.5 102t138.5 37.5q92 0 170 -57t125 -156v213h59v-1431h-59v690q-47 -96 -125 -154.5t-170 -58.5q-74 0 -138.5 38t-113.5 102.5t-77 151.5t-28 185zM121 477q0 -86 23.5 -161.5t63.5 -133t94 -90.5t116 -33q61 0 114.5 33t93.5 90.5 t63.5 133t23.5 161.5t-23.5 163t-63.5 133t-93.5 89t-114.5 33t-115.5 -33t-94.5 -89t-63.5 -133t-23.5 -163z" />
<glyph unicode="r" horiz-adv-x="765" d="M61 0v954h60v-213q47 98 125 155.5t170 57.5t170 -57t125 -152l-54 -26q-41 80 -103 128t-138 48q-61 0 -115.5 -33t-94.5 -89t-62.5 -133t-22.5 -163v-477h-60z" />
<glyph unicode="s" horiz-adv-x="847" d="M61 176l56 21q20 -35 63 -68t102.5 -52.5t127.5 -19.5q70 0 128 19.5t103 52.5q90 68 90 162t-90 162q-41 29 -94 47t-115 22h-45q-76 6 -135 33q-10 6 -21.5 12t-21.5 15q-41 29 -65.5 68.5t-24.5 86.5t24.5 87t65.5 69t91 44t110 15q59 0 110 -15t90 -44q20 -16 39 -33 l-63 -24q-4 2 -5 3t-6 3q-66 49 -165 49q-100 0 -166 -49q-63 -45 -64 -105q0 -59 64 -106q31 -23 73.5 -36t90.5 -13h2q27 0 52 -3.5t50 -7.5q14 -4 27.5 -8t27.5 -8q61 -23 109 -55q51 -39 81.5 -92.5t30.5 -116.5t-30.5 -116.5t-81.5 -92.5q-53 -39 -121 -60.5 t-145 -21.5q-78 0 -145.5 21.5t-119.5 60.5q-55 43 -84 94z" />
<glyph unicode="t" horiz-adv-x="491" d="M80 0v1432h59v-478h297v-59h-297v-895h-59z" />
<glyph unicode="u" horiz-adv-x="835" d="M63 477v477h60v-477q0 -86 23.5 -161.5t63.5 -133t94 -90.5t116 -33q61 0 114.5 33t93.5 90.5t63.5 133t23.5 161.5v477h59v-954h-59v215q-47 -98 -125 -156.5t-170 -58.5q-74 0 -138.5 38t-113.5 102.5t-77 151.5t-28 185z" />
<glyph unicode="v" horiz-adv-x="727" d="M39 954h57l266 -858l269 858h57l-295 -954h-59z" />
<glyph unicode="w" horiz-adv-x="1200" d="M37 954h59l266 -858l207 668l-59 190h59l31 -94l29 -96l207 -668l266 858h59l-295 -954h-59l-207 668l-209 -668h-59z" />
<glyph unicode="x" horiz-adv-x="731" d="M33 0l295 477l-295 477h65l267 -428l266 428h65l-297 -477l297 -477h-65l-266 430l-267 -430h-65z" />
<glyph unicode="y" horiz-adv-x="780" d="M31 -416q47 0 92 16.5t85 47t70.5 75t49.5 99.5l57 184l-354 948h59l322 -862l270 862h59l-354 -1132q-20 -66 -57 -121t-84 -94t-102.5 -60.5t-112.5 -21.5v59z" />
<glyph unicode="z" horiz-adv-x="813" d="M51 0v59l637 836h-637v59h711v-59l-639 -836h639v-59h-711z" />
<glyph unicode="{" horiz-adv-x="360" d="M53 553v33h39q25 0 42.5 23.5t17.5 47.5v658q0 45 21.5 68.5t37.5 31.5q23 10 42 14.5t48 4.5v-60q-12 0 -27.5 -1t-29 -7t-23.5 -18.5t-10 -32.5v-658q0 -55 -39 -88q39 -35 39 -90v-657q0 -23 10 -34t23.5 -16t29 -6.5t27.5 -1.5v-59q-29 0 -48.5 3t-41.5 13 q-16 8 -37.5 33t-21.5 68v657q0 25 -17.5 49.5t-42.5 24.5h-39z" />
<glyph unicode="|" horiz-adv-x="227" d="M84 -295v1729h59v-1729h-59z" />
<glyph unicode="}" horiz-adv-x="352" d="M51 -236q12 0 27.5 1.5t29 7.5t23.5 17t10 34v657q0 55 39 88q-39 35 -39 90v658q0 20 -10 32.5t-23.5 17.5t-29 6t-27.5 1v60q29 0 48.5 -3.5t41.5 -13.5q16 -8 38 -32.5t22 -67.5v-658q0 -25 17.5 -49t41.5 -24h39v-33h-39q-25 0 -42 -23.5t-17 -48.5v-657 q0 -45 -21.5 -68.5t-38.5 -31.5q-23 -10 -42 -14.5t-48 -4.5v59z" />
<glyph unicode="&#xa1;" horiz-adv-x="182" d="M59 0v1251h60v-1251h-60zM59 1370v60h60v-60h-60z" />
<glyph unicode="&#xa2;" horiz-adv-x="778" d="M55 477q0 98 28 185.5t77 152t113.5 102t138.5 37.5q55 0 114 -26l136 385h61l-145 -414q76 -57 124 -149l-51 -29q-37 74 -94 119l-264 -746q57 -35 119 -35q74 0 136 48.5t103 125.5l51 -28q-49 -92 -124.5 -148.5t-165.5 -56.5q-37 0 -72 10t-68 27l-116 -334h-64 l131 369q-76 66 -122 171t-46 234zM115 477q0 -109 34.5 -199t94.5 -145l262 739q-49 23 -94 23q-61 0 -115.5 -33t-94.5 -89t-63.5 -133t-23.5 -163z" />
<glyph unicode="&#xa3;" horiz-adv-x="1013" d="M68 0v59h16q61 0 115.5 33t94.5 89.5t63.5 133t23.5 162.5q0 66 -14.5 126.5t-38.5 111.5h-260v61h223q-4 4 -6 8q-4 4 -9.5 10.5t-9.5 10.5q-20 29 -35.5 58.5t-25.5 62.5q-18 55 -19 118q0 80 30 151t82 123t123 83t150 31q102 0 187.5 -49.5t136.5 -131.5l-53 -26 q-43 66 -114 106.5t-157 40.5q-68 0 -127 -25.5t-103 -70.5t-69.5 -104.5t-25.5 -127.5q0 -123 73 -208q12 -14 22.5 -28.5t20.5 -31.5h238v-61h-209q4 -6 8 -19q41 -100 41 -219q0 -135 -50 -245.5t-134 -172.5h698v-59h-886z" />
<glyph unicode="&#xa7;" horiz-adv-x="804" d="M51 -18l49 34v-4q39 -55 97.5 -91t130.5 -42q63 -6 120.5 13.5t102.5 58.5q47 37 75.5 90t32.5 119q6 72 -18 133q-4 14 -10 26l-13 25q-37 61 -98 101t-139 49q-68 6 -123 38q-70 41 -107.5 114t-29.5 159q4 53 24.5 97t53.5 79q-27 41 -39.5 88t-7.5 98 q4 59 30.5 110.5t68.5 86.5t96 53.5t114 14.5q72 -8 130 -45t93 -97l2 -4l-53 -24l-2 2q-29 45 -74 74.5t-100 33.5q-47 4 -90 -10t-78 -43q-33 -29 -54.5 -69t-25.5 -87q-4 -41 6 -77.5t31 -69.5q14 -23 33 -39q29 -27 63.5 -43t75.5 -21q63 -6 123 -32q51 -25 91 -63 t67.5 -85t41 -102.5t9.5 -114.5h-2q-4 -49 -19.5 -93t-42.5 -83q18 -43 26.5 -89t4.5 -97q-6 -76 -40 -139.5t-87 -108.5t-122 -68.5t-144 -17.5q-86 8 -156 51t-115 109zM178 801q-4 -47 10.5 -90t42.5 -78q29 -35 68 -56.5t86 -25.5q70 -6 125 -33q88 -45 143 -121 q31 55 37 125q6 63 -13.5 120.5t-55.5 102.5q-39 47 -92.5 76t-116.5 33q-66 6 -123 41q-14 10 -27.5 19.5t-23.5 21.5q-25 -29 -40.5 -62.5t-19.5 -72.5z" />
<glyph unicode="&#xa8;" horiz-adv-x="442" d="M74 1374v60h59v-60h-59zM311 1374v60h60v-60h-60z" />
<glyph unicode="&#xa9;" horiz-adv-x="1017" d="M45 838q0 123 36 231.5t98.5 189t145.5 128t179 47.5q94 0 178 -47.5t146.5 -128t98.5 -189t36 -231.5t-36 -231.5t-98.5 -189.5t-146.5 -128t-178 -47q-96 0 -179 47t-145.5 128t-98.5 189.5t-36 231.5zM82 838q0 -117 32.5 -219.5t90 -178t134.5 -120t165 -44.5 t164.5 44.5t134 120t90.5 178t33 219.5t-33 218t-90.5 178t-134 121t-164.5 44t-165 -44t-134.5 -121t-90 -178t-32.5 -218zM199 838q0 82 23.5 155.5t64.5 129t96 87t117 31.5q78 0 142.5 -48t105.5 -126l-29 -16q-37 72 -94.5 113.5t-124.5 41.5q-55 0 -103.5 -28.5 t-85.5 -78.5t-57.5 -118t-20.5 -143q0 -78 20.5 -144.5t57.5 -118t85 -80t104 -28.5q68 0 125 43t94 115l29 -17q-41 -80 -105.5 -127t-142.5 -47q-61 0 -116.5 32t-96.5 86t-64.5 128t-23.5 158z" />
<glyph unicode="&#xaa;" d="M57 477q0 98 28 185.5t76 152t112.5 102t138.5 37.5q94 0 172 -57t125 -156v213h59v-954h-59v215q-47 -98 -125 -156.5t-172 -58.5q-74 0 -138.5 38t-112.5 102.5t-76 151.5t-28 185zM117 477q0 -86 22.5 -161.5t62.5 -132t94 -89.5t116 -33q61 0 115.5 33t94.5 89.5 t63.5 132t23.5 161.5t-23.5 163t-63.5 133t-94.5 89t-115.5 33t-115.5 -33t-94.5 -89t-62.5 -133t-22.5 -163z" />
<glyph unicode="&#xab;" horiz-adv-x="733" d="M66 614l43 41l311 297v-82l-268 -256l268 -256v-82l-311 297zM301 614l45 41l311 297v-82l-268 -256l268 -256v-82l-311 297z" />
<glyph unicode="&#xad;" horiz-adv-x="536" d="M61 555v59h414v-59h-414z" />
<glyph unicode="&#xae;" horiz-adv-x="1021" d="M51 838q0 123 36 231.5t99.5 189t146.5 128t179 47.5q94 0 178 -47.5t146.5 -128t98.5 -189t36 -231.5t-36 -231.5t-98.5 -189.5t-146.5 -128t-178 -47q-96 0 -179 47t-146.5 128t-99.5 189.5t-36 231.5zM90 838q0 -117 33 -219.5t90 -178t134 -120t165 -44.5 q86 0 163 44.5t134 120t90 178t33 219.5t-33 218t-90 178t-134 121t-163 44q-88 0 -165 -44t-134 -121t-90 -178t-33 -218zM313 422v831h191q45 0 86 -17t71.5 -45t48 -66t17.5 -81q0 -78 -55.5 -136t-134.5 -68l223 -418h-37l-223 416h-152v-416h-35zM348 872h154 q39 0 73.5 13.5t60.5 37t41 55.5t15 66q0 35 -15 67t-41 55.5t-60.5 38t-73.5 14.5h-154v-347z" />
<glyph unicode="&#xb0;" horiz-adv-x="571" d="M47 1194q0 49 18.5 93t51.5 77t77 51.5t93 18.5t93 -18.5t76.5 -51.5t51 -77t18.5 -93t-18.5 -93t-51 -77t-76.5 -51.5t-93 -18.5t-93 18.5t-77 51.5t-51.5 77t-18.5 93zM90 1194q0 -82 57.5 -139.5t139.5 -57.5t139 57.5t57 139.5t-57 139.5t-139 57.5t-139.5 -57.5 t-57.5 -139.5z" />
<glyph unicode="&#xb1;" horiz-adv-x="1013" d="M61 137v60h889v-60h-889zM61 555v59h414v240h60v-240h415v-59h-415v-238h-60v238h-414z" />
<glyph unicode="&#xb2;" horiz-adv-x="569" d="M61.8818 614v33.6777q74.9111 111.306 136.098 201.492q25.7334 38.8145 50.8936 75.3457q25.1611 36.5312 45.7471 67.0693q20.5869 30.5381 34.5967 50.8008q14.0098 20.2637 16.2969 25.4014q23.4453 34.8184 40.3145 59.3633q16.8701 24.5439 27.4482 43.9512 q10.5791 19.4072 16.0117 36.2461q5.43262 16.8379 5.43262 35.6748q0 31.3936 -11.7227 59.3633t-32.8809 49.0889t-48.6064 32.8213q-27.4482 11.7012 -59.4707 11.7012q-49.1787 0 -87.7773 -27.3984t-54.6104 -70.7793l-28.5918 17.6943q21.1582 51.373 67.4766 83.623 q46.3193 32.25 105.219 32.25q37.7412 0 70.9072 -14.8408q33.167 -14.8408 58.3281 -39.3857q25.1602 -24.5439 39.7422 -57.6504t15.7256 -70.7793v-5.70801q0 -26.8271 -6.86133 -51.3721q-6.8623 -24.5449 -20.0146 -45.6641q-1.14355 -1.1416 -15.7256 -23.4023 q-14.582 -22.2617 -38.5996 -57.3662q-24.0166 -35.1045 -54.0381 -79.626q-30.0215 -44.5234 -61.4727 -90.7578q-73.7676 -108.452 -167.549 -247.156h397.999v-33.6777h-440.315z" />
<glyph unicode="&#xb3;" horiz-adv-x="608" d="M56.4473 775.537l30.877 14.8398q11.4355 -31.3936 31.4473 -57.0801q20.0117 -25.6855 46.8857 -45.0928t59.1787 -29.9668q32.3057 -10.5596 67.1836 -10.5596q45.7422 0 85.4814 17.6943q39.7383 17.6943 69.7568 47.376q30.0176 29.6816 47.457 70.209 t17.4395 85.6201q0 45.6641 -17.4395 86.1904q-17.4395 40.5273 -47.457 70.209q-30.0186 29.6816 -69.7568 47.377q-39.7393 17.6943 -85.4814 17.6943h-16.5811v34.8193q4.57422 0 8.29102 -0.571289q3.71582 -0.571289 8.29004 -0.571289q28.0176 0 52.6035 11.1309 q24.5869 11.1309 43.4551 29.1113q18.8691 17.9805 29.4473 43.0957t10.5781 53.6543q0 27.9697 -10.5781 52.5137q-10.5781 24.5449 -29.4473 43.0957q-18.8682 18.5508 -43.4551 29.1113q-24.5859 10.5596 -52.6035 10.5596q-41.168 0 -74.3301 -22.832 q-33.1641 -22.832 -49.7451 -58.792l-31.4482 15.9824q20.0127 44.5215 60.8945 72.7764q40.8828 28.2549 93.4863 28.2549q34.8779 0 66.04 -13.6992q31.1611 -13.6992 54.0322 -36.8164t36.3086 -54.2266q13.4365 -31.1084 13.4365 -65.9277q0 -49.0879 -24.5869 -88.4736 q-24.5859 -39.3857 -63.4668 -61.6465q37.7373 -13.1279 69.7568 -36.2461q32.0195 -23.1172 54.8906 -54.7969q22.8711 -31.6787 35.7363 -70.208q12.8643 -38.5293 12.8643 -80.7686q0 -52.5137 -19.7256 -98.4629q-19.7266 -45.9502 -54.3193 -81.0537 q-34.5918 -35.1045 -80.9062 -55.082q-46.3145 -19.9785 -98.918 -19.9785q-40.0234 0 -76.9033 11.7012t-67.1846 33.3926q-30.3037 21.6895 -53.7461 51.6572q-23.4434 29.9668 -37.7383 64.7861z" />
<glyph unicode="&#xb4;" horiz-adv-x="403" d="M55 1491l195 178h88l-195 -178h-88z" />
<glyph unicode="&#xb7;" horiz-adv-x="180" d="M61 555v59h58v-59h-58z" />
<glyph unicode="&#xb8;" horiz-adv-x="1705" />
<glyph unicode="&#xb9;" horiz-adv-x="395" d="M52.1953 1328.07l111.627 103.314h50.376v-817.387h-36.6367v784.28l-74.9912 -70.208h-50.375z" />
<glyph unicode="&#xba;" horiz-adv-x="733" d="M58.667 1023.46q0 84.123 24.0459 159.233q24.0449 75.1094 65.2656 130.477q41.2207 55.3662 96.6113 87.5566q55.3906 32.1895 118.938 32.1895q63.5488 0 118.51 -32.1895q54.9609 -32.1904 97.4697 -87.5566q42.5088 -55.3672 66.125 -130.477 q23.6162 -75.1104 23.6162 -159.233t-23.6162 -158.804t-66.125 -130.047q-42.5088 -55.3672 -97.8994 -87.9863q-55.3896 -32.6191 -118.08 -32.6191q-63.5479 0 -118.938 32.6191t-96.6113 87.9863q-41.2207 55.3662 -65.2656 130.047q-24.0459 74.6807 -24.0459 158.804z M110.193 1023.46q0 -73.8223 19.3223 -138.632q19.3223 -64.8086 53.6719 -114.166q34.3516 -49.3584 80.7246 -77.6855t99.6162 -28.3271q52.3848 0 99.1875 28.3271t81.1533 77.6855q34.3506 49.3574 54.5312 114.166q20.1816 64.8096 20.1816 138.632t-20.1816 139.919 q-20.1807 66.0967 -54.5312 114.167t-81.1533 76.3975t-99.1875 28.3271t-99.1875 -28.3271q-46.8018 -28.3271 -81.1533 -76.3975q-34.3496 -48.0703 -53.6719 -114.167t-19.3223 -139.919z" />
<glyph unicode="&#xbb;" horiz-adv-x="718" d="M63 276v82l269 256l-269 256v82l312 -297l45 -41l-45 -41zM301 276v82l268 256l-268 256v82l311 -297l43 -41l-43 -41z" />
<glyph unicode="&#xbc;" horiz-adv-x="1085" d="M52.1953 1328.07l111.627 103.314h50.376v-817.387h-36.6367v784.28l-74.9912 -70.208h-50.375zM180.701 0.0654297l506.162 1433.21h53.1055l-506.991 -1433.21h-52.2764zM457.364 169.527v34.8193l371.804 613.04h32.5039v-35.3896v-577.65h169.365v-34.8193h-169.365 v-169.527h-32.5039v169.527h-371.804zM497.281 204.347h331.887v547.397z" />
<glyph unicode="&#xbd;" horiz-adv-x="1017" d="M52.1953 1328.07l111.627 103.314h50.376v-817.387h-36.6367v784.28l-74.9912 -70.208h-50.375zM177.701 0.0654297l506.162 1433.21h53.1055l-506.991 -1433.21h-52.2764zM519.882 2v33.6777q74.9111 111.306 136.098 201.492q25.7334 38.8145 50.8936 75.3457 q25.1611 36.5312 45.7471 67.0693q20.5869 30.5381 34.5967 50.8008q14.0098 20.2637 16.2969 25.4014q23.4453 34.8184 40.3145 59.3633q16.8701 24.5439 27.4482 43.9512q10.5791 19.4072 16.0117 36.2461q5.43262 16.8379 5.43262 35.6748q0 31.3936 -11.7227 59.3633 t-32.8809 49.0889t-48.6064 32.8213q-27.4482 11.7012 -59.4707 11.7012q-49.1787 0 -87.7773 -27.3984t-54.6104 -70.7793l-28.5918 17.6943q21.1582 51.373 67.4766 83.623q46.3193 32.25 105.219 32.25q37.7412 0 70.9072 -14.8408q33.167 -14.8408 58.3281 -39.3857 q25.1602 -24.5439 39.7422 -57.6504t15.7256 -70.7793v-5.70801q0 -26.8271 -6.86133 -51.3721q-6.8623 -24.5449 -20.0146 -45.6641q-1.14355 -1.1416 -15.7256 -23.4023q-14.582 -22.2617 -38.5996 -57.3662q-24.0166 -35.1045 -54.0381 -79.626 q-30.0215 -44.5234 -61.4727 -90.7578q-73.7676 -108.452 -167.549 -247.156h397.999v-33.6777h-440.315z" />
<glyph unicode="&#xbe;" horiz-adv-x="1259" d="M56.3164 777.14l30.748 14.8037q11.3877 -31.3164 31.3164 -56.9395t46.6904 -44.9824t58.9326 -29.8936q32.1709 -10.5332 66.9043 -10.5332q45.5518 0 85.125 17.6514t69.4668 47.2598q29.8926 29.6084 47.2598 70.0352q17.3662 40.4277 17.3662 85.4102 q0 45.5518 -17.3662 85.9785q-17.3672 40.4277 -47.2598 70.0361q-29.8936 29.6084 -69.4668 47.2598t-85.125 17.6514h-16.5127v34.7334q4.55566 0 8.25684 -0.569336t8.25586 -0.569336q27.9004 0 52.3848 11.1035q24.4844 11.1025 43.2744 29.0391 q18.79 17.9355 29.3232 42.9893q10.5342 25.0537 10.5342 53.5234q0 27.9004 -10.5342 52.3848q-10.5332 24.4834 -29.3232 42.9893q-18.79 18.5049 -43.2744 29.0391t-52.3848 10.5342q-40.9961 0 -74.0215 -22.7764q-33.0254 -22.7754 -49.5371 -58.6475l-31.3174 15.9424 q19.9287 44.4131 60.6406 72.5986t93.0967 28.1855q34.7334 0 65.7656 -13.666t53.8076 -36.7266q22.7764 -23.0605 36.1572 -54.0918q13.3809 -31.0322 13.3809 -65.7656q0 -48.9688 -24.4844 -88.2568t-63.2031 -61.4951q37.5801 -13.0957 69.4668 -36.1562 q31.8857 -23.0605 54.6621 -54.6621q22.7754 -31.6016 35.5869 -70.0361t12.8115 -80.5693q0 -52.3848 -19.6445 -98.2207q-19.6436 -45.8369 -54.0928 -80.8545q-34.4482 -35.0186 -80.5693 -54.9473t-98.5059 -19.9287q-39.8574 0 -76.584 11.6729 q-36.7256 11.6729 -66.9043 33.3096q-30.1777 21.6367 -53.5225 51.5303q-23.3457 29.8936 -37.5811 64.627zM352.701 -2.00391l506.162 1435.22h53.1055l-506.991 -1435.22h-52.2764zM625.478 171.527v34.8193l373.157 613.04h32.623v-35.3896v-577.65h169.98v-34.8193 h-169.98v-169.527h-32.623v169.527h-373.157zM665.541 206.347h333.094v547.397z" />
<glyph unicode="&#xbf;" horiz-adv-x="753" d="M53 477q0 94 25.5 177t70 146.5t104.5 103.5t128 48v299h59v-360q-10 2 -30 2t-29 -2q-55 -8 -104.5 -43t-86 -90.5t-57 -128t-20.5 -152.5q0 -86 23.5 -162.5t63.5 -133t94 -89.5t116 -33q74 0 136 47.5t103 126.5l51 -30q-47 -92 -122.5 -147.5t-167.5 -55.5 q-74 0 -138.5 38t-113.5 102.5t-77 151.5t-28 185zM381 1370v60h59v-60h-59z" />
<glyph unicode="&#xc0;" horiz-adv-x="1007" d="M37 0l416 1432h59l473 -1432h-59l-158 477h-532l-140 -477h-59zM252 537h496l-265 798zM260 1669h88l195 -178h-88z" />
<glyph unicode="&#xc1;" horiz-adv-x="1017" d="M47 0l416 1432h59l473 -1432h-59l-158 477h-532l-140 -477h-59zM262 537h496l-265 798zM436 1491l195 178h88l-195 -178h-88z" />
<glyph unicode="&#xc2;" horiz-adv-x="1017" d="M47 0l416 1432h59l473 -1432h-59l-158 477h-532l-140 -477h-59zM258 1491l178 178h115l176 -178h-84l-149 151l-152 -151h-84zM262 537h496l-264 798z" />
<glyph unicode="&#xc3;" horiz-adv-x="1034" d="M47 0l416 1432h59l473 -1432h-59l-158 477h-532l-140 -477h-59zM225 1624q14 6 31 12q25 8 57 17q20 4 37 7t35 3t41 -5t53 -18q16 -4 31 -10q12 -4 22.5 -8t14.5 -6q45 -14 71.5 -15.5t67.5 9.5q29 6 53 16l29 12l10 -59q-16 -6 -30 -12q-33 -10 -58 -17q-23 -4 -39 -6 t-33.5 -2t-40 5t-53.5 18q-16 4 -30 10q-12 4 -22.5 7t-14.5 5q-23 6 -40.5 10.5t-32.5 5.5t-30.5 -1.5t-36.5 -6.5q-12 -4 -26.5 -9t-26.5 -9q-14 -6 -28 -10zM262 537h496l-264 798z" />
<glyph unicode="&#xc4;" horiz-adv-x="1026" d="M37 0h59l140 477h532l158 -477h59l-473 1432h-59zM252 537l231 798l265 -798h-496zM328 1610v59h59v-59h-59zM565 1610v59h60v-59h-60z" />
<glyph unicode="&#xc5;" horiz-adv-x="1026" d="M37 0l416 1432h59l473 -1432h-59l-158 477h-532l-140 -477h-59zM252 537h496l-265 798zM379 1567q0 43 29.5 72.5t72.5 29.5t73 -29.5t30 -72.5t-30 -73t-73 -30t-72.5 30t-29.5 73zM397 1567q0 -35 24.5 -59.5t59.5 -24.5t59.5 24.5t24.5 59.5t-24.5 59.5t-59.5 24.5 t-59.5 -24.5t-24.5 -59.5z" />
<glyph unicode="&#xc6;" horiz-adv-x="1757" d="M25 4l886 1428h785v-60h-711v-596h533v-59h-533v-656h711v-61h-770v4v475h-533l-297 -475h-71zM430 539h496v798z" />
<glyph unicode="&#xc7;" horiz-adv-x="1112" d="M63 715q0 147 42 278t115 227.5t169 153t207 56.5q137 0 252 -84t186 -226l-51 -28q-66 127 -166 202.5t-221 75.5q-98 0 -184 -51t-150.5 -140t-101.5 -209t-37 -255t37 -255t101.5 -209t150.5 -140.5t184 -51.5q121 0 221.5 75t165.5 202l51 -29q-68 -133 -174 -215 t-233 -92v-61q100 -8 167.5 -58.5t67.5 -120.5q0 -37 -20.5 -69.5t-57 -56t-85 -38t-103.5 -14.5q-66 0 -123 19.5t-92 54.5l53 31q61 -45 162 -45q86 0 146.5 34.5t60.5 83.5t-60.5 84t-146.5 35h-29v121q-104 8 -196 66.5t-161 154.5t-108 223.5t-39 270.5z" />
<glyph unicode="&#xc8;" horiz-adv-x="884" d="M61 0v1432h770v-60h-710v-596h532v-61h-532v-656h710v-59h-770zM240 1669h88l195 -178h-88z" />
<glyph unicode="&#xc9;" horiz-adv-x="884" d="M61 0v1432h770v-60h-710v-596h532v-61h-532v-656h710v-59h-770zM334 1491l195 178h88l-195 -178h-88z" />
<glyph unicode="&#xca;" horiz-adv-x="884" d="M61 0v1432h770v-60h-710v-596h532v-61h-532v-656h710v-59h-770zM206 1491l179 178h114l176 -178h-83l-150 151l-152 -151h-84z" />
<glyph unicode="&#xcb;" horiz-adv-x="884" d="M61 0v1432h770v-60h-710v-596h532v-61h-532v-656h710v-59h-770zM293 1605v60h59v-60h-59zM530 1605v60h60v-60h-60z" />
<glyph unicode="&#xcc;" horiz-adv-x="227" d="M84 2v1432h59v-1432h-59zM-109 1671h88l195 -178h-88z" />
<glyph unicode="&#xcd;" horiz-adv-x="227" d="M84 2v1432h59v-1432h-59zM55 1491l195 178h88l-195 -178h-88z" />
<glyph unicode="&#xce;" horiz-adv-x="227" d="M84 2v1432h59v-1432h-59zM-119 1491l179 178h114l176 -178h-83l-150 151l-152 -151h-84z" />
<glyph unicode="&#xcf;" horiz-adv-x="227" d="M84 2v1432h59v-1432h-59zM-32 1605v60h59v-60h-59zM205 1605v60h60v-60h-60z" />
<glyph unicode="&#xd1;" horiz-adv-x="952" d="M63 0v1432h66l705 -1321v1321h57v-1432h-66l-702 1321v-1321h-60zM199 1620q14 6 31 12q25 8 57 17q20 4 36.5 7t35 3t41 -5t53.5 -18q16 -4 31 -10q12 -4 22.5 -8t14.5 -6q45 -14 71.5 -15.5t67.5 9.5q29 6 53 16l29 12l10 -59q-16 -6 -31 -12q-33 -10 -57 -17 q-23 -4 -39 -6t-33.5 -2t-40 5t-53.5 18q-16 4 -31 10q-12 4 -22 7t-14 5q-23 6 -40.5 10.5t-33 5.5t-30.5 -1.5t-36 -6.5q-12 -4 -26.5 -9t-26.5 -9q-14 -6 -29 -10z" />
<glyph unicode="&#xd2;" horiz-adv-x="1069" d="M61 715q0 147 37 278t101.5 227.5t150.5 153t185 56.5q98 0 184 -56.5t150.5 -153t101.5 -227.5t37 -278t-37 -278.5t-101.5 -227.5t-150.5 -152.5t-184 -56.5t-184.5 56.5t-151 152.5t-101.5 227.5t-37 278.5zM119 715q0 -135 32.5 -255t89 -209t132.5 -140.5t162 -51.5 t161.5 51.5t131 140.5t88 209t32.5 255t-32.5 255t-88 209t-131 140t-161.5 51t-162 -51t-132.5 -140t-89 -209t-32.5 -255zM352 1669h88l195 -178h-88z" />
<glyph unicode="&#xd3;" horiz-adv-x="1069" d="M61 715q0 147 37 278t101.5 227.5t150.5 153t185 56.5q98 0 184 -56.5t150.5 -153t101.5 -227.5t37 -278t-37 -278.5t-101.5 -227.5t-150.5 -152.5t-184 -56.5t-184.5 56.5t-151 152.5t-101.5 227.5t-37 278.5zM119 715q0 -135 32.5 -255t89 -209t132.5 -140.5t162 -51.5 t161.5 51.5t131 140.5t88 209t32.5 255t-32.5 255t-88 209t-131 140t-161.5 51t-162 -51t-132.5 -140t-89 -209t-32.5 -255zM452 1491l195 178h88l-195 -178h-88z" />
<glyph unicode="&#xd4;" horiz-adv-x="1069" d="M61 715q0 147 37 278t101.5 227.5t150.5 153t185 56.5q98 0 184 -56.5t150.5 -153t101.5 -227.5t37 -278t-37 -278.5t-101.5 -227.5t-150.5 -152.5t-184 -56.5t-184.5 56.5t-151 152.5t-101.5 227.5t-37 278.5zM119 715q0 -135 32.5 -255t89 -209t132.5 -140.5t162 -51.5 t161.5 51.5t131 140.5t88 209t32.5 255t-32.5 255t-88 209t-131 140t-161.5 51t-162 -51t-132.5 -140t-89 -209t-32.5 -255zM299 1489l179 178h114l176 -178h-83l-150 151l-152 -151h-84z" />
<glyph unicode="&#xd5;" horiz-adv-x="1069" d="M61 715q0 147 37 278t101.5 227.5t150.5 153t185 56.5q98 0 184 -56.5t150.5 -153t101.5 -227.5t37 -278t-37 -278.5t-101.5 -227.5t-150.5 -152.5t-184 -56.5t-184.5 56.5t-151 152.5t-101.5 227.5t-37 278.5zM119 715q0 -135 32.5 -255t89 -209t132.5 -140.5t162 -51.5 t161.5 51.5t131 140.5t88 209t32.5 255t-32.5 255t-88 209t-131 140t-161.5 51t-162 -51t-132.5 -140t-89 -209t-32.5 -255zM258 1624q14 6 31 12q25 8 57 17q20 4 36.5 7t35 3t41 -5t53.5 -18q16 -4 31 -10q12 -4 22.5 -8t14.5 -6q45 -14 71.5 -15.5t67.5 9.5q29 6 53 16 l29 12l10 -59q-16 -6 -31 -12q-33 -10 -57 -17q-23 -4 -39 -6t-33.5 -2t-40 5t-53.5 18q-16 4 -31 10q-12 4 -22 7t-14 5q-23 6 -40.5 10.5t-33 5.5t-30.5 -1.5t-36 -6.5q-12 -4 -26.5 -9t-26.5 -9q-14 -6 -29 -10z" />
<glyph unicode="&#xd6;" horiz-adv-x="1069" d="M61 715q0 147 37 278t101.5 227.5t150.5 153t185 56.5q98 0 184 -56.5t150.5 -153t101.5 -227.5t37 -278t-37 -278.5t-101.5 -227.5t-150.5 -152.5t-184 -56.5t-184.5 56.5t-151 152.5t-101.5 227.5t-37 278.5zM119 715q0 -135 32.5 -255t89 -209t132.5 -140.5t162 -51.5 t161.5 51.5t131 140.5t88 209t32.5 255t-32.5 255t-88 209t-131 140t-161.5 51t-162 -51t-132.5 -140t-89 -209t-32.5 -255zM385 1610v60h59v-60h-59zM622 1610v60h60v-60h-60z" />
<glyph unicode="&#xd7;" horiz-adv-x="772" d="M59 61l295 414l-295 414h66l266 -365l266 365h66l-297 -414l297 -414h-66l-266 367l-266 -367h-66z" />
<glyph unicode="&#xd8;" horiz-adv-x="1081" d="M70 717q0 147 36.5 278t101 227.5t150.5 153t185 56.5q104 0 200 -68l45 127h62l-57 -166q100 -96 161.5 -256t61.5 -352q0 -147 -37 -278.5t-101.5 -228.5t-150.5 -153.5t-184 -56.5q-53 0 -103.5 17.5t-95.5 50.5l-47 -127h-61l59 165q-102 96 -163.5 256t-61.5 355z M129 717q0 -174 50 -317.5t136 -231.5l408 1139q-84 66 -180 65q-86 0 -162 -51t-131 -140t-88 -209t-33 -255zM362 125q86 -63 181 -64q86 0 161.5 51.5t131 140.5t88 209t32.5 255q0 174 -50 316.5t-136 232.5z" />
<glyph unicode="&#xd9;" horiz-adv-x="1073" d="M63 655v775h60v-775q0 -135 32.5 -245.5t89 -188.5t131.5 -120t161 -42t161.5 42t132 120t89 188.5t32.5 245.5v775h60v-1430h-60v324q-61 -154 -170.5 -239t-244.5 -85t-245 85t-169 239q-29 72 -44.5 154.5t-15.5 176.5zM369 1669h88l195 -178h-88z" />
<glyph unicode="&#xda;" horiz-adv-x="1073" d="M63 655v775h60v-775q0 -135 32.5 -245.5t89 -188.5t131.5 -120t161 -42t161.5 42t132 120t89 188.5t32.5 245.5v775h60v-1430h-60v324q-61 -154 -170.5 -239t-244.5 -85t-245 85t-169 239q-29 72 -44.5 154.5t-15.5 176.5zM428 1491l195 178h88l-195 -178h-88z" />
<glyph unicode="&#xdb;" horiz-adv-x="1073" d="M63 655v775h60v-775q0 -135 32.5 -245.5t89 -188.5t131.5 -120t161 -42t161.5 42t132 120t89 188.5t32.5 245.5v775h60v-1430h-60v324q-61 -154 -170.5 -239t-244.5 -85t-245 85t-169 239q-29 72 -44.5 154.5t-15.5 176.5zM301 1491l179 178h114l176 -178h-83l-150 151 l-152 -151h-84z" />
<glyph unicode="&#xdc;" horiz-adv-x="1073" d="M63 655v775h60v-775q0 -135 32.5 -245.5t89 -188.5t131.5 -120t161 -42t161.5 42t132 120t89 188.5t32.5 245.5v775h60v-1430h-60v324q-61 -154 -170.5 -239t-244.5 -85t-245 85t-169 239q-29 72 -44.5 154.5t-15.5 176.5zM387 1607v60h59v-60h-59zM624 1607v60h60v-60 h-60z" />
<glyph unicode="&#xdd;" horiz-adv-x="1005" d="M23 1430h67l414 -668l414 668h65l-887 -1430h-65l440 709zM393 1491l195 178h88l-195 -178h-88z" />
<glyph unicode="&#xe0;" d="M57 477q0 98 28 185.5t76 152t112.5 102t138.5 37.5q94 0 172 -57t125 -156v213h59v-954h-59v215q-47 -98 -125 -156.5t-172 -58.5q-74 0 -138.5 38t-112.5 102.5t-76 151.5t-28 185zM117 477q0 -86 22.5 -161.5t62.5 -132t94 -89.5t116 -33q61 0 115.5 33t94.5 89.5 t63.5 132t23.5 161.5t-23.5 163t-63.5 133t-94.5 89t-115.5 33t-115.5 -33t-94.5 -89t-62.5 -133t-22.5 -163zM238 1196h88l195 -178h-88z" />
<glyph unicode="&#xe1;" d="M57 477q0 98 28 185.5t76 152t112.5 102t138.5 37.5q94 0 172 -57t125 -156v213h59v-954h-59v215q-47 -98 -125 -156.5t-172 -58.5q-74 0 -138.5 38t-112.5 102.5t-76 151.5t-28 185zM117 477q0 -86 22.5 -161.5t62.5 -132t94 -89.5t116 -33q61 0 115.5 33t94.5 89.5 t63.5 132t23.5 161.5t-23.5 163t-63.5 133t-94.5 89t-115.5 33t-115.5 -33t-94.5 -89t-62.5 -133t-22.5 -163zM342 1018l195 178h88l-195 -178h-88z" />
<glyph unicode="&#xe2;" d="M57 477q0 98 28 185.5t76 152t112.5 102t138.5 37.5q94 0 172 -57t125 -156v213h59v-954h-59v215q-47 -98 -125 -156.5t-172 -58.5q-74 0 -138.5 38t-112.5 102.5t-76 151.5t-28 185zM117 477q0 -86 22.5 -161.5t62.5 -132t94 -89.5t116 -33q61 0 115.5 33t94.5 89.5 t63.5 132t23.5 161.5t-23.5 163t-63.5 133t-94.5 89t-115.5 33t-115.5 -33t-94.5 -89t-62.5 -133t-22.5 -163zM180 1018l179 178h114l176 -178h-83l-150 151l-152 -151h-84z" />
<glyph unicode="&#xe3;" d="M57 477q0 98 28 185.5t76 152t112.5 102t138.5 37.5q94 0 172 -57t125 -156v213h59v-954h-59v215q-47 -98 -125 -156.5t-172 -58.5q-74 0 -138.5 38t-112.5 102.5t-76 151.5t-28 185zM117 477q0 -86 22.5 -161.5t62.5 -132t94 -89.5t116 -33q61 0 115.5 33t94.5 89.5 t63.5 132t23.5 161.5t-23.5 163t-63.5 133t-94.5 89t-115.5 33t-115.5 -33t-94.5 -89t-62.5 -133t-22.5 -163zM139 1157q14 6 31 12q25 8 57 17q20 4 36.5 7t35 3t41 -5t53.5 -18q16 -4 31 -10q12 -4 22.5 -8t14.5 -6q45 -14 71.5 -15.5t67.5 9.5q29 6 53 16l29 12l10 -59 q-16 -6 -31 -12q-33 -10 -57 -17q-23 -4 -39 -6t-33.5 -2t-40 5t-53.5 18q-16 4 -31 10q-12 4 -22 7t-14 5q-23 6 -40.5 10.5t-33 5.5t-30.5 -1.5t-36 -6.5q-12 -4 -26.5 -9t-26.5 -9q-14 -6 -29 -10z" />
<glyph unicode="&#xe4;" d="M57 477q0 98 28 185.5t76 152t112.5 102t138.5 37.5q94 0 172 -57t125 -156v213h59v-954h-59v215q-47 -98 -125 -156.5t-172 -58.5q-74 0 -138.5 38t-112.5 102.5t-76 151.5t-28 185zM117 477q0 -86 22.5 -161.5t62.5 -132t94 -89.5t116 -33q61 0 115.5 33t94.5 89.5 t63.5 132t23.5 161.5t-23.5 163t-63.5 133t-94.5 89t-115.5 33t-115.5 -33t-94.5 -89t-62.5 -133t-22.5 -163zM267 1134v60h59v-60h-59zM504 1134v60h60v-60h-60z" />
<glyph unicode="&#xe5;" d="M57 477q0 98 28 185.5t76 152t112.5 102t138.5 37.5q94 0 172 -57t125 -156v213h59v-954h-59v215q-47 -98 -125 -156.5t-172 -58.5q-74 0 -138.5 38t-112.5 102.5t-76 151.5t-28 185zM117 477q0 -86 22.5 -161.5t62.5 -132t94 -89.5t116 -33q61 0 115.5 33t94.5 89.5 t63.5 132t23.5 161.5t-23.5 163t-63.5 133t-94.5 89t-115.5 33t-115.5 -33t-94.5 -89t-62.5 -133t-22.5 -163zM315 1090q0 43 30 72.5t73 29.5t72.5 -29.5t29.5 -72.5t-29.5 -73t-72.5 -30t-73 30t-30 73zM334 1090q0 -35 24.5 -59.5t59.5 -24.5t59.5 24.5t24.5 59.5 t-24.5 59.5t-59.5 24.5t-59.5 -24.5t-24.5 -59.5z" />
<glyph unicode="&#xe6;" horiz-adv-x="1478" d="M59 477q0 98 28 185.5t76 152t112.5 102t138.5 37.5q92 0 170 -57t127 -156v213h57v-213q49 98 127 155.5t170 57.5q74 0 138.5 -37.5t112.5 -102t75.5 -152t27.5 -185.5h-651q0 -86 23.5 -161.5t63.5 -132t94.5 -89.5t115.5 -33q76 0 138.5 48.5t103.5 128.5l53 -27 q-49 -96 -126 -153.5t-169 -57.5t-170 58.5t-127 156.5v-215h-57v215q-49 -98 -127 -156.5t-170 -58.5q-74 0 -138.5 38t-112.5 102.5t-76 151.5t-28 185zM119 477q0 -86 22.5 -161.5t62.5 -132t94 -89.5t116 -33q61 0 115.5 33t94.5 89.5t63.5 132t23.5 161.5t-23.5 163 t-63.5 133t-94.5 89t-115.5 33t-115.5 -33t-94.5 -89t-62.5 -133t-22.5 -163zM772 537h586q-8 76 -34 141t-64.5 113.5t-89 76t-105.5 27.5t-105.5 -27.5t-89.5 -76t-64.5 -113.5t-33.5 -141z" />
<glyph unicode="&#xe7;" horiz-adv-x="774" d="M57 477q0 98 28 185.5t76 152t112.5 102t138.5 37.5q92 0 167.5 -55t125.5 -149l-52 -29q-41 80 -103.5 127t-137.5 47q-61 0 -115.5 -33t-94.5 -89t-62.5 -133t-22.5 -163t22.5 -161.5t62.5 -132t94 -89.5t116 -33q76 0 138 47.5t103 127.5l49 -31 q-45 -86 -113.5 -140.5t-150.5 -62.5v-61q100 -8 168 -58.5t68 -120.5q0 -37 -20.5 -69.5t-57.5 -56t-85 -38t-103 -14.5q-66 0 -123.5 19.5t-91.5 54.5l53 31q61 -45 162 -45q86 0 146 34.5t60 83.5t-60 84t-146 35h-29v123q-68 8 -126 48t-102.5 103.5t-69 146.5 t-24.5 175z" />
<glyph unicode="&#xe8;" horiz-adv-x="833" d="M61 477q0 -98 28 -185t76 -151.5t112.5 -102.5t138.5 -38q92 0 169 57.5t126 153.5l-54 27q-41 -80 -103 -129.5t-138 -49.5q-61 0 -115.5 33t-94.5 90.5t-62.5 133t-22.5 161.5h649q0 98 -27.5 185.5t-76 152t-113 102t-137.5 37.5q-74 0 -138.5 -37.5t-112.5 -102 t-76 -152t-28 -185.5zM123 537q8 76 33.5 141t64.5 113.5t89 76t106 27.5q55 0 105 -27.5t89 -76t64.5 -114t34.5 -140.5h-586zM225 1194h88l195 -178h-88z" />
<glyph unicode="&#xe9;" horiz-adv-x="833" d="M61 477q0 98 28 185.5t76 152t112.5 102t138.5 37.5t138 -37.5t112.5 -102t76 -152t27.5 -185.5h-649q0 -86 22.5 -161.5t62.5 -133t94 -90.5t116 -33q76 0 138 49.5t103 129.5l54 -27q-49 -96 -126 -153.5t-169 -57.5q-74 0 -138.5 38t-112.5 102.5t-76 151.5t-28 185z M123 537h586q-8 76 -34 141t-65 113.5t-89 76t-105 27.5t-105.5 -27.5t-89.5 -76t-64.5 -113.5t-33.5 -141zM342 1020l195 178h88l-195 -178h-88z" />
<glyph unicode="&#xea;" horiz-adv-x="833" d="M61 477q0 98 28 185.5t76 152t112.5 102t138.5 37.5t138 -37.5t112.5 -102t76 -152t27.5 -185.5h-649q0 -86 22.5 -161.5t62.5 -133t94 -90.5t116 -33q76 0 138 49.5t103 129.5l54 -27q-49 -96 -126 -153.5t-169 -57.5q-74 0 -138.5 38t-112.5 102.5t-76 151.5t-28 185z M123 537h586q-8 76 -34 141t-65 113.5t-89 76t-105 27.5t-105.5 -27.5t-89.5 -76t-64.5 -113.5t-33.5 -141zM182 1018l179 178h114l176 -178h-83l-150 151l-152 -151h-84z" />
<glyph unicode="&#xeb;" horiz-adv-x="833" d="M61 477q0 98 28 185.5t76 152t112.5 102t138.5 37.5t138 -37.5t112.5 -102t76 -152t27.5 -185.5h-649q0 -86 22.5 -161.5t62.5 -133t94 -90.5t116 -33q76 0 138 49.5t103 129.5l54 -27q-49 -96 -126 -153.5t-169 -57.5q-74 0 -138.5 38t-112.5 102.5t-76 151.5t-28 185z M123 537h586q-8 76 -34 141t-65 113.5t-89 76t-105 27.5t-105.5 -27.5t-89.5 -76t-64.5 -113.5t-33.5 -141zM269 1134v60h59v-60h-59zM506 1134v60h60v-60h-60z" />
<glyph unicode="&#xec;" horiz-adv-x="221" d="M82 0v954h57v-954h-57zM-107 1196h88l195 -178h-88z" />
<glyph unicode="&#xed;" horiz-adv-x="221" d="M82 0v954h57v-954h-57zM53 1018l195 178h88l-195 -178h-88z" />
<glyph unicode="&#xee;" horiz-adv-x="221" d="M82 0v954h57v-954h-57zM-123 1018l179 178h114l176 -178h-83l-150 151l-152 -151h-84z" />
<glyph unicode="&#xef;" horiz-adv-x="221" d="M82 0v954h57v-954h-57zM-37 1134v60h59v-60h-59zM200 1134v60h60v-60h-60z" />
<glyph unicode="&#xf1;" horiz-adv-x="833" d="M61 0v954h60v-213q47 98 125 155.5t170 57.5q74 0 138 -37.5t113.5 -102t77 -152t27.5 -185.5v-477h-59v477q0 86 -23.5 163t-63.5 133t-94.5 89t-115.5 33t-115.5 -33t-94.5 -89t-62.5 -133t-22.5 -163v-477h-60zM139 1157q14 6 31 12q25 8 57 17q20 4 36.5 7t35 3 t41 -5t53.5 -18q16 -4 31 -10q12 -4 22.5 -8t14.5 -6q45 -14 71.5 -15.5t67.5 9.5q29 6 53 16l29 12l10 -59q-16 -6 -31 -12q-33 -10 -57 -17q-23 -4 -39 -6t-33.5 -2t-40 5t-53.5 18q-16 4 -31 10q-12 4 -22 7t-14 5q-23 6 -40.5 10.5t-33 5.5t-30.5 -1.5t-36 -6.5 q-12 -4 -26.5 -9t-26.5 -9q-14 -6 -29 -10z" />
<glyph unicode="&#xf2;" d="M59 477q0 98 28 185.5t76 152t112.5 102t138.5 37.5t138 -37.5t113.5 -102t77 -152t27.5 -185.5t-27.5 -185t-77 -151.5t-114 -102.5t-137.5 -38q-74 0 -138.5 38t-112.5 102.5t-76 151.5t-28 185zM119 477q0 -86 22.5 -161.5t62.5 -133t94 -90.5t116 -33q61 0 115.5 33 t94.5 90.5t63.5 133t23.5 161.5t-23.5 163t-63.5 133t-94.5 89t-115.5 33t-115.5 -33t-94.5 -89t-62.5 -133t-22.5 -163zM213 1198h88l195 -178h-88z" />
<glyph unicode="&#xf3;" d="M59 477q0 98 28 185.5t76 152t112.5 102t138.5 37.5t138 -37.5t113.5 -102t77 -152t27.5 -185.5t-27.5 -185t-77 -151.5t-114 -102.5t-137.5 -38q-74 0 -138.5 38t-112.5 102.5t-76 151.5t-28 185zM119 477q0 -86 22.5 -161.5t62.5 -133t94 -90.5t116 -33q61 0 115.5 33 t94.5 90.5t63.5 133t23.5 161.5t-23.5 163t-63.5 133t-94.5 89t-115.5 33t-115.5 -33t-94.5 -89t-62.5 -133t-22.5 -163zM317 1016l195 178h88l-195 -178h-88z" />
<glyph unicode="&#xf4;" d="M59 477q0 98 28 185.5t76 152t112.5 102t138.5 37.5t138 -37.5t113.5 -102t77 -152t27.5 -185.5t-27.5 -185t-77 -151.5t-114 -102.5t-137.5 -38q-74 0 -138.5 38t-112.5 102.5t-76 151.5t-28 185zM119 477q0 -86 22.5 -161.5t62.5 -133t94 -90.5t116 -33q61 0 115.5 33 t94.5 90.5t63.5 133t23.5 161.5t-23.5 163t-63.5 133t-94.5 89t-115.5 33t-115.5 -33t-94.5 -89t-62.5 -133t-22.5 -163zM180 1018l179 178h114l176 -178h-83l-150 151l-152 -151h-84z" />
<glyph unicode="&#xf5;" d="M59 477q0 98 28 185.5t76 152t112.5 102t138.5 37.5t138 -37.5t113.5 -102t77 -152t27.5 -185.5t-27.5 -185t-77 -151.5t-114 -102.5t-137.5 -38q-74 0 -138.5 38t-112.5 102.5t-76 151.5t-28 185zM119 477q0 -86 22.5 -161.5t62.5 -133t94 -90.5t116 -33q61 0 115.5 33 t94.5 90.5t63.5 133t23.5 161.5t-23.5 163t-63.5 133t-94.5 89t-115.5 33t-115.5 -33t-94.5 -89t-62.5 -133t-22.5 -163zM137 1155q14 6 31 12q25 8 57 17q20 4 36.5 7t35 3t41 -5t53.5 -18q16 -4 31 -10q12 -4 22.5 -8t14.5 -6q45 -14 71.5 -15.5t67.5 9.5q29 6 53 16 l29 12l10 -59q-16 -6 -31 -12q-33 -10 -57 -17q-23 -4 -39 -6t-33.5 -2t-40 5t-53.5 18q-16 4 -31 10q-12 4 -22 7t-14 5q-23 6 -40.5 10.5t-33 5.5t-30.5 -1.5t-36 -6.5q-12 -4 -26.5 -9t-26.5 -9q-14 -6 -29 -10z" />
<glyph unicode="&#xf6;" d="M59 477q0 98 28 185.5t76 152t112.5 102t138.5 37.5t138 -37.5t113.5 -102t77 -152t27.5 -185.5t-27.5 -185t-77 -151.5t-114 -102.5t-137.5 -38q-74 0 -138.5 38t-112.5 102.5t-76 151.5t-28 185zM119 477q0 -86 22.5 -161.5t62.5 -133t94 -90.5t116 -33q61 0 115.5 33 t94.5 90.5t63.5 133t23.5 161.5t-23.5 163t-63.5 133t-94.5 89t-115.5 33t-115.5 -33t-94.5 -89t-62.5 -133t-22.5 -163zM267 1134v60h59v-60h-59zM504 1134v60h60v-60h-60z" />
<glyph unicode="&#xf7;" horiz-adv-x="1011" d="M61 555v59h889v-59h-889zM477 227v60h60v-60h-60zM477 883v59h60v-59h-60z" />
<glyph unicode="&#xf8;" horiz-adv-x="849" d="M70 477q0 98 27.5 185.5t76.5 152t113.5 102t138.5 37.5q68 0 127 -30l33 90h63l-45 -123q78 -63 127 -172t49 -242q0 -98 -27.5 -185t-75.5 -151.5t-112.5 -102.5t-138.5 -38q-66 0 -127 33l-33 -92h-63l45 125q-80 61 -129 169.5t-49 241.5zM129 477q0 -111 38 -204 t101 -148l264 741q-51 29 -106 29q-61 0 -115.5 -33t-94.5 -89t-63.5 -133t-23.5 -163zM317 88q27 -12 53.5 -19.5t55.5 -7.5q61 0 114.5 33t93.5 89.5t63.5 132t23.5 161.5q0 113 -38 206t-99 148z" />
<glyph unicode="&#xf9;" horiz-adv-x="835" d="M63 477v477h60v-477q0 -86 23.5 -161.5t63.5 -133t94 -90.5t116 -33q61 0 114.5 33t93.5 90.5t63.5 133t23.5 161.5v477h59v-954h-59v215q-47 -98 -125 -156.5t-170 -58.5q-74 0 -138.5 38t-113.5 102.5t-77 151.5t-28 185zM225 1196h88l195 -178h-88z" />
<glyph unicode="&#xfa;" horiz-adv-x="835" d="M63 477v477h60v-477q0 -86 23.5 -161.5t63.5 -133t94 -90.5t116 -33q61 0 114.5 33t93.5 90.5t63.5 133t23.5 161.5v477h59v-954h-59v215q-47 -98 -125 -156.5t-170 -58.5q-74 0 -138.5 38t-113.5 102.5t-77 151.5t-28 185zM329 1016l195 178h88l-195 -178h-88z" />
<glyph unicode="&#xfb;" horiz-adv-x="835" d="M63 477v477h60v-477q0 -86 23.5 -161.5t63.5 -133t94 -90.5t116 -33q61 0 114.5 33t93.5 90.5t63.5 133t23.5 161.5v477h59v-954h-59v215q-47 -98 -125 -156.5t-170 -58.5q-74 0 -138.5 38t-113.5 102.5t-77 151.5t-28 185zM182 1016l179 178h114l176 -178h-83l-150 151 l-152 -151h-84z" />
<glyph unicode="&#xfc;" horiz-adv-x="835" d="M63 477v477h60v-477q0 -86 23.5 -161.5t63.5 -133t94 -90.5t116 -33q61 0 114.5 33t93.5 90.5t63.5 133t23.5 161.5v477h59v-954h-59v215q-47 -98 -125 -156.5t-170 -58.5q-74 0 -138.5 38t-113.5 102.5t-77 151.5t-28 185zM269 1132v60h59v-60h-59zM506 1132v60h60v-60 h-60z" />
<glyph unicode="&#xfd;" horiz-adv-x="780" d="M31 -416q47 0 92 16.5t85 47t70.5 75t49.5 99.5l57 184l-354 948h59l322 -862l270 862h59l-354 -1132q-20 -66 -57 -121t-84 -94t-102.5 -60.5t-112.5 -21.5v59zM323 1016l195 178h88l-195 -178h-88z" />
<glyph unicode="&#xff;" horiz-adv-x="780" d="M31 -416q47 0 92 16.5t85 47t70.5 75t49.5 99.5l57 184l-354 948h59l322 -862l270 862h59l-354 -1132q-20 -66 -57 -121t-84 -94t-102.5 -60.5t-112.5 -21.5v59zM267 1136v60h59v-60h-59zM504 1136v60h60v-60h-60z" />
<glyph unicode="&#x131;" horiz-adv-x="221" d="M82 0v954h57v-954h-57z" />
<glyph unicode="&#x152;" horiz-adv-x="1779" d="M63 715q0 147 37 278t101.5 227.5t150.5 153t185 56.5q68 0 129 -27t115.5 -76t97.5 -116.5t73 -149.5v369h768v-60h-708v-596h532v-59h-532v-656h708v-59h-768v369q-61 -166 -170.5 -267.5t-244.5 -101.5q-98 0 -184.5 56.5t-151 152.5t-101.5 227.5t-37 278.5zM123 715 q0 -135 32.5 -255t89 -209t131.5 -140.5t161 -51.5t161.5 51.5t132 140.5t89 209t32.5 255t-32.5 255t-89 209t-132 140t-161.5 51t-161 -51t-131.5 -140t-89 -209t-32.5 -255z" />
<glyph unicode="&#x153;" horiz-adv-x="1470" d="M53 475q0 98 28 185.5t77 152t113.5 102t138.5 37.5q111 0 197.5 -78.5t127.5 -205.5q41 127 128 205.5t198 78.5q74 0 138.5 -37.5t112.5 -102t75.5 -152t27.5 -185.5h-651q0 -86 23.5 -161.5t63.5 -132t94 -89.5t116 -33q76 0 138.5 48.5t103.5 128.5l51 -27 q-47 -96 -124 -152.5t-169 -56.5q-111 0 -198 79t-128 206q-41 -127 -128 -206t-197 -79q-74 0 -138.5 37t-113.5 101.5t-77 151.5t-28 185zM113 475q0 -86 23.5 -161.5t63.5 -132t94 -89.5t116 -33q61 0 114.5 33t93 89.5t63.5 132t24 161.5t-24 163t-63.5 133t-93 89 t-114.5 33t-115.5 -33t-94.5 -89t-63.5 -133t-23.5 -163zM768 537h586q-8 76 -34 140t-64.5 112.5t-89 76t-105.5 27.5t-105.5 -27.5t-89.5 -76t-64.5 -112.5t-33.5 -140z" />
<glyph unicode="&#x178;" horiz-adv-x="1005" d="M23 1430l448 -721l-440 -709h65l887 1430h-65l-414 -668l-414 668h-67zM330 1610v59h59v-59h-59zM567 1610v59h60v-59h-60z" />
<glyph unicode="&#x2c6;" horiz-adv-x="598" d="M63 1491l179 178h114l176 -178h-83l-150 151l-152 -151h-84z" />
<glyph unicode="&#x2dc;" horiz-adv-x="655" d="M47 1624q14 6 31 12q25 8 57 17q20 4 36.5 7t35 3t41 -5t53.5 -18q16 -4 31 -10q12 -4 22.5 -8t14.5 -6q45 -14 71.5 -15.5t67.5 9.5q29 6 53 16l29 12l10 -59q-16 -6 -31 -12q-33 -10 -57 -17q-23 -4 -39 -6t-33.5 -2t-40 5t-53.5 18q-16 4 -31 10q-12 4 -22 7t-14 5 q-23 6 -40.5 10.5t-33 5.5t-30.5 -1.5t-36 -6.5q-12 -4 -26.5 -9t-26.5 -9q-14 -6 -29 -10z" />
<glyph unicode="&#x2000;" horiz-adv-x="835" />
<glyph unicode="&#x2001;" horiz-adv-x="1671" />
<glyph unicode="&#x2002;" horiz-adv-x="835" />
<glyph unicode="&#x2003;" horiz-adv-x="1671" />
<glyph unicode="&#x2004;" horiz-adv-x="557" />
<glyph unicode="&#x2005;" horiz-adv-x="417" />
<glyph unicode="&#x2006;" horiz-adv-x="278" />
<glyph unicode="&#x2007;" horiz-adv-x="278" />
<glyph unicode="&#x2008;" horiz-adv-x="208" />
<glyph unicode="&#x2009;" horiz-adv-x="333" />
<glyph unicode="&#x200a;" horiz-adv-x="92" />
<glyph unicode="&#x2010;" horiz-adv-x="536" d="M61 555v59h414v-59h-414z" />
<glyph unicode="&#x2011;" horiz-adv-x="536" d="M61 555v59h414v-59h-414z" />
<glyph unicode="&#x2012;" horiz-adv-x="536" d="M61 555v59h414v-59h-414z" />
<glyph unicode="&#x2013;" horiz-adv-x="624" d="M63 555v59h500v-59h-500z" />
<glyph unicode="&#x2014;" horiz-adv-x="1021" d="M59 555v59h899v-59h-899z" />
<glyph unicode="&#x2018;" horiz-adv-x="251" d="M66 1110v59v29q6 66 29.5 126t58.5 110l36 -52q-27 -41 -44 -88t-21 -100q0 -18 -2 -29v-55h-57z" />
<glyph unicode="&#x2019;" horiz-adv-x="219" d="M20 1159q55 84 66 191q2 10 2 28v56h59v-60q0 -18 -2 -28q-12 -135 -88 -236z" />
<glyph unicode="&#x201a;" horiz-adv-x="186" d="M-2 -215q57 84 65 190q2 6 3 14v13v57h59v-59q0 -8 -1 -15.5t-1 -15.5q-12 -131 -88 -235z" />
<glyph unicode="&#x201c;" horiz-adv-x="409" d="M63 1112v59v29q6 66 30 126t59 110l36 -52q-27 -41 -44 -88t-21 -100v-29v-55h-60zM233 1112v59v29q6 66 30 126t59 110l36 -52q-27 -41 -44 -88t-21 -100q0 -18 -2 -29v-55h-58z" />
<glyph unicode="&#x201d;" horiz-adv-x="370" d="M8 1159q27 41 44.5 89t21.5 102q0 18 2 28v56h59v-60q-2 -10 -2 -28q-6 -66 -29.5 -126.5t-58.5 -109.5zM178 1159q27 41 44.5 89t21.5 102v28v56h59v-60v-28q-6 -66 -29.5 -126.5t-58.5 -109.5z" />
<glyph unicode="&#x201e;" horiz-adv-x="356" d="M0 -219q27 41 44 89t22 101q0 18 2 29v55h59v-59q-2 -10 -2 -29q-6 -66 -29.5 -126t-58.5 -109zM170 -219q27 41 44 89t22 101v29v55h59v-59v-29q-6 -66 -29.5 -126t-58.5 -109z" />
<glyph unicode="&#x2022;" horiz-adv-x="237" d="M59 496v118h119v-118h-119z" />
<glyph unicode="&#x2026;" horiz-adv-x="559" d="M63 0v59h60v-59h-60zM250 0v59h59v-59h-59zM436 0v59h60v-59h-60z" />
<glyph unicode="&#x202f;" horiz-adv-x="333" />
<glyph unicode="&#x2039;" horiz-adv-x="489" d="M63 449l43 40l312 297v-81l-268 -256l268 -256v-82l-312 297z" />
<glyph unicode="&#x203a;" horiz-adv-x="475" d="M61 111v82l269 256l-269 256v81l312 -297l43 -40l-43 -41z" />
<glyph unicode="&#x205f;" horiz-adv-x="417" />
<glyph unicode="&#x20ac;" horiz-adv-x="1206" d="M61 598v59h119q0 14 -1 28.5t-1 31.5q0 16 1 29.5t1 29.5h-119v60h125q16 127 63.5 235.5t117 188t157.5 126t187 46.5q137 0 251.5 -84t186.5 -226l-51 -28q-66 127 -166.5 202.5t-220.5 75.5q-86 0 -164 -41t-139.5 -112.5t-104.5 -170t-57 -212.5h524v-60h-530 q0 -16 -1 -29.5t-1 -29.5t1 -30.5t1 -29.5h530v-59h-524q14 -115 57 -213t104.5 -170t139.5 -113t164 -41q121 0 221 75t166 202l51 -29q-72 -141 -186.5 -225t-251.5 -84q-98 0 -186.5 46t-158 126t-116.5 189.5t-64 236.5h-125z" />
<glyph unicode="&#x2122;" horiz-adv-x="1148" d="M43 1393v41h473v-41h-217v-629h-39v629h-217zM559 764v670h41l223 -568l224 564l2 4h41v-670h-41v555l-226 -565l-225 565v-555h-39z" />
<glyph unicode="&#xe000;" horiz-adv-x="955" d="M0 955h955v-955h-955v955z" />
<glyph unicode="&#xfb01;" horiz-adv-x="708" d="M81 0v954q0 145 58 265q47 98 126 155.5t171 57.5q84 0 162 -52l-41 -45q-55 37 -121 37q-61 0 -115.5 -32.5t-94.5 -89t-63.5 -133.5t-23.5 -163v-178h297v-59h-297v-717h-58zM571 0v954h57v-954h-57zM571 1133v61h57v-61h-57z" />
<glyph unicode="&#xfb02;" horiz-adv-x="694" d="M80 0v954q0 72 15.5 139.5t43.5 125.5q47 96 125 154.5t170 58.5q61 0 119 -29v29h59v-1432h-59v1337q-53 35 -119 35q-61 0 -114.5 -32.5t-93.5 -90t-63.5 -133.5t-23.5 -162v-178h295v-61h-295v-715h-59z" />
<glyph unicode="&#xfb03;" horiz-adv-x="1196" d="M1057 0v954h57v-954h-57zM1057 1133v61h57v-61h-57zM548 0v954q0 145 58 265q47 98 126 155.5t171 57.5q84 0 162 -52l-41 -45q-55 37 -121 37q-61 0 -115.5 -32.5t-94.5 -89t-63.5 -133.5t-23.5 -163v-178h297v-59h-297v-717h-58zM61 0v954q0 145 58 265 q47 98 126 155.5t171 57.5q84 0 162 -52l-41 -45q-55 37 -121 37q-61 0 -115.5 -32.5t-94.5 -89t-63.5 -133.5t-23.5 -163v-178h297v-59h-297v-717h-58z" />
<glyph unicode="&#xfb04;" horiz-adv-x="1198" d="M1057 0v1432h59v-1432h-59zM548 0v954q0 145 58 265q47 98 126 155.5t171 57.5q84 0 162 -52l-41 -45q-55 37 -121 37q-61 0 -115.5 -32.5t-94.5 -89t-63.5 -133.5t-23.5 -163v-178h297v-59h-297v-717h-58zM61 0v954q0 145 58 265q47 98 126 155.5t171 57.5q84 0 162 -52 l-41 -45q-55 37 -121 37q-61 0 -115.5 -32.5t-94.5 -89t-63.5 -133.5t-23.5 -163v-178h297v-59h-297v-717h-58z" />
</font>
</defs>
</svg>
