<?xml version="1.0" standalone="no"?>
<!DOCTYPE svg PUBLIC "-//W3C//DTD SVG 1.1//EN" "http://www.w3.org/Graphics/SVG/1.1/DTD/svg11.dtd" >
<svg xmlns="http://www.w3.org/2000/svg">
<metadata>
This is a custom SVG webfont generated by Font Squirrel.
Copyright   :  J O E B O B graphics 2006  2007   wwwjoebobnl
Designer    : J O E B O B graphics  JJW van der ham
Foundry     : J O E B O B graphics
Foundry URL : wwwmyfontscom  wwwjoebobnl
</metadata>
<defs>
<font id="joeHand2Regular" horiz-adv-x="293" >
<font-face units-per-em="1000" ascent="800" descent="-200" />
<missing-glyph horiz-adv-x="500" />
<glyph unicode=" " />
<glyph unicode="," horiz-adv-x="628" d="M295 75q0 -18 -50 -124t-64 -118q-5 -5 -21 -8q-6 -14 -24 -37t-23 -38q-17 3 -17 23q0 8 7.5 11t8.5 5q-1 27 26 72q32 53 35.5 67.5t10.5 41.5q4 15 36 100q4 13 13 35q7 14 27 14q12 0 23.5 -16t11.5 -28z" />
<glyph unicode="." horiz-adv-x="261" d="M140 21q0 -17 -11.5 -28.5t-28.5 -11.5q-11 0 -22 20t-11 32q0 11 15.5 22t26.5 11q31 0 31 -45z" />
<glyph unicode="0" horiz-adv-x="406" d="M344 323q0 -11 -4 -42q-4 -34 -8 -38q-5 -70 -41 -148q-39 -83 -92 -123l-10 11q-5 -3 -15 -11l-12 11l-8 5l-12 -10q2 2 2 4q0 6 -16 6q-10 0 -32 32l-28 42q1 3 1 6q0 6 -5 18t-6 16l3 15q-1 3 -4 13q-2 7 -2 13q0 51 11 105q13 36 36 109q1 15 10 46q14 19 41 56 q13 19 32 59q4 8 23 16t30 8q8 0 35 -30q25 -26 32 -38q39 -67 39 -151zM294 333q0 14 -7 13q2 9 2 20q0 57 -28 89l-26 -6.5t-21 -11.5q-43 -48 -68 -127q-13 -41 -32 -141q-4 -5 -8 -6q5 -35 10 -71q10 -59 43 -59q20 0 55 50q31 43 39 71t26 81q2 11 9 49q6 31 6 49z" />
<glyph unicode="1" horiz-adv-x="232" d="M177 440q-2 2 -4 2q-4 0 -8 -10q-30 -80 -30 -241q0 -3 -1 -9.5t-1 -9.5q0 -11 4 -20q-5 -6 -5 -19q0 -8 1.5 -24t1.5 -23q0 -23 -10 -31q5 -2 15 -9v-19q-10 -4 -17 -69q-17 4 -32 18q-5 29 -14 88q-1 20 -4 60q0 2 -6 8.5t-6 13.5q0 5 3 13.5t3 13.5q2 13 2 85 q0 52 9 84l-3 -2q-4 1 -4 8t8.5 28.5t9.5 30.5q6 51 7 52q7 19 42 19q8 0 21 -16z" />
<glyph unicode="2" horiz-adv-x="443" d="M406 92q-64 -39 -76 -39q-5 0 -5 1l1 1q0 3 -5 3q-4 0 -10.5 -9.5t-12.5 -9.5q-15 0 -53 -21q-26 -16 -53 -31q-5 -3 -42 -12q-6 -2 -13 -5q-5 0 -26 15q-24 17 -27 19l175 434l-4 16q-49 -28 -91 -74q-51 -56 -52 -103l13 -13q-8 -9 -20 -31q-19 10 -39 21 q-24 13 -24 32q0 56 97.5 144.5t153.5 88.5q35 0 35 -39q0 -11 -16 -69q2 -4 15 -4l-156 -328q4 -4 5 -15t7 -11q17 0 99 27.5t99 27.5q9 0 25 -16z" />
<glyph unicode="3" horiz-adv-x="429" d="M391 186q0 -37 -44 -112q-7 -12 -79 -76.5t-79 -64.5q-5 0 -20 9.5t-19 10.5q13 25 100 113q76 75 76 111q0 40 -35 40q-21 0 -62.5 -7.5t-62.5 -7.5q-5 0 -21.5 7t-21.5 8v21q30 28 73 89q39 56 61 100q-3 3 -6 3q-12 0 -13.5 -1t-1.5 -10q0 -4 -5 -4q-4 0 -11.5 2.5 t-11.5 2.5q-17 0 -55 -51l-10 9q-19 -18 -39 -37q-22 -22 -25 -46q-11 7 -29 9q-11 2 -30 21q11 29 59 69q43 36 78 52q124 58 134 58q17 0 37.5 -10t20.5 -25q0 -22 -55.5 -102.5t-56.5 -99.5q4 5 17 5q7 0 19 -2.5t18 -2.5q2 0 7.5 2.5t6.5 2.5q24 0 55 -31t31 -55z" />
<glyph unicode="4" horiz-adv-x="443" d="M398 181q2 -4 2 -11q0 -5 -1.5 -15.5t-1.5 -15.5q0 10 -36 10l-11 -9q0 4 -22 13q-6 -7 -19 -22q-7 -34 -7 -40q0 -7 4 -22t3 -24q25 -21 25 -42q0 -11 -13.5 -19.5t-25.5 -10.5q-1 12 -38 14q-12 55 -12 79q0 4 2.5 12.5t2.5 12.5q0 16 -15 16q-7 0 -61 -27.5t-61 -27.5 q-17 0 -36 -10q-11 19 -43 24v15q0 11 85 136q93 136 101 152q5 13 15 37q16 38 33 75q18 42 28 77q1 5 11 10.5t16 5.5q12 0 30 -27t18 -40q0 -3 -16 -56q-13 -43 -32 -129q-1 -28 -6 -84h-1q-5 0 -5 -21q0 -27 10 -27q6 0 7 2l-5 5q2 -2 32 -2q5 0 20 -7t23 -7zM264 275 v54q-71 -100 -128 -208l12 9q5 1 4 3t5 2q4 0 10 -2l9 -3q6 13 34 25q20 9 41 18q3 45 8 93q1 3 3 2.5t2 6.5z" />
<glyph unicode="5" horiz-adv-x="393" d="M443 550q-5 -8 -28 -7l-14 -13q-8 4 -35 4q-6 0 -7 -4t-3 -4q0 1 -2 1q-4 0 -4 -10q-4 0 -12 2t-12 2q-5 0 -24 -13t-20 -13q-6 0 -24 -11t-24 -11q-14 0 -110 -52q-1 -8 -6 -33q-5 -20 -5 -32q0 -6 2.5 -6.5t2.5 -1.5q4 -21 14 -61q20 -54 41 -107q24 -65 24 -110 q0 -38 -29 -97q-15 -17 -34 -46q-15 0 -60 23v41q9 16 9 28q13 -3 26 -10v0q0 -4 6 -7q24 12 24 72q0 12 -5 14v5q0 37 -23 87q1 3 1 7q0 11 -12 31q-14 25 -17 32q-27 80 -27 132q0 33 14 64q17 36 43 47q89 37 112 37q5 0 5 -1l-1 -1q0 -2 5 -2q4 0 4 9q0 4 5 4q4 0 4 -2 l-4 -5q1 -2 4 -2q5 0 13 9t14 9q4 0 4 -2v-1q0 -2 4 -2t8 2t9 2q15 12 27 18q5 0 15.5 -2t15.5 -2t11 4.5t12.5 4.5t21 4t21.5 4q6 0 20 -28z" />
<glyph unicode="6" horiz-adv-x="356" d="M327 703q-55 -64 -96 -154q-68 -151 -73 -160q5 -7 16 -21q9 9 22 9q32 0 60 -55q24 -48 24 -84q0 -28 -14 -37l9 -4q0 -61 -37 -139q-43 -91 -97 -91q-4 0 -10.5 2.5t-10.5 2.5q-7 0 -8 -1l5 -4q-5 8 -19 16q-17 10 -21 15q-29 29 -26 117q-5 -2 -6 10q0 13 7 35.5 t8 30.5q11 72 12 78q7 41 19 77q18 43 49 128q2 7 5 21q7 18 21 55q22 58 102 173q12 16 15 16q5 0 9 -4.5t10 -4.5q14 0 25 -11v-16zM169 371h-7l-6 -15l7 -3zM224 229q0 16 -9 45.5t-9 42.5q-8 9 -28 19t-28 17q-11 -33 -10 -49q-7 -15 -9 -38q-1 -6 -9 -20.5t-8 -21.5 q0 -38 -2 -56q-1 -9 -6 -35q-5 -21 -5 -34q0 -18 25 -79l10 1l6 -2q13 14 36 45q20 35 23 52q1 11 5.5 31t11 42.5t6.5 39.5z" />
<glyph unicode="7" horiz-adv-x="471" d="M481 171q0 -5 -10 -16q-6 -8 -13 -16l-10 9l-16 -4l-9 -9q-6 2 -13 4q-6 0 -17 -4.5t-17 -4.5q-22 0 -53.5 -10.5t-32.5 -10.5q-14 0 -13 -9l-13 13q-16 -12 -49 -29q-11 -34 -28 -76q1 -6 2 -18q-5 -27 -11 -54q-8 -37 -17 -50q-2 -8 0 -66l-4 9q-16 -55 -16 -119 q-8 -17 -32 -40l-22 16q-16 13 -16 19q0 29 10 68q9 34 18 67q7 37 15 74q10 45 27 67l-8 4q21 60 21 85q0 5 -8.5 13.5t-8.5 14.5q0 3 18.5 26t21.5 31q13 37 44 146q26 93 49 146l-7 6q-24 -12 -37 -12q-8 -9 -51 -36t-60 -44q16 -16 43 -52q-6 -6 -6 -10l1 -4 q-17 12 -36 12q-6 0 -6 -2l3 -6q-20 14 -41 29q-27 20 -27 37q0 7 9 19q54 70 190 108l13 13q7 2 59 29q47 23 52 23q30 0 30 -34q-21 -18 -57 -75q-26 -42 -52 -83q0 -26 -27 -99t-27 -86q0 -4 1.5 -10.5t2.5 -9.5q6 -2 15 -2q30 0 93.5 12t91.5 12q41 0 41 -11z" />
<glyph unicode="8" horiz-adv-x="364" d="M309 575q0 2 -17 -62q-4 -16 -46 -84q-39 -63 -39 -81q0 -2 13.5 -30t15.5 -34q37 -121 37 -163q0 -35 -6 -53q-30 -90 -49 -103q-9 -6 -26 -6q-62 0 -93 61q-24 48 -24 116q0 7 4 28q5 25 6 32q4 40 35 96q30 53 30 71q0 11 -40 72t-40 108q0 28 39 68q6 2 49 18 q40 15 42 15q9 0 25 -4.5t24 -4.5q1 0 6.5 2t6.5 2q14 0 30.5 -24.5t16.5 -39.5zM251 578q0 17 -20 17q-30 0 -66 -18q-42 -21 -42 -48q0 -21 55 -110q21 40 42 81q31 62 31 78zM220 127q0 12 -7 12q2 8 2 19q0 23 -12 60q-10 30 -20 59q-47 -61 -47 -145q0 -32 10 -70 q13 -51 33 -54q41 64 41 119z" />
<glyph unicode="9" horiz-adv-x="437" d="M393 487q0 -4 -7 -43q-8 -44 -24 -123q-5 -20 -11 -59q0 5 0 -19q0 -32 -7 -85q-7 -63 -9 -86q-3 -8 -13 -23q0 -7 2.5 -21.5t2.5 -21.5q0 -18 -6 -48q-7 -38 -8 -48q-4 -7 -14 -19q-5 -22 -11 -66q-6 -5 -16 -14q0 -24 -22 -106q-1 -9 -5 -25q-2 -7 -12 -13q1 -2 1 -6 q0 -9 -5 -19q-3 5 -8 5q0 -1 -15 -21q-8 -20 -18 -58q-4 -2 -35 -24q-27 -19 -33 -19h-16q-12 1 -17 1q-1 6 -10 15q32 27 69 72q42 50 54 82q54 138 77 306q1 7 5 80q3 53 12 77l-11 12q-4 -6 -27 -43q-15 -27 -32 -39q-22 -58 -32 -58q-13 0 -27 -10t-14 -23q0 -6 3 -10 q-18 -11 -38 -11q-27 0 -50 31q-20 28 -20 57q0 6 8 22q10 21 11 24q74 203 103 239l86 104q18 11 38.5 22.5t38.5 9.5q3 12 7.5 24t18.5 12q10 0 23 -11.5t13 -22.5zM320 381q-9 0 -17 8q2 5 4 16t4 17q-25 -18 -70 -78q-32 -44 -64 -87q5 -1 5 -4q-84 -168 -82 -218l11 -5 q18 9 42.5 35t36.5 35q7 17 29.5 47.5t30.5 47.5q23 62 70 186z" />
<glyph unicode="A" horiz-adv-x="491" d="M565 365l-108 -31q-32 0 -67 -19q-17 -10 -34 -19l-8 4q-16 0 -24 -17.5t-8 -35.5q0 -16 9 -49.5t9 -50.5q0 -5 -1 -15t-1 -15q0 -12 10 -41q11 -33 12.5 -46t7.5 -41q-4 0 -8.5 -9t-10.5 -9q-10 0 -34 18q-1 10 -9 33t-8 35q0 4 3 11.5t3 9.5q0 4 -5 13q0 35 -12 64h1 q4 0 4 8q0 9 -4 9h-3q0 -2 1 -3q4 5 4 11q0 9 -6 25t-6 24t-1 20t-1 18q-60 -14 -85 -26q-28 -15 -71 -58q-14 -64 -52 -191q-7 1 -20 2.5t-20 1.5q-10 9 -10 21q0 5 38 146q-19 13 -38 43q6 4 35 18q22 11 32 25q4 5 9 27q5 26 7 31q10 19 28 59q74 208 155 404l-13 17 q0 9 3.5 27.5t3.5 26.5t7 14t14 6q27 0 41 -37q0 -5 1.5 -14.5t1.5 -13.5q0 -25 -6 -68q-7 -49 -8 -67q-5 -71 -5 -168q0 -66 -1 -73q0 -2 -2.5 -7t-2.5 -10q0 -35 14 -61l3 8q32 6 140 33q57 14 62 14q21 0 34 -32zM274 365q0 7 -4 22t-4 23q0 3 1 9v8q0 9 -3 11q2 14 2 29 q0 -5 -11 95q-11 -32 -57 -142q-36 -88 -50 -145q4 4 18 4q9 0 51.5 18.5t45.5 24.5q9 15 5 39q0 1 3 0q3 0 3 4z" />
<glyph unicode="B" horiz-adv-x="727" d="M776 423q-2 -10 -4 -29q-7 0 -19.5 -5t-19.5 -5q-12 0 -36 -5t-36 -5l-9 -10q-4 0 -8 2.5t-9 2.5q-4 0 -5 -1l2 -2q0 -2 -4.5 -2t-13.5 -10l-9 10q-8 -9 -13 -9l-10 -10l-8 5q0 -8 3 -24.5t3 -24.5q0 -39 -22 -76q-12 -20 -65 -84q-57 -70 -66 -70q-6 0 -6 2q2 2 2 4 t-1 4q-4 -10 -33 -39.5t-35.5 -29.5t-66.5 -39t-66 -39t-21.5 -12t-20.5 -12h-17l-13 -14l-26 -8q-21 -8 -21 -22l-14 15q-3 -13 -19 -15l-28 -5l-9 10q-10 1 -19.5 15t-9.5 24q0 7 2.5 11t3.5 6q-2 5 -2 10q0 29 45 92q52 73 59 94q17 47 17 139v16q-1 11 -1 16q0 26 13 43 l-8 4q13 50 13 67q0 27 -41 46q4 18 25.5 34.5t26.5 26.5t15.5 69.5t10.5 75.5q0 24 -17 24q-20 0 -64.5 -18.5t-57.5 -32.5h-20q-17 16 -38 42q3 3 6 10l-2 5q114 60 140 60q5 0 6.5 -5t7.5 -5q25 15 49 21q9 13 9 33h23q7 0 28.5 -12t27.5 -12q14 0 43.5 2.5t43.5 2.5 q13 0 42 -9q33 -10 33 -19q0 -2 -4 -5q10 -21 21 -21q6 0 6 -4v-9q-8 -1 -12 -10q-29 -56 -97 -113q-59 -47 -117 -94l-5 3l-7 -5q2 -3 21 -3q8 0 31 -5l10 10q7 -4 37 -9t41 -5q6 2 14 4l10 -10q7 1 21 -6.5t15 -7.5q3 0 3 2q0 -6 -3 6q1 2 4 2q6 0 63 -34.5t65 -34.5 t23.5 5t23.5 5h26q5 0 14 5t14 5t14 -2.5t14 -2.5q4 0 11 2.5t11 2.5q12 0 34 2.5t32 2.5zM369 705q-24 0 -61 -4q-54 -6 -60 -7q-6 -14 -18 -57t-12 -55q0 -6 5 -10.5t6 -6.5q18 22 72 69q48 42 68 71zM493 382q-9 14 -42 28.5t-38 22.5l-9 -10l-9 9q-15 0 -47.5 3t-49.5 3 q-7 0 -10 -3.5t-4 -3.5q-30 -3 -59 -6q-39 -4 -39 -36q0 -5 1 -10l8 -3q-13 -13 -13 -29q0 -69 -9 -158q5 2 17.5 13t17.5 11t72 48.5t73 48.5t50.5 27t50.5 27q5 0 9.5 -2.5t8.5 -2.5q7 0 13.5 8t7.5 15zM534 298q0 -9 -5 26q-19 11 -22 11q-4 0 -3 -8q-3 -7 -32 -1l-4 -6 q-5 0 -8 -2.5t-1 -7.5q-6 6 -14 10l-15 -15q-33 -20 -88 -55q-117 -77 -183 -157q10 -22 10 -46q0 -37 -26 -49q-3 7 -25 18q3 -3 8 -10l-2 -3q-17 9 -17 24l-30 -48q-19 -30 -19 -52q0 -12 6 -12q2 0 116 44q9 11 49 33q33 18 55 27q117 111 121.5 111t37.5 31 q30 29 36.5 38.5t30.5 52t24 46.5z" />
<glyph unicode="C" horiz-adv-x="505" d="M521 349q0 -2 -11 -19t-13 -21q-5 -21 -24 -62q-19 -22 -56 -68q-9 -13 -28 -37q-22 -20 -55 -61q-2 0 -12.5 -13.5t-16.5 -13.5t-6 -2l4 -6q-11 0 -22 -9.5t-15 -9.5t-4 -1l3 -6q-1 -1 -4 -2q-8 0 -31.5 -14t-29.5 -21q-12 0 -27 -4.5t-18 -4.5q-5 0 -10 2.5t-9 2.5 l-9 9q-29 2 -57 35q-31 36 -33 37q2 2 2 6q0 2 -1 8v8q-19 17 -19 41q0 -3 6 14q3 10 3 31q1 25 3 34q5 23 21.5 59.5t21.5 53.5q20 74 93 212l-3 5q20 46 67 128q36 53 72 105q56 76 87 76q33 0 33 -58q0 -5 -15 -25t-17 -27q-6 -17 -9 -51t-6 -46q-7 -19 -17 -61 q-6 -62 -13 -123q-9 -78 -30 -116q-1 14 -7 48q-6 31 -6 47q0 4 8 37l10 8q-9 25 -9 44q0 29 10 62q2 7 -2 24q2 19 10 48v38q-19 2 -33 -29q-19 -41 -23 -44q-11 -11 -21 -36q-8 -21 -15 -41q-4 -9 -43 -76q-18 -31 -82 -186q-8 -13 -20 -40q-21 -87 -21 -97q0 -8 4 -24 t4 -24q0 -16 16.5 -41t31.5 -25q3 0 13.5 -4.5t21.5 -4.5q5 0 9 4.5t9 4.5t5 2h-1q0 3 5 3q21 0 81 56q40 37 79 75q29 26 84 96q78 102 81 106q1 -2 3.5 -5.5t2.5 -10.5z" />
<glyph unicode="D" horiz-adv-x="661" d="M703 369h-34q-55 1 -78 -2q-5 -1 -16 -6.5t-17 -5.5q-5 0 -6 2t-5 2q-11 0 -30.5 -14.5t-19.5 -24.5q0 -3 1 -8.5t1 -7.5q0 -27 -54 -104q-21 -28 -94 -97q-80 -75 -99 -75q-4 0 -68.5 -34.5t-72.5 -34.5q-20 0 -36.5 25t-29.5 21q2 107 -9 144q-6 21 -6 17q0 6 5.5 23 t5.5 29q0 8 2.5 23t2.5 22q0 4 -1.5 12.5t-1.5 12.5q0 25 12 79.5t12 79.5q0 20 -10 89.5t-16 86.5q-9 9 -19 39t-10 45q0 38 40 75.5t78 37.5q5 0 16 -3t16 -3q119 -9 231 -104q120 -102 120 -218q0 -5 -1 -14.5t-1 -14.5q0 -3 3 -6v-13v-26l8 -8q16 9 119 9q10 0 31 -10.5 t31 -18.5v-21zM482 440q0 7 -3 7l-3 -2q1 6 1 12q0 18 -18 70l5 3l-21 30q1 19 -35 59l-50 56q-15 10 -29 20q-23 15 -29 15t-23 11.5t-23 11.5q-9 0 -55 18q-7 0 -21.5 2t-21.5 3l-9 -10h-40q-14 0 -29 -19t-15 -34q0 -4 16 -53q0 15 7 22l-9 4q10 8 34 20q25 -6 25 -80 q0 -10 -13 -175q-5 -8 -5 -36t-11 -37q-2 -76 -10 -229q49 77 126 126q28 21 56 43q36 27 60 31q17 20 89 49q54 21 54 62zM454 310l-6 26q-20 -13 -40 -25t-44 -12q-17 -17 -59.5 -38.5t-58.5 -37.5q-9 -9 -17 -19q-12 -13 -21 -12q-2 0 -6 1q-2 -13 -16 -32 q-12 -14 -23 -28q-14 -20 -35 -77q1 -1 2.5 -8t8.5 -7q17 0 89 44q65 40 88 59q14 15 41 44q17 16 50 64q30 44 47 58z" />
<glyph unicode="E" horiz-adv-x="633" d="M779 796q-2 0 -8 -5.5t-13 -5.5q-4 0 -13 3.5t-14 3.5q-9 0 -27 3.5t-28 3.5q-5 0 -9 -4.5t-9 -4.5q-4 0 -12 2t-13 2q-10 0 -11 -2l3 -3q-5 5 -22 5q-10 0 -47.5 -9t-47.5 -9q-2 0 -7.5 2t-6.5 2q-22 0 -32 -18l-9 9q-9 -9 -17 -9l-10 -9q-3 0 -7 2.5t-9 2.5q-7 0 -7 -2 l4 -5l-8 7q-9 -19 -19 -19q-5 0 -5 2q1 0 1 1q0 2 -5 2q-8 0 -9 -1l3 -4q-2 2 -5 2q-11 0 -26 -7.5t-26 -7.5l-9 -9h-6q-18 1 -26.5 -5t-27.5 -18q-7 -3 -16 -6.5t-11 -10.5q-4 -12 -26 -94t-22 -87v-22q2 -4 20 -4q14 0 18 -4l9 9q6 0 18.5 4.5t18.5 4.5q28 0 96 27l9 -9 q4 5 17 5l9 9l28 5q5 0 5 -7q0 -2 5 -3q7 0 23 2t24 2q0 -17 -16 -17q-7 0 -25.5 -7t-27.5 -7l-14 -13q-7 -2 -38 -15q-21 -8 -45 -8q-5 0 -5 1q1 2 2 5q0 1 -1 3q-21 -31 -95 -46l-10 -9q-4 1 -8 1q-34 0 -42 -63q-3 -21 -2 -88q-5 -12 -5 -19q0 -60 12 -97q8 -25 35 -64 q31 -44 51 -44h10h10q45 0 180 57q59 27 120 91q57 64 62 64q1 0 6.5 -2.5t6.5 -2.5q6 0 11 4t9 4q-68 -103 -70 -103q-5 0 -5 2l2 4q0 2 -1 4q-19 -45 -121 -110q-126 -57 -147 -57q-4 0 -4 -2l3 -5q-1 -2 -4 -2q-5 -1 -5 1q1 0 1 1q0 2 -5 2t-9 -4.5t-9 -4.5t-14 -2 t-14 -2q-6 0 -44 20q-45 25 -49 27q0 5 4 10q-26 32 -42 72l3 9q-24 71 -24 96q0 6 6 20t6 23q0 7 -2.5 21t-2.5 21q0 10 5.5 27.5t5.5 26.5q0 5 -2 14.5t-2 14.5v1q-1 2 -7 2t-9 -2t-4 -2l-9 -9v-1q0 -4 -9.5 -4t-18 -7t-8.5 -15h-6q-12 0 -28 -1q-16 -4 -13 -4 q-9 0 -21 25q13 27 65 57l80 44l-1 3q0 16 12.5 49t10.5 52q6 13 15 51q9 34 19 49q-5 12 -20 12q-4 -3 -12.5 -15.5t-14.5 -12.5t-12.5 -4.5t-11.5 -4.5t-12 7t-12 7q-2 8 -2 14q0 28 52 55q59 29 69 49q3 0 10 -2t11 -2q5 0 59 14q215 54 217 54q9 0 26.5 -2.5t25.5 -2.5 q6 0 7 2l-6 6q7 0 21 5.5t22 5.5q3 0 8.5 -2.5t10.5 -2.5t31 -2q19 -1 31 0q2 0 5 -3.5t10 -3.5q4 0 4 1v1q12 7 18 7t18.5 -11.5t18 -11t5.5 -1.5q-1 0 -1 -1q0 -2 5.5 -2t13.5 -5.5t11 -6.5z" />
<glyph unicode="F" horiz-adv-x="573" d="M734 779q0 -14 -9.5 -23.5l-18.5 -18.5q1 1 1 3t-2 7.5t-2 9.5q-3 0 -8.5 1.5t-8.5 1.5q-6 0 -7.5 -4.5t-6.5 -4.5q-4 0 -4 2l3 5q0 2 -4 2q-8 0 -26.5 -4t-27.5 -5l-10 -9l-10 9q-27 -18 -45 -18q-1 0 -7 2t-7 2q-14 0 -43.5 -6.5t-43.5 -6.5q-6 0 -7.5 -5t-6.5 -5 q-4 0 -4 2l3 6q0 2 -4 2t-4 -10q0 -4 -5 -4t-14 2t-13 2t-4 -1l3 -6q-1 -2 -4 -2q-51 0 -115 -32q-2 2 -4 2q-4 0 -2 -9q-2 -16 -16 -47q-1 0 -1 -29q0 -32 -13 -44q1 -6 1 -12q0 -15 -9 -43.5t-9 -42.5q0 -28 19 -28q5 0 12.5 4.5t12.5 4.5t16 2.5t15.5 2.5t4.5 2l-3 5 q1 2 4 2q5 0 5.5 -2t5.5 -2q6 0 17.5 7t17.5 8q20 1 81 14q56 12 70 12q4 0 4 -1l-3 -6q1 -2 4 -2q4 0 4 1l-3 6q0 2 4 2q6 0 18.5 -2.5t19.5 -2.5q0 -4 1 -10.5t1 -9.5q0 -7 -2 -11q-3 0 -10 -2q-4 -1 -10 1l-10 -9q-3 5 -22 5q-4 0 -4 -2l3 -5q-1 -3 -4 -3q-4 0 -4 2l3 6 q0 2 -3 2q-5 0 -5 -2v-1q0 -2 -5 -2t-6.5 -4.5t-6 -4.5t-10.5 -2.5t-9 -2.5h-31q-11 -12 -48 -20q-31 -7 -54 -7q-45 -28 -55 -28q-18 0 -25 -5q-9 -8 -19 -17v-131l8 -8q1 0 6 6.5t7 7.5q11 -21 11 -32v-179q-3 1 -5 1q-18 0 -24 -38q-2 7 -10 18l-11 -8q1 1 1 3 q0 -1 -9 11q0 30 -12 76h2q4 0 4 8q0 21 -11 47q0 19 4 104q2 65 2 105l-7 8q-26 -18 -45 -18l-2 -5l4 -2h-2q-2 0 -5 2q-16 -11 -32 -41q-7 4 -28 4q-5 0 -13 -3.5t-12 -3.5q1 1 1 2q0 4 -15 11q0 6 17 33q20 15 67 43q55 33 65 33q7 0 7 -2l1 -3q10 42 16 105q4 53 9 106 l1 -1q6 0 6 49q-4 2 -9 2q-30 0 -40 -10q1 1 1 3q0 -1 -10 9q-13 -14 -19 -14t-38.5 -25.5t-39.5 -25.5q-4 0 -61 29v14q0 14 8 14l3 -1q29 20 105 38q83 20 113 37q-3 3 -8 4q3 20 7 41q6 25 21 36q8 -3 25 -5q1 -14 7 -39l-6 -4l17 -17q55 19 77 19l10 -5q5 0 6.5 4.5 t6.5 4.5t14 5t14 5q1 0 6.5 -2.5t7.5 -2.5q21 0 68.5 13.5t69.5 14.5l9 -5q5 0 11.5 4.5t11.5 4.5q6 -2 13 -4l10 9q9 -9 14 -9q4 0 4 1l-4 6q1 2 4 2q4 0 4 -2l-3 -5q1 -2 4 -2q5 0 5.5 4.5t5.5 4.5t7 2t7 2q69 0 69 -27z" />
<glyph unicode="G" horiz-adv-x="568" d="M558 790q0 -12 -12.5 -60t-17.5 -61l-11 -5q-1 2 -10 16q-6 11 -6 17q0 9 2.5 27.5t2.5 27.5q0 19 -6 23q-8 1 -30 -21l-8 8l-5 -9l3 -6q-20 -6 -38 -26q-1 -1 -29 -36q-2 6 -8 17q-26 -52 -56 -94l-4 9q-9 -14 -25 -29q-24 -23 -27 -26q-12 -14 -23 -35.5t-21 -40 t-67 -92.5v-4q1 -15 -11 -30q-12 -11 -23 -23q-3 -11 -11 -32q-11 -16 -28 -47q-28 -84 -28 -107q0 -40 23 -80q27 -46 65 -46q6 0 9 -4l-1 1q0 2 7.5 2.5t7.5 2.5l-2 4q33 11 63 35q27 24 54 47q15 11 31 32q25 31 27 34q34 37 69 161q8 6 25 52q15 40 36 40q19 0 19 -15 q0 -5 -4 -16t-4 -17q-71 -139 -73 -275q0 -9 -7 -23q3 -7 3 -14q0 -4 -2.5 -11t-2.5 -10t4 -6.5t4 -9.5q0 -7 -5 -21q0 -3 6 -141q1 -9 6.5 -27.5t5.5 -27.5v-37l-11 8q-6 -10 -21 -26l-9 7l-4 -2q-5 5 -5 10q-3 12 -3 103q0 63 1 171.5t1 106.5l-6 12q-73 -99 -168 -172 q-6 5 -16 5l-4 -11q-2 -7 -8 -7q-1 0 -7 2.5t-8 2.5q-5 0 -8.5 -4.5t-8.5 -4.5q-7 0 -21 4.5t-21.5 4.5t-32.5 24.5t-27 33.5q-1 5 -12 36q-8 25 -8 32q0 13 6.5 40.5t6.5 42.5q16 15 31 57q17 51 25 63l184 291q13 15 38 42q168 191 208 191q3 0 35 -14v-5q0 -6 3 -17.5 t3 -17.5z" />
<glyph unicode="H" horiz-adv-x="720" d="M684 738q-7 -10 -7 -51q0 -27 -23 -75q-31 -64 -33 -74q-10 -29 -10 -90q0 -12 2.5 -34.5t2.5 -34.5q0 -35 -12 -51v-285q11 -17 12 -78t11 -81h-3q-4 -1 -22 8q0 -6 -4.5 -17t-4.5 -16q-16 10 -38 35v2q0 9 -6.5 26t-6.5 24q0 8 3.5 8.5t3.5 1.5v31q0 11 7 28t7 27 q0 7 -1.5 20t-1.5 20v204q0 5 5.5 18t5.5 19q0 9 -7 8l-4 2q0 86 6 123q-4 0 -12 9q-33 -28 -93 -67q-72 -47 -99 -52l-11 -10l2 5q-1 5 -7 5q-5 0 -5.5 -3t-3.5 -2l-8 -10q-63 -23 -81 -41q-27 -28 -27 -88q0 -20 10 -51.5t10 -41.5q0 -29 -31 -136l-10 10q-7 -10 -13 -29 q-8 9 -12 9q-7 1 -7 -1l5 -7q-47 32 -66 73q-35 74 -37 76q2 2 2 6t-2 10l1 -1q5 0 5 9t-29 45.5t-29 59.5q0 17 73 57q86 47 95 54v29q0 19 7 28v50l-18 15v231q4 7 4 59q0 17 10 29t10 18q4 0 13 -2.5t14 -2.5q7 0 8 1l-4 5q3 -14 3 -37q0 -29 1 -37h1q6 0 6 -10 q0 -7 -4 -8.5t-5 -2.5q-4 -30 -4 -57q0 -10 3 -31.5t3 -31.5q0 -22 -13 -32v-75q5 -3 14 -10q-4 -14 -4 -39q0 -83 1 -71q1 0 1.5 -6t7.5 -6q5 0 16.5 2t17 2t5.5 2v1q0 3 5 3q18 0 104 39q79 37 103 53q19 13 39 25t29 34q4 9 4.5 43.5t7.5 51.5v15q-1 30 3 78q5 64 7 78 q2 57 3 61q6 41 31 41q21 0 41 -41q14 -30 27 -61v-39zM656 717l-3 7l-11 -6v-7zM660 687q-5 8 -17 21q-2 -14 -11.5 -46t-9.5 -50q0 -7 2 -14q13 9 21 41zM193 109v134q-5 12 -15 30q-6 0 -15 -2t-14 -2t-5 -1l3 -7q-1 -2 -3 -2l-16 5q-13 -12 -27 -24q-21 -19 -21 -28 q0 -13 15 -45t11 -48q16 -30 31 -60q21 -37 46 -47q-3 9 -3 12q0 5 4 6q-1 21 -1 31q0 37 10 48z" />
<glyph unicode="I" horiz-adv-x="791" d="M850 406q-3 2 -5 2q-1 0 -5.5 -4t-11.5 -4q-4 0 -11 2l-17 -18q-13 -2 -46.5 -19t-50.5 -17q-54 0 -54 -66q-8 -10 -13 -27.5t-10 -32.5q-15 -42 -64 -111q-15 -20 -47 -58q-39 -46 -48 -46q-3 0 -20 -20t-24 -20q-5 0 -5 2v2q0 5 -4 5q-19 0 -19 -8q0 -2 7 -8l-10 -11 q-1 0 -23 -11l7 4q-6 7 -12 7q-5 0 -16 -6t-17 -6l13 -14l-15 13q-8 -9 -13 -9l-9 -9q-8 -3 -23 -18l-10 9q-7 1 -19 -12q5 -7 11 -6h6l-2 4v-1q0 -4 -4 -8q-5 7 -18 18l-7 -7l8 -10q-4 6 -14 17q-9 -17 -18 -27l-10 9q-3 -3 -3 -5t4 -6l-9 7l-9 -14l-11 10q1 0 1 1 q0 3 -8 3q-7 0 -7 -2l3 -7q-7 17 -30 24q5 5 6 10q13 51 25 78q44 92 140 183q93 88 189 131q56 26 115 70v74q-14 8 -17 25q-2 14 -4 29q-28 88 -76 143q-20 22 -64 57q-52 40 -70 40h-22q-4 0 -7.5 7t-8.5 7q-3 0 -9.5 -2t-9.5 -2l-10 -10v2q0 3 -9 3q-4 0 -11 -2.5 t-11 -2.5l-22 5l-9 -9h-13q-17 0 -53.5 -33.5t-45.5 -52.5q-16 -35 -49 -105l2 -9q-10 -26 -14 -57q-2 -22 -3 -45q-4 -30 -17 -38l-14 -1q-7 0 -16 35q-8 31 -8 44q0 24 23 90q25 70 41 81l-3 4q106 150 277 150q10 0 56 -22q42 -20 57 -30q63 -39 122 -144.5t59 -180.5 q0 -15 -5 -20q4 -5 12 -16q17 4 83 27q54 18 82 18l24 -5v-17zM546 665l-2 7l-11 -6v-6zM608 301q-6 0 -6 6l2 3q-8 -1 -25 -3l-9 -9q-5 0 -11 -4.5t-11 -4.5q-13 0 -9 -4l-4 9q-15 -15 -46 -23l-13 -13l-5 9q1 -19 -5 -23q-18 -6 -52 -24q-27 -23 -83 -63q5 -1 5 -4 q-36 -26 -80 -95q-46 -72 -46 -111q0 -20 24 -20q26 0 32 13q5 -5 4 -9q10 8 46 22q31 12 41 23l25 9q12 0 85.5 67t80.5 82q45 96 53 133q0 2 -1 8t-1 8q0 11 9 18z" />
<glyph unicode="J" horiz-adv-x="892" d="M882 834q0 -20 -40 -29q-47 -11 -57 -22q-26 -30 -35 -76q-5 -22 -9 -83q0 -4 -2 -17t-2 -19q0 -19 1.5 -57t1.5 -57q0 -20 -3 -23q7 -51 7 -160q0 -10 5.5 -29.5t5.5 -28.5q0 -6 -5 -14.5t-6 -13.5t-5 -52q-3 -33 -12 -52l6 -9q-6 -6 -19 -6q-1 -6 -1 -9q0 -5 2 -10 q9 -1 9 -12q0 -7 -12.5 -30t-10.5 -53q-4 4 -8 4l-5 -1q-16 -38 -33 -76q-27 -59 -43 -59q-6 0 -13.5 -10.5t-13.5 -17.5t-40 -33q-24 -19 -33 -35q-7 0 -22.5 -9t-21.5 -9t-20 -15.5t-20 -15.5q-5 0 -5 1q1 0 1 1q0 2 -5 2q-4 0 -12.5 -6.5t-14 -6.5t-15 -11t-15.5 -11 q-5 0 -9 5l-9 -9l2 5q-1 4 -6 4q-4 0 -4 -2q2 -2 2 -5q0 -2 -17.5 -2t-29.5 -13q-3 4 -26 4q-5 0 -21.5 -9t-21.5 -9q-2 0 -7 2.5t-7 2.5q-4 0 -4 -10q0 -3 -4 -3t-4 1l3 5q-1 2 -4 2q-5 0 -16.5 -2t-17.5 -2q-11 0 -33.5 11t-33.5 11q-6 0 -14 -9q0 9 -17 22q-12 7 -25 15 q-20 30 -50 97q-4 16 -14 26v96q0 5 2.5 12.5t2.5 10.5q7 72 65 164q50 81 113 139q16 14 87 66q77 55 85 55q5 0 5 -2q-1 0 -1 -1q0 -2 5 -2q3 0 24 17.5t25 20.5q71 37 87 37q5 0 5.5 -2.5t5.5 -2.5t11 7t11 7q6 -2 13 -5l6.5 6.5t11.5 5.5l6 -1q-3 -2 -12.5 -13 t-15.5 -11q-2 0 -7 2t-7 2q-8 0 -46 -44q-9 3 -28 5q-20 -19 -61 -51q-20 -11 -41 -23q-27 -16 -29 -31l-10 8l-5 -8q-84 -60 -162 -167q-90 -123 -90 -209q0 -3 1 -10.5t1 -10.5q0 -4 -5 -10.5t-5 -12.5q0 -17 8 -47q12 -47 12 -48q5 -12 20 -35q9 -9 31 -24t32 -15 q35 0 101 9q70 8 100 17l9 9q17 0 74 35q36 23 73 47q146 90 195 264q5 27 10 55q7 35 20 50q-5 5 -14 12q15 50 15 110q0 3 -6 9q6 2 18 9q-7 5 -19 17q4 21 4 49q0 31 -4.5 92t-4.5 92q0 5 -3.5 15t-3.5 16q0 17 5 52t5 53q0 3 -2 10t-2 10q0 12 12 16v38q-3 3 -4 3 q-19 0 -20 -4l-9 -9q-9 -2 -53.5 -23t-52.5 -21q-4 0 -10.5 -4.5t-11.5 -4.5q-18 0 -46 -46q40 -29 66 -66q-5 -4 -11 -13q0 7 -17 7q-11 0 -61.5 37.5t-50.5 47.5q0 15 20 28q5 5 12 16q182 99 320 135q5 1 15.5 8.5t16.5 7.5q1 0 6 -2t7 -2q5 0 13 4.5t13 4.5q9 0 21 -12 t12 -21z" />
<glyph unicode="K" horiz-adv-x="728" d="M701 -16q-8 -2 -24 -5l-9 -9q-5 0 -16 -2.5t-17 -2.5q-4 0 -11.5 2.5t-11.5 2.5q-6 -2 -14 -5q-23 7 -37 28l-10 -9l-3 8q-121 89 -244 211q-169 168 -169 249q0 21 92 108q74 70 117 104q52 40 103 80q86 65 96 65q8 0 21 -15.5t13 -23.5t-13 -19q-19 -14 -20 -16 q-13 -3 -19.5 -14.5t-13.5 -22.5h-6q-8 0 -19.5 -9t-17.5 -9t-17 -14.5t-16 -16t-15 -3.5l-42 -42q-35 -35 -38 -35q-5 0 -5 2q1 1 2 4q0 2 -2 3q-20 -22 -61 -67q-18 -14 -35 -29q-26 -21 -26 -33q0 -46 119 -176q98 -107 164 -159q95 -75 102 -75t9 -5q1 3 4 3q6 0 6 -9 q0 -4 -3 -9q6 -3 30 -3q5 0 5 -1v-1q0 -3 4 -3q8 0 9 2l-4 5l10 -7h12q5 0 11.5 -2t9.5 -3v-22zM181 788q-11 -21 -14 -64t-11 -61q1 -8 1 -17q0 -61 -33 -130q-1 -60 -1 -64q-3 -36 -17 -60q0 -9 2 -24q-8 -11 -8 -27q0 -5 1.5 -15t1.5 -16q0 -13 -10 -20q5 -9 16 -25 q5 12 16.5 34.5t16.5 34.5l7 -49q-24 -22 -24 -70q0 -9 1 -27t1 -27q0 -5 -9.5 -27t-9.5 -32q0 -8 5 -13q0 -31 -7 -96q-3 5 -9 5q-2 -9 -4 -28q-6 2 -15 12.5t-13.5 10.5t-10.5 2l1 -2q1 3 1 7q0 13 -2 35q-3 27 -3 35q-3 61 -3 152q4 2 13 8l-8 3q8 87 8 133q0 19 14 30 l-9 3q0 1 2 29q1 16 12 23l-9 4v33q0 10 4.5 28.5t5.5 27.5q12 185 32 254q6 20 36 20q7 0 16 -10.5t16 -19.5z" />
<glyph unicode="L" horiz-adv-x="577" d="M593 390q-6 -10 -107 -89q-62 -50 -125 -99l-9 -1l3 -4q-1 2 -4 2q-6 0 -25 -24q-12 -15 -26 -30.5t-100 -88.5q-89 -74 -94 -74q-8 0 -8 -3l4 -6l-14 14q-3 9 -16 22l-10 -9q-5 22 -17 57q2 11 2 28v16l-3 5l48 427q2 17 11 31v4q-1 14 8 49q9 32 7 44q10 14 20 62 q11 57 18 75q15 37 41 38l1 -7l-1 -10q0 -5 -2 -7q-1 -1 -2 0q1 -16 1 -15q0 -2 4 -9t3 -12q8 -5 8 -16q0 -4 -3 -23q-2 -14 1 -23q-5 0 -10.5 -6t-7.5 -7l9 -3q-16 -30 -17 -62q-14 -25 -27 -50q-9 -16 -9 -61q0 -35 -22 -63l3 -6q-7 -12 -9 -49q-2 -33 -11 -41l9 -4 q-18 -102 -17 -149q-1 -16 -7 -45q1 -5 1 -8q0 -8 -4 -8q4 -32 13 -74q4 -1 12 -9q30 21 228 179q129 103 248 161q-8 -13 -8 -20q0 -3 2 -7z" />
<glyph unicode="M" horiz-adv-x="672" d="M675 259q0 -7 1 -17v-17q0 -26 -14 -36q3 -6 3 -8q0 -9 -11 -28q-14 -24 -15 -27q-20 -51 -31 -70q-25 -44 -52 -48q-14 -1 -15 -22q-1 1 -3 1q-1 0 -7 -2.5t-9 -2.5l-11 5h-20q-119 95 -119 322q0 27 2 50q-3 12 -8 34q-15 -15 -16 -34q-8 -2 -10 -9q-3 -16 -9 -46 q-24 -77 -71 -165h-5q-3 -3 -3 -6q0 -2 4 -7q-3 0 -10 -3t-12.5 -3t-6.5 -1l5 -6l-10 7v2q0 3 -6.5 3t-10.5 4t-9 4q-20 0 -50 98q-18 61 -35 122q-32 -93 -32 -274q0 -6 -2 -15q-2 -12 -2 -16l-3 -66q-6 1 -16 -11q-6 -8 -13 -16q1 7 -6 7q-3 0 -7 -3q-6 25 -6 56 q0 23 6 65q7 47 9 65q4 74 19 188q22 158 25 187q-3 4 -3 14t4 29t4 29q0 4 -1 12.5t-1 13.5q0 37 25 47h15q7 -14 20 -45q3 -16 13 -47q11 -172 15 -201q18 -142 60 -178q33 47 57 112q3 7 39 119q11 28 31 83q3 11 13 74q21 141 31 179q30 124 79 150q-3 -8 -3 -64 q0 1 -7 -14v-3q0 -25 -17 -96.5t-17 -98.5q0 -9 1 -16q-1 -8 -8 -19q-7 -63 -15 -189q-1 1 -2 1q-7 0 -7 -8q0 -4 3 -11.5t4 -10.5q2 -19 1 -50q-2 -47 -2 -51q0 -13 1 -24q3 -5 4 -15v-16q17 -82 52 -139l-5 -5q3 -1 9 -10.5t11 -9.5q12 0 11 -10q15 -8 29 -8q5 0 5 1l-1 1 q0 3 5 3q25 0 84 115q33 63 55 95z" />
<glyph unicode="N" horiz-adv-x="572" d="M509 -7q-4 5 -8 5q-2 0 -5 -3l9 -10l-12 8q-2 4 -7 5q-3 -4 -3 -20v-24l-11 -5q-59 53 -110 142q-41 81 -82 161q-19 34 -55 105q-29 65 -92 194l-5 2l-4 -3q2 -6 2 -25q0 -185 -21 -192q10 -8 13 -26q2 -14 5 -29q-4 1 -9 -7t-9 -9q4 -4 13 -3q0 -3 -7 -74 q-4 -54 -12 -66q3 -15 3 -37q0 -9 -2 -26t-2 -26q0 -10 2 -14h-1q-5 0 -9 4q-1 -1 -10 -14q-7 -9 -12 -9t-7 2l-2 2q-2 0 -3 -2l9 -10q-9 9 -17 9v37q0 18 10 49q-5 13 -5 37q0 17 3 49.5t3 47.5q1 1 1 3q0 -5 -5 19q5 13 5 36q0 12 -2 36t-2 36q0 25 9 35v221q-4 11 -5 60 q-1 40 -17 55v19q21 24 39 24h8q9 0 40 -65q28 -56 55 -111q32 -66 47 -114q7 -5 16 -24q20 -40 64 -144q39 -93 67.5 -144t34 -51t5.5 -2q-1 -2 -1 -4t1 -3l11 12v34q-5 2 -13 8q1 16 1 34q0 23 -4 69t-4 69q0 27 6 38q-13 14 -13 35q0 12 5 43.5t5 47.5q0 20 -5.5 57.5 t-5.5 56.5q0 62 11 98q-1 8 -3 18q14 50 21 112q4 1 15 7.5t17 6.5q4 0 10 -2.5t9 -2.5q1 -5 3.5 -14t2.5 -14q0 -16 -14 -22l9 -3q-20 -49 -20 -78q0 -8 1.5 -24t1.5 -24q0 -1 -10 -9l9 -3q0 -22 -13 -29q12 -14 12 -36q0 -10 -3 -30t-3 -30q0 -13 4 -23q-5 -15 -5 -35 t7 -57.5t7 -57.5q0 -22 -10 -33v-75q0 -5 6.5 -10t7.5 -7v-3q0 -16 6 -49t5 -50q12 -23 13 -112q2 -5 10 -20z" />
<glyph unicode="O" horiz-adv-x="576" d="M507 638h-6l-5 10l6 2zM527 487q-4 -2 -13 -8q2 -5 7 -13l-4 2l-7 -6l7 -6q1 1 3 1q3 0 3 -4q0 -6 -9 -12l9 -9q-5 -3 -5 -17q0 -53 -32 -173q-12 -25 -34 -75q-3 -8 -24 -33q-15 -19 -14 -36q-9 -6 -26 -31q-15 -21 -35 -30q-4 -2 -2 -5q-2 -7 -12 -7q-5 0 -6.5 -4 t-5.5 -4l-12 -13q-8 1 -16.5 -6t-9.5 -15q-6 1 -21 9l-3 -5l5 -7q-5 0 -14 3.5t-14 3.5q-4 0 -12 -8l-12 5h-19q-9 8 -20 8q-7 0 -38 22q-26 20 -37 30q-34 32 -57 99q-22 62 -22 114q0 37 25 125q25 84 44 122l-3 5q75 153 80 161q48 84 116 138q-2 2 -1.5 6t-5.5 4 q-20 0 -44 -7q18 31 32 41v-1q0 -4 3 -7l3 8h14q37 0 70 -24q46 -34 59 -40q8 -12 21 -19q-6 1 -6 -3l6 -4l-8 -9l7 -6q3 3 10 7l-4 -9q4 -4 8 -6q0 -7 7 -20q10 -16 11 -19q9 -27 32 -80q2 0 4 3l-3 5q4 -3 4 -6q0 -5 -9 -9q3 -2 17 -2q-4 -14 -2 -20q0 7 -5 17 q-5 -5 -14 -11q4 -2 5.5 -10.5t5.5 -12.5q3 3 3 5t-3 5q4 -2 9 -6l-3 -2q4 -5 11 -4q-6 0 -11 -5v-37q3 -3 10 -8h-1q-4 0 -5 -4q6 -5 6 -9t-6 -13q5 -3 13 -9zM485 526q-10 16 -18 54t-18 55q1 8 6 21q-17 10 -38 48q-24 41 -36 51q0 -1 -1 -9t-7 -8q-8 0 -24 8t-22 13 q-26 -17 -61 -48q-11 -18 -23 -36t-32 -27q2 -6 2 -11q0 -16 -27 -22q-4 -24 -22 -35l7 -6q0 -1 -2 -1q-17 -38 -53 -113q1 -1 1 -3q0 -12 -18 -47q1 -4 1 -8q0 -19 -12 -68t-12 -68q0 -121 94 -204q13 -11 38 -27q3 -1 21 -1l8 -9q61 13 69 13q35 0 86 74q44 63 56 106 q23 85 37 198q-3 3 -3 18t3 92z" />
<glyph unicode="P" horiz-adv-x="638" d="M662 414v0q-4 0 -9 2q-1 0 -1 -2q0 -3 8 -10q-15 -8 -47 -16q-28 -6 -47 -21l-9 8q-3 -3 -3 -5q0 -3 4 -6h-1q0 2 32 15q2 1 3 3q0 1 -1 1q-7 0 -7.5 -6.5t-1.5 -7.5q-2 6 -12 6l5 5q-1 3 -7 3t-8.5 -2.5t-3.5 -2.5l-10 -9q-21 -3 -43 -8q-33 -6 -34 -15l-11 9 q-20 -23 -36 -23q-21 0 -21 -3q1 -1 2 -3q-27 -5 -117.5 -47.5t-91.5 -42.5q-10 0 -24.5 -16t-14.5 -27q0 8 10 -68q2 -7 7 -21t5 -23q0 -4 -14.5 -31t-14.5 -48q0 -20 13.5 -49t13.5 -34q0 -8 -12 -24q-15 -18 -16 -21l-7 -5q-5 -1 -15 -6q2 14 2 30q0 14 -2 42.5t-2 42.5 q0 34 10 50l-9 4q1 14 1 32q0 10 -2 64q-1 40 1 65q-8 7 -11 7q-7 0 -19 -4.5t-18 -4.5t-16.5 6.5t-16.5 6.5q-6 6 -6 14q0 18 43 38t43 27q-4 6 -3 10l27 455q-4 2 -11 8q-6 -4 -13 -11q-45 -11 -45 -57q0 -9 5 -16q0 -1 -11 -12q-4 4 -40 30q-27 21 -27 36q0 16 34 47 t50 34q34 7 69 14.5t73 7.5q4 0 4 -1l-3 -6l3 -2l5 1v1q11 7 18 7q5 0 12.5 -2.5t11.5 -2.5l9 -9h6q16 0 23 -7t11 -7t4 2l-4 5l5 3q30 -14 72 -34q2 -5 9 -17l4 5l-5 8q37 -9 96 -61q63 -55 63 -88q0 -6 -5 -14t-6 -11q3 -13 3 -25q0 -45 -58 -110q-47 -46 -94 -93 q9 -2 25 -7q5 5 5 13l5 -8q47 31 94 41q52 7 103 15q1 1 2 1l5.5 -5.5t7.5 -6.5zM544 538v16h-8v-16h8zM534 599q0 10 -15.5 33t-25.5 31q4 5 3 8v2q-3 -4 -10 -4q-123 78 -132 78q-6 -3 -14 -5l-8 9q-65 18 -114 18q-9 0 -21 -5q-14 -7 -14 -15t8 -20q10 -16 10 -17 q1 -40 0 -99q-2 -27 -20 -102q-17 -70 -17 -92q0 -9 2 -27t2 -28q0 -25 -7 -34q0 -16 6 -34q3 3 10 3q6 0 9 -3l5 9l3 -9q9 18 27 18q6 0 22 10.5t21 12.5q17 18 54 41q43 26 57 38q19 19 60 57l5 -9q29 32 57 63q37 42 37 72zM514 505q-45 -47 -77 -66l2 -4 q-53 -36 -67 -47q-40 -30 -57 -54q16 3 52 26l11 -5v8q-1 6 4 11q-1 0 -1 -8q1 -2 5 -2t4 2l-4 5l5 3q4 0 52 43q54 50 60 54v2q0 7 11 32zM320 340l-2 7l-11 -5v-7z" />
<glyph unicode="Q" horiz-adv-x="576" d="M545 618q0 -43 -20 -132q-4 -15 -9 -46q-6 -20 -12 -41q-8 -28 -17 -36q-7 -64 -33 -73l8 -3q-42 -120 -132 -203q-7 -6 -17.5 -24t-10.5 -26q0 -10 14 -45v-3q-1 -10 1.5 -30t2.5 -29q0 -11 -3 -19q1 -6 7 -15q-1 -45 7 -135q-8 20 -36 134q-24 97 -39 118q-3 -4 -10 -9 q0 2 -2 2q-6 0 -13 -14h-26q-6 -2 -1 -7l-9 11l-7 -8l3 -4q-2 3 -13 3q-5 0 -5 -3q1 0 1 -1q0 -5 -5 -5q-4 0 -4 2l4 5q-1 2 -4 2q-5 0 -5 -1l1 -1q0 -2 -5 -2q-3 0 -8.5 2t-9.5 2t-4 1q1 0 1 1q0 2 -5 2t-5.5 2.5t-5.5 2.5q-12 0 -39 22q-22 20 -33.5 36t-21.5 48.5 t-10 53.5t10 29q0 79 39 139v2q0 18 35 76l-3 5q13 24 38 74q55 116 122 211q101 142 174 142q5 0 10 -5.5t7 -6.5q48 -29 67 -63q12 -22 14 -41q-1 -2 0 -3q1 0 2.5 3t3.5 3q3 0 5 -6q6 -20 6 -94zM506 581q0 24 -13 70q-11 34 -21 69q-7 9 -20 24q-12 -7 -23 -22 q-15 15 -15 30h-20q-22 -18 -63 -58q-19 -21 -37 -42q-22 -25 -31 -47q-41 -43 -90 -136q-3 -5 -13 -10q-8 -54 -55 -129v-2q0 -12 -10 -36.5t-19 -32.5q5 0 5 -4q-14 -40 -14 -73q0 -43 12 -66q6 -13 32 -45q29 -35 37 -35q3 0 8 2t9 2q3 0 3 -1l-4 -6l3 -1q8 0 23 2 t23.5 2t26 11t23.5 12q-8 9 -8 31q0 13 -7 38.5t-7 37.5q0 11 5 16q-14 100 -14 106q0 11 11 23t22 12q22 0 28 -24q9 -35 13 -40q0 -160 -3 -166q50 29 113 140q4 18 25 52q0 18 6 36q12 34 12 35q47 173 47 225zM179 499v8h-16v-8h16z" />
<glyph unicode="R" horiz-adv-x="746" d="M790 -70q-1 0 -7 -14q-59 -30 -75 -30q-4 0 -4 1q0 -5 3 7q-1 1 -4 1q-4 0 -10 -2.5t-9 -2.5q-2 0 -2 2q-8 8 -14 8q-4 0 -10 -2.5t-9 -2.5q-8 0 -25 7t-20.5 7t-3.5 2q0 -5 3 6q-1 2 -4 2l-15 -5l-10 10q-1 -1 -12 -1q-19 0 -90 64q-2 0 -5 -1t-5 -1q-5 0 -14 11.5 t-14 12.5q-6 6 -67 62q-41 38 -57 70q-20 6 -55 45q-40 46 -55 55h1q4 0 4 10q0 6 -12 24l-16 23q7 19 38 42l48 34q51 40 277 200q2 1 2 3q0 1 -4 4q45 49 73 90q-7 10 -38.5 37t-39.5 27q-6 0 -7.5 -4.5t-6.5 -4.5q-6 0 -12 5q-9 8 -11 9l-10 -10q-1 1 -4 7q-1 3 -8 3 t-18 7t-17 7l-24 -5q-5 0 -5 1l1 1q0 3 -5 3t-12 4.5t-12 4.5q-12 0 -19 -4l-9 9l-10 -9q-5 5 -29 4l-10 10h-22q-6 0 -6.5 -2.5t-2.5 -2.5l-10 -9l-4 6q-1 3 -8 3q-3 0 -3 -1l5 -7q-1 -1 -4 -1q-6 0 -14 9l-9 -9h-53q-4 0 -11.5 -2.5t-11.5 -2.5t-4 -2q0 5 3 -6 q-1 -1 -4 -2q-5 0 -5 2q1 2 2 5q0 1 -2 3l-8 -9q-16 0 -45.5 -15.5t-32.5 -29.5q3 -5 3 -15v-8v-8q-14 9 -32 9q-6 0 -20 9.5t-20 9.5l-11 -4q0 2 -3 8.5t-3 12.5q0 19 58 51q53 30 78 33q7 0 85 10q56 7 84 7q5 0 14 -4.5t14 -4.5h96q5 0 13.5 -5t13.5 -5q31 0 94 -28 q6 2 14 5q6 0 57 -24q61 -28 62 -29l16 -15q-19 -38 -26 -59q-17 -9 -82 -88q-61 -73 -74 -73q-5 0 -6 1q2 2 3 5q0 2 -2 3q-15 -23 -86 -79.5t-88 -56.5q-12 0 -31 -19.5t-19 -30.5q0 -19 163 -201q27 -22 77 -71l8 -9q-2 3 -2 5q0 4 6 5q85 -81 107 -81q5 0 31 -14 t31.5 -14t5.5 -1v-1q0 -3 5 -3t12 -4.5t11 -4.5h33q7 0 23.5 7.5t21.5 8.5zM186 664q0 -22 -5 -60q-5 -44 -6 -60q-1 -9 0 -25q1 -18 1 -24q0 -32 -13 -45q0 -1 9 -5q5 -3 5 -10t-9 -23t-15 -19q16 -15 16 -19q0 -83 -6 -94l9 -4q0 -33 -4 -100h-2q-8 1 -8 -10 q0 -10 11.5 -54t11.5 -63v-49q-4 -4 -8 -4q-2 0 -7 3q-12 -24 -18 -24q-5 0 -5.5 2.5t-5.5 2.5q-9 0 -10 -1l4 -4q-10 82 -10 276q0 37 -7 62q0 6 3 19q-1 1 -3.5 3t-2.5 8l8 5q-1 16 -1 34q0 27 2.5 81t2.5 81q0 8 4 23.5t4 23.5q0 10 -1.5 31t-1.5 31q0 44 10 56 q17 7 37 7l6 -1q0 -8 2.5 -25t2.5 -26zM589 726v13h-8v-13h8z" />
<glyph unicode="S" horiz-adv-x="633" d="M687 378q-15 9 -42 10q27 -1 -44 -1q-4 0 -4 2q0 -5 2 5q-1 2 -5 2q-5 0 -11.5 -6.5t-11.5 -6.5t-9 4.5t-9 4.5t-6 -2.5t-6.5 -2.5t-6.5 -1l5 -6q-6 7 -14 7q-6 0 -18 -7t-18 -7q-20 0 -20 -1l5 -6q-1 -2 -4 -2q-5 0 -5 2h1q0 3 -5 3t-9 -4.5t-9 -4.5q-18 0 -35 -11.5 t-32 -23.5q11 -22 27 -122q14 -92 14 -121q0 -26 -23 -74t-43 -70q-9 -9 -39 -28t-39 -19q-5 0 -9.5 -4.5t-11.5 -4.5q-5 0 -5.5 2.5t-5.5 2.5q-6 0 -9.5 -7t-9.5 -7q-4 0 -4 2l4 5q-1 2 -4 2q-5 0 -7 -2t-7 -2h-23q-8 0 -23.5 4.5t-23.5 4.5l-10 10q1 0 1 1q0 3 -8 3 q-2 0 -14 9t-14 9q-5 0 -32 37q-16 23 -31 46q2 6 2 14q0 18 -1 15l-4 5q0 5 13 14l-8 3v3q0 22 10 31l-4 -2q-2 1 -2 6q0 25 62 93t91 66q10 16 73 60q58 40 58 47t-7 15.5t-7 12.5t5 9q-27 55 -27 74q0 11 4 22q-5 5 -13 5q10 1 12 9q-1 3 -6.5 3t-9.5 2.5t-5 2.5 q0 5 4.5 16t4.5 18l-21 59t-21 83q0 4 3 10t3 9q1 14 5 42q26 143 115 143q49 0 78 -44q26 -38 26 -89q0 -28 -18 -67t-40 -55q-8 -3 -22 -20q-4 4 -12 4q-7 0 -22 -4t-24 -4q7 10 35 30q25 18 31 32q21 54 21 82q0 19 -9 47q-12 33 -27 33q-10 0 -25 -12l3 -5q-8 3 -13 8 q-48 -59 -48 -126q0 -37 29 -173q31 -151 51 -151q4 0 43 9q193 46 194 46q14 0 41.5 -9.5t39.5 -19.5v-26zM362 112q0 36 -28 197l-11 5q-34 -18 -99 -57q-10 -7 -42 -36.5t-37 -36.5q-16 -26 -51 -70q4 -2 4 -5q0 -7 -16 -18q0 -50 -13 -69q25 -32 51 -64q33 -39 68 -39 q5 0 12.5 -4.5t12.5 -4.5q-3 0 23 6q74 15 103 70q23 44 23 126z" />
<glyph unicode="T" horiz-adv-x="605" d="M736 736q-7 0 -21 -15q1 24 -96 24l-12 -7l-24 -3l-4 2l2 6q-1 1 -5 2q-4 0 -4 -2l4 -6q-1 -2 -4 -2q-6 0 -16.5 2.5t-16.5 2.5q-3 0 -10.5 -3.5t-12.5 -1.5l-9 -9q-9 9 -19 9q1 0 -20 -7t-31 -7q-1 0 -7 2.5t-7 2.5q-4 0 -9.5 -2.5t-9.5 -2.5q-18 0 -74 -28l-5 2 q1 0 1 1q0 2 -5 2q-9 0 -11.5 -9.5t-1.5 -24.5q1 -24 1 -20q-11 -22 -11 -46q0 -11 3 -17q-8 -38 -8 -47q0 -12 3 -24q-17 -141 -20 -504q-4 -1 -9 -1q-42 0 -40 1q-11 19 -11 89l-2 6l25 541q2 37 -9 37q-7 0 -40.5 -16t-40.5 -16q-27 0 -44.5 -19t-19.5 -46q-4 2 -9 2 q-3 0 -10 -1t-10 -1q-10 0 -34 15t-24 24q0 6 17 28q21 27 22 28q212 72 223 72q2 0 7.5 -2t6.5 -2q7 0 9 11q-5 0 7 0q9 0 16 12q10 -2 25 -2q25 0 62 5q50 8 62 9q118 11 161 11q5 0 6 -2.5t6 -2.5q64 0 95 -16q0 -6 13 -34z" />
<glyph unicode="U" horiz-adv-x="635" d="M635 185q0 -19 -12 -48q-22 -33 -26 -48q0 4 -4 9q-1 -24 -28.5 -59.5t-43.5 -35.5q-6 0 -17.5 -2.5t-17 -2.5t-5.5 -1q1 0 1 -1t-27 -7l-22 14h-9q-49 40 -74 115q-18 67 -35 134q-29 -57 -37 -75q-21 -44 -30 -79l-42 -60q-34 -49 -38.5 -49t-25 -18.5t-37.5 -19.5 l-9 -9q-9 10 -34 20q-30 46 -30 71v287q0 4 3 12t3 12q0 33 3.5 99t3.5 99v117q0 16 18 24q15 6 29 12q1 -6 9.5 -17t8.5 -22q0 12 -5 -57q1 1 2 1q4 0 4 -9q0 -40 -16 -222q-7 -81 -7 -72q0 -3 1.5 -8.5t1.5 -8.5q0 -13 -11 -25q13 -12 13 -69q0 -45 -5 -77q4 -11 7 -54 q1 -32 23 -52q11 5 16 23q24 4 40 48q2 -1 5 -1q5 0 7 7q-2 5 -9 5q1 1 2 1q2 0 4 -3q29 42 59 110q25 57 50 115q20 42 35 93q7 23 31 134q18 82 40 130q10 34 21 68q17 42 50 42q11 0 20 -21q8 -17 8 -31t-21 -66q-14 -34 -27.5 -68t-42.5 -151q-2 -5 -7 -10 q-7 -32 -13 -63q-7 -40 -7 -63t7 -30q-2 -6 -2 -17q0 -55 21 -128q34 -82 81 -82q22 0 48 37q76 106 89 120q6 -3 9 -7t3 -10z" />
<glyph unicode="V" horiz-adv-x="476" d="M467 815q0 -6 -31 -81q-3 -14 -11 -41q-2 -8 -18 -34q-12 -21 -12 -35q0 -4 2 -8q-3 -11 -17 -32q-2 -9 -14 -78q-8 -47 -22 -74q-9 -6 -11 -12q-17 -55 -17 -80l-2 -3l7 -4q-28 -54 -28 -57v-81q-5 -3 -11 -9q-2 -19 -6 -56q-2 -7 -29 -113q-14 -6 -18 -26 q-5 -27 -8 -32q-69 40 -111 212q-13 52 -13 53q0 6 8 14l-9 6l4 4q-10 16 -22 102q-5 16 -12 48l3 9q-24 119 -28 296q-1 10 -6 32t-5 33q0 17 33 31q9 0 15 -11.5t6 -21.5q0 -7 -2 -11q8 -9 18 -9l-9 -10l9 -4q0 -11 5 -32t6 -30q-1 6 -1 -99q0 -16 4 -29q-14 -12 -14 -37 q0 -10 5 -29t6 -27q0 -18 2 -56q0 -8 7.5 -24.5t7.5 -26.5q0 -11 -9 -20q7 -6 12 -10v-3q0 -17 10 -49t9 -50q7 -13 18 -57q8 -36 24 -54q4 2 12 7l-9 4q14 26 29 83.5t28 82.5q0 21 11 56q16 53 17 57q23 100 65 220q45 132 85 207q-1 3 0 9v11q17 2 19 0l5 10 q13 -13 13 -31z" />
<glyph unicode="W" horiz-adv-x="616" d="M436 -14q-8 1 -12 5l11 11q0 -2 -1 -5v-5q0 -2 2 -6zM588 808q0 8 -7 -32q-20 -109 -21 -112q-16 -72 -37 -104l1 -12q0 -10 -11 -75t-15 -77q2 -23 2 -39q0 -18 -2 -30l-5 8q-6 -2 -14.5 -13t-8.5 -16t9 -5q13 0 20 4q-24 -25 -28 -77v-85q-12 -21 -24 -98 q-11 -73 -20 -81q-3 0 -10 -2t-10 -2q-15 0 -27 20.5t-10 35.5q-17 37 -25 100q-11 91 -13 103q-6 51 -26 151q-7 22 -7 92q0 11 7 15l-7 4l-5 -2q1 19 1 20q0 12 -4 18l2 -1q4 -1 4 7q0 3 -7 33q-4 26 -9 52q-7 37 -19 44q-16 -58 -42 -138l2 -7q-5 -10 -7 -34 q-1 -18 -1 -36q-4 -8 -11 -24q0 -4 10 -39q-6 -4 -17 -12l8 -3q-8 -5 -8 -18q0 -8 4.5 -27t3.5 -29h5q-1 -3 -11 -34q0 12 -7 13q-6 -11 -6 -15q0 1 11 -13q-6 -5 -13 -9l8 -3q0 -4 -8 -9q17 -26 17 -49q0 -12 -5 -29q-9 -25 -9 -28q0 -27 -11 -79q6 -6 7 -12l-2 -3l-11 21 q-9 -22 -9 -23q0 -8 6 -13q-12 -15 -19 -15q-20 0 -45 62q-19 48 -26 83q-12 68 -18 171q-4 85 -9 171q2 27 -4 80q-5 20 -5 18v130q6 17 49 19q7 -9 22 -27v-17q0 -5 -5 -11t-6 -10q-5 -32 -5 -109q0 -4 1 -12.5t1 -13.5q0 -1 -3.5 -3.5t-3.5 -7.5q0 -16 7.5 -48.5 t6.5 -49.5v-27q-1 -28 2 -73q4 -59 11 -66l-6 -3q6 -8 17 -22l-12 -13q9 -5 4 -8q4 -9 10 -15l70 421q2 12 35 101l20 60q18 43 38 43q13 0 18.5 -19.5t18.5 -24.5v-19q0 -6 1.5 -18.5t1.5 -18.5q0 -4 -3 -12.5t-3 -12.5q0 -21 9 -62.5t9 -62.5q0 -4 -2 -11t-2 -11 q0 -15 7 -40q8 -31 9 -40q2 -12 2 -93q0 -36 23 -126q0 2 0 -35q0 -12 13 -33q-2 -6 -9 -13q1 -1 7 -6t12 -5q7 22 19 84q27 133 45 252q5 36 21 97q18 70 23 97q4 48 23 139q6 17 18 20q17 5 20 7q1 -3 7.5 -15t6.5 -18zM193 167l-5 12l-6 -2l5 -10h6zM138 169l-10 15 l-5 -4l9 -15z" />
<glyph unicode="X" horiz-adv-x="646" d="M308 347l-6 13l-6 -3l5 -10h7zM627 802q-27 -2 -50 -45l-34 -66q-11 -14 -17 -21q-14 -15 -21 -16q-17 -26 -52 -77l5 9q-5 14 -5 4v2q0 4 7 4q2 0 5.5 2.5t3.5 1.5l1 5q0 3 -7 6q7 5 9 10.5t6 8.5t16 9q-9 18 -22 28l-15 -46q-9 -26 -23 -43l-9 13q-3 -4 -3 -10 q0 -7 5 -15q-25 -15 -85 -131q1 -10 20 -45q23 -40 26 -50l10 -48q6 -27 24 -42l-9 -9q75 -107 82 -118q45 -69 69 -124q-6 2 -18 8q-1 -7 -9.5 -18.5t-8.5 -16.5l1 4l-6 4q-18 1 -46 53q-26 48 -27 70q-8 10 -23 29.5t-29 55.5q-16 43 -23 57q-10 17 -20 35q-12 23 -13 37 l-7 -7q-2 23 -22 45q-9 -14 -13 -13l-9 4q-11 0 -12 -31q-10 1 -18.5 -10t-9.5 -21q0 8 -5 13q-12 -12 -13 -27l-5 9q-3 -3 -3 -8q0 -4 3 -7l-4 1l-8 -5q-111 -181 -126 -181q-4 0 -10 -9.5t-12 -11.5v-3q1 -3 -9 -21q-7 0 -7 11q0 9 20.5 39t29.5 38v6l1 7q19 17 41 59 t39 58q4 25 35 72q44 64 47 70q1 2 10 12t9 16q0 3 -36 68t-43 76q-4 6 -49 59q-41 48 -41 53q0 10 9.5 21.5t18.5 7.5l14 14q40 -41 86 -113q38 -60 76 -119q1 0 1 5t6 4q115 182 187 283l-3 5q15 25 30.5 51t46.5 26q6 0 21 -26q10 -18 19 -35zM37 25q1 -3 1 -9 q0 -15 -9.5 -24t-9.5 -14q0 1 -3.5 3.5t-3.5 7.5q0 7 11.5 20t13.5 16zM11 -20q-5 -13 -28 -53q0 1 -1 4q0 8 9 9l2 4l-8 8q18 7 26 28zM-24 -88h-17v8h17v-8zM-36 -104h-6l-6 11l7 2z" />
<glyph unicode="Y" horiz-adv-x="529" d="M555 887q-5 -3 -11 -9v-7q1 -28 -14 -61q-4 -8 -31 -56v-2q1 -16 -10 -35q-5 -36 -24 -61q1 -2 1 -5q0 -14 -7 -40q-8 -30 -9 -42l-5 10q-7 -10 -7 -16q0 -4 2 -8q4 -1 4 5q-11 -28 -29 -86q2 -5 7 -5q-16 -7 -16 -46q0 -12 3 -18q-7 -19 -8 -60q-2 -63 -2 -64t-8 -40 q-3 -16 -2 -44q3 -42 3 -45q0 -46 -14 -63q15 -13 15 -35q0 -14 -5 -41t-5 -41q0 -3 1 -9v-9q0 -16 -5 -24q5 -10 5 -24q0 -7 -16 -39l9 -4q2 -11 2 -28q0 -65 -20 -78q6 -28 6 -50q0 -23 -17 -76l-24 -78q-7 0 -12 4q-2 0 -3 -2q8 -9 10 -9t3 2q-2 -8 -32.5 -72t-34.5 -69 q-9 -10 -19 -20q-14 -15 -13 -22l1 -4q-2 2 -5 2q-1 0 -10 -4q-14 -16 -43 -46q-13 -10 -27 -21q-18 -15 -19 -25l-11 10q-7 -15 -35 -15q-4 0 -7 -3v-9l22 -3q6 0 7.5 7.5t7.5 7.5l10 -5q12 0 12 7v1l0.5 -3t4.5 -7h1q0 2 -8 2q-5 0 -6 -2h1q0 -3 -5 -3t-12.5 -5t-12.5 -5 q-37 0 -21 1q-14 -1 -13 -11q0 2 -3 2q-2 0 -9.5 -3.5t-12.5 -3.5q-6 0 -25 20q-4 -2 -13 -13.5t-16 -11.5q-6 0 -12.5 5t-12.5 5q-7 -2 -15 -5l-11 10q-12 2 -19 6q-1 0 -4.5 4.5t-4.5 4.5q-5 0 -5 -2q0 5 2 -6q-1 -2 -5 -2q-5 0 -8 5t-8 5t-11.5 2.5t-10.5 2.5l-14 15 q-5 0 -6.5 5t-7.5 5q-7 0 -7 -3l3 -7q-4 3 -13 10q-1 1 -36 22q-19 10 -37 29q-26 37 -85 104q2 3 2 8q0 9 -9.5 25t-17.5 21q2 2 5 7t5 8q-21 10 -34 63q-13 47 -9 75q-12 17 -12 40q0 11 7 37.5t6 41.5q4 5 8 15q1 9 5 28q13 44 52.5 81t84.5 50q-5 -11 -29 -34 q-27 -28 -32 -35q-13 -17 -27 -49l-22 -52v-6q0 -8 -1.5 -23t-1.5 -22q0 -9 5.5 -26t5.5 -26l-16 -15q5 -5 19 -3v-8q0 1 2 -42q19 -24 37 -68q24 -62 29 -70q11 -12 24 -40q32 -32 103 -91q37 -26 55 -26q5 0 5 -3v-2q-1 -1 -1 -2q0 -2 6 -3q1 0 7 2.5t8 2.5q5 0 9.5 -5 t10.5 -5q18 0 18 -2l-1 -4l2 -3l4 9q5 -4 26 -4q5 0 7 4.5t7.5 4.5t7.5 2.5t8 2.5h38q4 0 10 2.5t10 2.5q35 0 104 69q61 61 83 103q44 81 62 158q13 57 22 171q1 35 5 103q0 6 3 25q1 16 1 25q0 27 -1.5 80t-1.5 79q0 13 4 46q2 29 1 47h1q6 0 6 10v97l-12 14 q-43 -63 -41 -97q-16 -39 -31 -77q-21 -50 -44 -66l9 -3q-13 -27 -50 -67q-41 -46 -63 -46q-8 0 -34.5 15t-28.5 22q-1 4 -9.5 63t-8.5 64q0 13 4 119q-12 9 -12 36q0 5 2 5q2 -1 3 -1q3 0 3 150q0 30 4 63q0 2 2 11.5t2 13.5q0 1 -3 5.5t-3 11.5q0 10 3 28.5t4 27.5 q1 1 8 11q5 7 10 7q10 0 22 -16q18 -22 20 -24q5 4 10 13q0 -5 2 -15t2 -15q0 -22 -7.5 -73t-14.5 -70q6 -2 15 -9v-71q0 -2 -18 -54q0 -3 2.5 -8t2.5 -8q0 -15 -11 -27l9 -4q0 -59 11 -174q2 -4 7 -13l3 2q3 -2 12 -2q32 0 84 104q4 8 59 135q15 34 48 100q1 4 2 15 q24 26 37 152q1 13 10 168q4 63 32 144q11 32 37 69q32 46 56 46q4 0 4 -7q0 -2 6 -3q5 2 11 4q-3 1 -4 -11q22 -43 29 -49v-36zM231 -658l-12 -12l-5 5l12 12zM467 789q-3 3 -7 3q-5 0 -11 -3q-12 -26 -12 -49q0 -13 8 -13q6 22 22 62zM444 708v19h-9v-19h9zM-335 -474 q-5 0 -10 7q-5 -5 -6 -14q7 7 16 7z" />
<glyph unicode="Z" horiz-adv-x="721" d="M169 118l-6 -12l-6 3l5 11zM153 66q-6 7 -10 7q8 0 8 20q2 -3 2 -9v-4v-14zM129 53h2v0q0 -7 -12 -18v22h1q5 0 9 -4zM756 360q-11 -9 -75 -39q-69 -33 -88 -45q-3 -2 -28 -25q-15 -13 -33 -16l3 -3q-8 -2 -20 5q-2 -5 -4.5 -9.5t-8.5 -4.5l-5 -2l1 -2q0 -5 -5.5 -5 t-6 -2t-1.5 -2l-18 -18q-6 5 -23 4l-1 -3q1 -3 7 -3q-6 -2 -21 -16t-21 -14q-11 0 -30 -8t-27 -15q-1 -1 -16 -20q-11 -15 -16.5 -15t-12 -4.5t-10.5 -4.5q-13 -7 -32 -27l-9 9l-3 -4l5 -8q-26 -23 -65 -46q-137 -134 -178 -251l-11 1l-5 -2q1 14 -12 27l-10 -9q-6 6 -6 16 q0 2 5 18q-1 3 -1 8q0 25 35 77q26 37 52 73q4 5 18 38q11 24 26 33l-9 3q32 74 98 220q18 35 51 105q6 19 12.5 39.5t22.5 27.5l-9 3q16 42 37 65q3 36 27 81q33 58 39 75q0 1 -2 3q-14 0 -17 -3l3 -4l-9 7q-5 -5 -17 -5l-9 -9q-15 1 -50.5 -15t-52.5 -16l-9 -9 q-8 -2 -58 -19l4 -5l-5 -3q-2 0 -7 2t-7 2q-7 0 -16 -19q5 -9 18 -23l-14 -16q-20 0 -59 24t-39 41q0 16 63 43q60 27 81 27q8 0 16 -9q13 13 20 19q15 12 24 12l4 -1l-3 -6l4 -2q31 15 81 34q75 22 127 51q36 22 112 59l5 -26l-18 -8q11 -21 33 -21l6 3l-8 -11 q-17 1 -33 -12.5t-27 -13.5l-4 -5t-9 -5t-45 -46q-2 -3 1 -12l-5 9q-6 -6 -7 -12l2 -4l-9 7l-3 -6l3 -5l-6 2l-6 -1q-16 -21 -43 -65q-7 -20 -29 -53l3 -6l-26 8q0 -2 1 -6.5t1 -6.5q0 -7 -8 -19q-9 -16 -10 -20l3 -15q8 7 32 53v-16q-6 -12 -24 -28q-1 -2 -4 -29 q-14 -12 -34 -62l1 1v-1l-1 -1l-3 -6q-3 -6 -3 -14l-12 5q10 14 23 44q-17 -9 -22 -22q-2 -8 -2 -32q-3 3 -6 3h-3q-4 -9 -15 -27l7 -4q-7 -7 -23 -15q4 -3 4 -10t-36 -89q-39 -92 -43 -104q-1 -3 -12 -23q-7 -15 -7 -25q0 -11 7 -25q180 137 515 310q16 8 97 31q0 9 1 -29z M267 332l-11 -11l-4 5l11 11z" />
<glyph unicode="a" horiz-adv-x="502" d="M90 102h-8v13h8v-13zM539 197q-9 -16 -22 -62q-12 -39 -33 -69l-2 1q-3 -1 -19.5 -13.5t-22.5 -12.5t-7.5 -5t-5.5 -5q-29 -31 -28 -38q-3 0 -10 2t-11 2l-7 -3l3 -7l-12 10l1 1q-1 4 -7 4q-3 0 -9 -3l3 -7q-16 13 -47 40q-61 64 -74 178q-9 -7 -10 -14l1 -4q-3 4 -7 4 l-6 -1l-8 -12q8 -9 19 -10q-19 -12 -34 -43l-24 -50q-16 -21 -31 -42q-20 -27 -22 -45q-19 -11 -50 -11q-40 44 -40 64q0 42 125 221l-3 6q34 45 69 90q43 55 85 70q6 -16 20 -27q-13 -31 -8 -60q-20 -67 -20 -119q0 -45 21 -101q26 -70 62 -70h29q16 0 124 141h18zM210 285 l-6 15l-7 -3l6 -12h7zM162 226l-5 5l-12 -12l5 -5zM138 176v18h-8v-18h8zM208 246q0 5 -7 13q-2 -7 -10 -19l-3 1q-3 -2 -11 -4l4 -3v-2q-6 -3 -13 -16.5t-22 -17.5q2 -4 2 -7q0 -21 -30 -32q1 -3 4 -10l-2 -4l-7 8q6 8 13 26q-2 0 -8 -2t-9 -1q0 -8 -8 -24t-8 -24 q0 3 5 -13h-4q0 -27 -10 -36q11 -12 18 -13q23 37 47 73q28 44 38 78q6 17 21 29z" />
<glyph unicode="b" horiz-adv-x="371" d="M335 355q0 -19 -5 -51q-7 -42 -8 -50q-1 -12 -12 -23q-1 -17 -13.5 -50.5t-12.5 -50.5q-22 -26 -58 -80q-12 -3 -35.5 -37t-45.5 -34q-5 0 -9.5 -4t-9 -4t-4.5 -1l3 -5q0 -2 -4 -2q-8 0 -26 11q-22 13 -26 15l-20 52q0 5 3.5 13t3.5 11q10 58 58 127q53 75 103 82 q-21 -28 -62 -86q-7 -10 -14.5 -33.5t-13.5 -33.5q1 -4 1 -9q0 -10 -7 -29t-7 -26q0 -10 9 -22h12q29 18 53 54q27 42 45 57q19 62 20 65q13 38 27 62v3q2 17 2 50q11 18 11 33q0 3 -5 13t-5 16q0 7 5 12q-2 1 -22 27q-1 0 -3 1h-3q-10 0 -10 -12h-6q-40 1 -96 -111 q-29 -59 -83 -110q-3 3 -35 21v92q0 5 2.5 11.5t3.5 9.5v51q0 14 5.5 33t5.5 23q0 3 -4 11.5t-4 13.5q0 13 2 34q2 27 2 35q4 89 8 116q12 74 47 101q6 -5 17 -11q2 -7 15 -22.5t13 -40.5q0 -6 -7.5 -12.5t-13.5 -12.5q-2 -2 -7 -26q-4 -20 -15 -25l9 -3v-18q-6 -6 -6 -45 q0 -8 -8 -21t-8 -20q0 -14 13 -25q-9 -8 -11 -19q-3 -17 -5 -21q9 -12 9 -22q0 -13 -11 -18q0 -2 2 -6.5t2 -9.5t-2 -12q2 -4 0 -11q3 -1 2 -20q4 -2 12 -7q27 52 69 98q55 62 95 62q22 0 47 -34t23 -56q-2 -13 -2 -16q0 -8 2.5 -12t2.5 -6z" />
<glyph unicode="c" horiz-adv-x="429" d="M438 276q-25 -40 -54 -81q-20 -23 -51 -70l-15 -12q-3 -5 -3 -21q0 -7 -7 -7q-4 0 -4 2q1 1 1 3t-1 3q-15 -13 -31 -27.5t-20 -32.5q-20 -1 -15 -15q-6 0 -13 7q-8 -9 -6 -22q-19 -8 -24 -19q-4 2 -12 7q-1 -1 -5 -8t-10 -7q-3 0 -9 2t-9 2q-5 0 -8 -4t-7 -4q-5 0 -8 5.5 t-8 5.5q-3 1 -3 -1q0 -1 1.5 -2.5t1.5 -2.5q-1 -1 -3 -1q-4 0 -4 1t1.5 2.5t1.5 2.5q-1 2 -3 1q-36 0 -62 35q-23 32 -23 69q0 73 84 202v2q0 10 19 40t20 37q24 34 47 67q37 53 38 64q5 24 17 28q32 -42 32 -47q0 -10 -10 -16l5 -9q0 -5 -16.5 -66t-20.5 -70.5t-13 -27.5 q3 -13 3 -26q0 -16 -7 -48t-6 -48q1 3 -9 3q-5 0 -5 -1l1 -5q0 10 -2.5 30t-2.5 31l-2 3t-2 8q0 16 4.5 46.5t4.5 46.5q0 7 1 12l3 -1q2 1 2 6q0 11 -13 24q-5 -5 -5 -12q0 -5 3 -13q-12 -5 -17 -9q-8 -5 -11 -14q-7 -20 -35 -66q-25 -42 -29 -63q-3 7 -9 19q-7 -8 -14 -8 q-1 -1 -1 -2q0 -2 5 -5q-3 -3 -11 -19.5t-8 -20.5t3 -4q-2 0 -13 -11q3 -5 10 -13l4 6l-2 4l8 -3l-1 6q0 7 3 15q13 13 13 32q-1 -1 -1 -2q0 -3 8 -3l-12 -12l8 -3q-3 -5 -9 -13q-1 -4 -15 -30v-4q0 -4 -3 -14t-3 -15q0 -25 19 -47.5t43 -22.5h49q3 0 3 1t-1 2.5t-1 2.5 t3.5 1.5t3.5 1.5h-1q0 2 4 2q39 0 129 104q31 35 112 141q6 -1 10 -5zM206 395q2 0 2 5q0 7 -3 10q0 -9 -8 -9q4 -4 9 -6zM195 378q-5 2 -15 4q4 0 3 -10q3 3 12 6zM185 351l-9 10l-9 -10q5 0 5 -5l-1 -3q6 0 14 8zM155 315q-8 -8 -26 -21q6 -4 18 -8q0 14 8 29zM138 275v13 h-7v-13h7zM133 268q-6 1 -14 6q-3 -13 -20 -44q4 -1 7 -3q-4 -2 -11 -8q4 -4 10 -5q4 14 28 54z" />
<glyph unicode="d" horiz-adv-x="534" d="M545 -42q0 -3 4 -7q-24 -7 -52 -39q-10 -5 -20 -5l-10 -9q-22 1 -57 5l-9 9q-6 1 -17 11l6 5q-6 7 -12 7q-27 0 -60 56q-30 50 -33 82l-2 22q-1 15 -7 20q-8 38 -8 149q-2 2 -6 2q-7 0 -17 -6l8 -5l5 3q-11 -15 -32 -69q-16 -40 -47 -60l10 -9q-22 -40 -51 -83 q-42 -65 -57 -65q-6 0 -7.5 5t-6.5 5q-21 0 -34 19.5t-13 41.5q0 28 34 97q27 55 52 94q37 57 74 115q43 58 104 92q65 184 74 211q22 74 65 117q6 -6 15 -18l-10 5l1 -27q1 -28 -5 -62q-4 -7 -14 -22l9 -4q-9 -13 -48 -126q-18 -57 -22 -66.5t-4 -44.5q-1 -21 -8 -32 q1 -9 3 -28q-18 -35 -18 -42t4 -12q-6 -9 -6 -23q0 -5 1.5 -15t1.5 -14q0 -3 -4 -7.5t-4 -9.5t4.5 -12t4.5 -12t-3 -15t-3 -15q0 -58 41 -127q44 -77 95 -77h13q31 0 58.5 12.5t33.5 12.5q4 0 10 -1q-3 0 -13.5 -13t-10.5 -16zM229 291q-23 -30 -70 -91l3 -5q-7 -5 -17 -10 q-9 -20 -18 -41q-13 -27 -27 -32q3 -12 6 -36q12 14 42 62q25 40 45 58q-5 0 -6 4q31 46 42 91z" />
<glyph unicode="e" horiz-adv-x="339" d="M258 -29l-10 -9l2 5q-1 4 -6 4t-9 -4.5t-9 -4.5q-4 0 -4 1l3 5q0 2 -4 3q-4 0 -3 -2l2 -5l-4 -2v4h-25q-78 50 -104 86q-10 9 -25.5 32.5t-16.5 57.5q-1 49 -3 58q-6 9 -6 27q0 41 12 99q8 39 44 89q42 56 76 56q22 0 43 -27.5t22 -50.5l-5 -6q-2 -30 -11 -75 q-6 -15 -62 -101q-2 -2 -28 -31q-21 -23 -21 -32q0 -18 27.5 -64t43.5 -46q4 0 5 -2q-1 0 -1 -1q0 -2 4.5 -2t4.5 -1v-1q0 -2 6 -2t20 -4.5t21 -4.5q42 0 59 8q10 5 47 35l17 -20q-5 -10 -44.5 -39t-49.5 -29q-6 0 -6.5 -2.5t-1.5 -1.5zM197 399q-11 0 -20 9 q-88 -80 -88 -144q0 -26 11 -50q35 32 49 49q27 32 33 60q15 -2 15 28v48z" />
<glyph unicode="f" horiz-adv-x="347" d="M239 362q-6 -4 -13 -8q-10 -7 -7 -10q1 4 -13 4q-15 0 -45 -23q-26 -21 -37 -36q-14 -20 -19 -106q1 -7 7 -18q-11 -1 -13 -12q1 2 1 -21q0 -47 -6 -142.5t-6 -143.5q0 -67 8 -67q7 0 10.5 2.5t4.5 2.5q18 -33 18 -111q0 -6 -1 -38q-4 -6 -4 -14q0 -7 4 -16q17 -8 17 -34 q0 -6 -2 -6q-2 1 -4 1q-4 0 -5 -18q0 -13 1 -36q1 -28 1 -26q0 -7 -1.5 -21t-1.5 -20q-5 1 -9 1q-13 0 -15 -16q1 13 1 -26q0 -8 -1 -14q1 9 -8.5 20.5t-17.5 11.5t-10 -2t-3 -2v50q0 -3 -8 72q-10 87 -10 153q0 27 1 53l-6 4q0 6 4 17t4 18q0 11 -2 31.5t-2 30.5q0 6 4 17 t5 16q-1 -3 -1 55q0 22 6 32q0 13 -2 47q-2 30 -2 47q0 28 7 82.5t7 81.5q0 68 -30 68q-4 0 -4.5 4t-11 5.5t-10.5 21.5q0 8 29.5 54t32.5 64q6 30 9 92.5t10 93.5q12 63 25 127q16 74 43 121q35 61 50 61h21q20 0 40 -61q17 -52 17 -77q0 -14 -13 -23v-4q1 -60 -30 -102 l10 -5q-16 -63 -29 -63q-8 -1 -8 2l1 1q0 2 -2 2q-5 -15 -23 -50q-4 -4 -4 -25q-18 -4 -36 -47q-24 -55 -28 -60v-20l9 -9q25 11 59 11q6 0 18.5 -3t18.5 -3q43 0 52 -23q-6 0 -24.5 -9.5t-27.5 -6.5zM248 796q-10 18 -15 20l-2 -5q-20 -29 -50 -91q-36 -72 -36 -94 q0 -15 7 -11q-13 -19 -14 -32q4 -4 5 -14v-16q3 0 3 5.5t7 5.5q11 0 47 71q33 68 38 89q9 40 10 72z" />
<glyph unicode="g" horiz-adv-x="410" d="M387 482q-19 -11 -41 -119q-24 -125 -34 -145l1 -2q0 -7 -4.5 -19t-4.5 -19q0 -6 2 -19.5t2 -20.5q0 -8 -3 -24t-3 -24v-8q1 -5 1 -8q0 -5 -3.5 -15t-3.5 -15q0 -11 -1 -44q-1 -28 0 -45q-4 -6 -4 -40q0 -24 -7 -33q4 -3 4 -14q0 -14 -4.5 -42t-4.5 -42q0 -9 2 -15 l-4.5 -39.5t-16.5 -58.5l2 -5l-10 -34q-7 -26 -15 -27l1 -4q0 -19 -21 -81q-23 -66 -35 -66q-4 0 -4 1q1 2 1 4v3q-8 -23 -20 -40q-16 0 -21 -35q-6 -9 -21 -22v1q0 3 -3 7q-5 -8 -17 -18t-20 -10l-8 4q-10 -6 -24 -17q-8 2 -17 2q-5 0 -14.5 -1t-13.5 -1t-4 2l3 5l-3 1 q-6 1 -6 -3q-1 -1 -2 0l-10 -8q1 1 1 3q0 4 -9 7l-8 10q-1 -1 -3.5 -7t-7.5 -6q-17 0 -18 16q-5 -1 -11 -1q-38 0 -84 32q-39 27 -66 64q-9 12 -31 69q-8 13 -21 41q-14 47 -14 77q0 6 2 9t3 4q0 8 2 22q9 56 31 88q12 19 39 37q23 15 47 29l5 -10q-28 -18 -50 -58 q-25 -46 -31 -52v-96l11 -5q32 -87 56 -125q6 -8 42.5 -40t42.5 -32q13 0 40.5 -12t41.5 -12q7 0 21 2t21 2q34 0 83 43q39 35 64 73q0 15 18 49q20 39 23 52q7 20 16 61q17 140 27 161l-7 4q4 72 10 152q3 2 8 8v221q-10 0 -12 -7q-16 -51 -52 -98q-1 -2 -3 -5l3 -1 q-16 -30 -99 -125h-20q-4 0 -4 1l3 5l-3 2q-5 0 -6.5 -4t-5.5 -4q-6 0 -22.5 27t-16.5 34q0 4 2.5 9.5t2.5 8.5q9 83 91 189q73 93 154 149q29 101 81 135q12 -10 12 -18l-2 -5q3 -7 12 -20zM277 279q0 5 -2.5 13.5t-2.5 12.5q-18 -11 -48 -38q-9 -18 -35 -50 q-9 -8 -19.5 -25t-17.5 -24q-20 -19 -34 -52q-16 -41 -27 -55v-18q9 -2 22 -9q31 32 84 99q10 15 44 75q36 66 36 71z" />
<glyph unicode="h" horiz-adv-x="454" d="M402 -47q-11 0 -18 9q-8 -6 -16 -22q-74 5 -139 91q-61 82 -59 157l-11 13q-21 -57 -72 -160q-15 2 -18.5 10t-9.5 8q-5 0 -6.5 -2.5t-6.5 -2.5q-7 0 -9 17q-1 11 -3 23q6 5 6 120q0 25 4 74t4 73q0 15 -5 30l55 431q10 13 14 39t10 34q11 16 41 16q7 0 37 -57 q-1 -8 -1 -12q0 -2 2 -2v-3q0 -18 -18 -44q-14 -21 -29 -41q0 -25 -14 -64q-17 -49 -20 -64q1 -3 1 -8q0 -11 -4 -29q-20 -77 -20 -125q0 -20 -10 -58q2 -13 2 -23q0 -16 -7 -27q5 -10 5 -23q0 -11 -4.5 -32t-4.5 -32q0 -34 -12 -45q13 -9 13 -27q0 -6 -1 -16t-1 -16 q0 -7 2 -13v0h7q11 0 20 20q5 15 11 29q2 6 34 105q24 76 38 96q3 3 39 15q-1 -2 -1 -5q0 -5 3 -13.5t3 -12.5q0 -10 -5 -28q-5 -21 -5.5 -29t-4 -25.5t-3.5 -27.5q0 -5 2.5 -13t2.5 -12q2 -35 16 -101q3 -18 36 -66q35 -51 49 -51q4 0 4 -1l-4 -6q2 -5 42 -11q34 -5 48 -5 t54 22q36 20 50 32q-23 -38 -27 -43q-16 -22 -35 -35q-46 -31 -51 -31z" />
<glyph unicode="i" horiz-adv-x="270" d="M356 673q0 -2 -10 -20q-8 3 -25 2q-27 -2 -26 -2q-4 0 -3 1l3 5q-1 2 -4 2q-4 0 -4 -1l3 -5q0 -2 -3 -2q-5 0 -6.5 4t-6.5 4q-4 0 -4 -1v-1q0 -2 -25 -2q-3 0 -11.5 -4t-13.5 -4q-8 0 -53.5 -17.5t-50.5 -21.5q-19 -17 -30 -39q5 -13 5 -12v-40l-11 8q-5 -2 -12 -4 q-17 0 -69 31q7 7 9 17q12 43 94 83q75 37 126 37q3 0 10.5 -2.5t10.5 -2.5q5 0 14.5 4.5t14.5 4.5q23 0 78 -22zM203 167q0 -7 -23 -47.5t-31 -51.5q-2 -3 -65 -79q-15 8 -40 31v336q0 36 48 36q10 0 10 -29q0 -18 -5.5 -51.5t-5.5 -50.5q0 -146 22 -160q17 9 41 39t44 41 q5 -18 5 -14z" />
<glyph unicode="j" horiz-adv-x="238" d="M379 771q-9 -10 -21 -11q17 1 -27 1q-43 -21 -52 -21q-5 0 -8.5 -4.5t-8.5 -4.5l-9 4q-13 0 -77 -47h-16l-3 -4l4 -2q1 0 -17 -10l2 -18q4 0 28 -24q-5 -2 -9.5 -11.5t-9.5 -11.5h-21q-7 0 -30.5 10.5t-30.5 10.5q-6 0 -9 -4q0 4 -9.5 15t-9.5 17q0 27 71 67t94 34l12 13 q11 0 34.5 4t35.5 4q5 0 14.5 4.5t15.5 4.5q1 0 6 -2t7 -2q5 0 14.5 4t15.5 4q14 0 14 -20zM199 391l-6 -18q-33 -8 -41 -28q-13 -36 -14 -37q-13 -52 -13 -81q0 -15 3 -25q-10 -54 -10 -90q0 -3 2.5 -16.5t2.5 -22t5 -46.5v-54q0 -23 -3 -37q7 -27 4 -68q6 -11 6 -13 q0 -5 -3.5 -11.5t-3.5 -10.5q-4 -25 -5 -68q-1 -53 -2 -69q-6 -71 -19 -108q-16 -28 -43 -85q-14 -11 -74 -69q-4 -2 -28.5 -16.5t-29.5 -14.5q-1 0 -6 2t-6 2q-4 0 -7 -4.5t-8 -4.5q-16 0 -20 -4l-8 9l-8 -9q-42 11 -77 45q-39 37 -36 77q-10 27 -10 64q0 60 49 178l11 -5 v-49q-9 -7 -16 -35q-5 -24 -5 -39q0 -53 18 -106q24 -70 65 -70q4 0 4 -2q-2 -2 -2 -4q0 -3 30 -3q86 0 158 141q12 24 17 70l8 74q1 3 3.5 13t2.5 14v187q-17 25 -17 234q0 49 13 133q18 107 40 107q9 0 27 -2t27 -2q5 0 5.5 -4.5t5.5 -4t5 -1.5q-2 -2 -2 -4t1 -3h4 q1 0 3 -2.5t3 -3.5z" />
<glyph unicode="k" horiz-adv-x="431" d="M543 118q0 -18 -69.5 -75.5t-86.5 -57.5q-6 0 -6 -2l1 -2l-13 -13q-4 0 -8.5 -2.5t-9.5 -2.5t-4.5 -1.5t-3.5 -2.5q-10 -5 -34 -25l-13 4l-8 -8h-51q-5 0 -15.5 2t-15.5 2l-9 9q-42 9 -105 119q-9 16 -10 16q-13 0 -40 -21q-19 16 -19 78l5 60q10 98 10 144q0 18 7 30 q-1 12 -1 25q0 43 2 51q4 3 11 8l-8 3l37 311q4 27 36 27q14 0 25 -9t11 -22q0 -5 -7 -21.5t-7 -25.5q0 -30 -9 -50q-11 -25 -12 -35q-10 -86 -30 -259q-2 -34 -3 -67q-3 -45 -12 -64v-50l6 -11q5 9 16 45q22 71 51 111q13 23 38 71q10 8 26 23q10 -7 19 -14q13 -9 13 -16 q-36 -84 -43 -98q-25 -56 -50 -94l8 -4q-16 -50 -16 -75q0 -11 5.5 -35.5t5.5 -38.5q44 -79 135 -79q36 0 128 70q4 3 123 99v-27z" />
<glyph unicode="l" horiz-adv-x="256" d="M122 -36q-5 0 -16 2.5t-16.5 2.5t-16.5 14q-14 18 -18 20l9 10q-3 1 -8 2.5t-1 2.5q-9 27 -20.5 92.5t-11.5 93.5q0 23 14 30l-9 3q2 49 5 133q0 22 2 65q5 25 12 76q13 117 19 153q15 86 42 148q1 -1 34 -1q1 -8 1 -19q0 -62 -20 -107v-7q0 -1 -5 -29q3 -4 3 -10 q0 -10 -9.5 -30.5t-9.5 -31.5q0 -7 4 -11q-5 -3 -14 -9l9 -4q-16 -92 -16 -100t2 -23.5t2 -23.5q0 -19 -6 -68q-5 -43 -4 -68h-1q-4 0 -4 -9q0 -6 2.5 -6.5t2.5 -2.5q0 4 0 -30q0 -148 40 -208l8 -4q46 36 71 67q28 38 57 75q6 9 27 30.5t25 21.5q2 0 2 -1q0 -21 -92 -157 q-12 -18 -44 -48q-37 -34 -51 -34z" />
<glyph unicode="m" horiz-adv-x="636" d="M662 205q1 -19 -67 -102t-81 -83q-5 0 -6.5 -4t-6.5 -4t-16 -2t-17 -2q-34 0 -49 41q-7 30 -15 61q-3 6 -8 19l5 -8q6 4 6 15q0 6 -7 27q-17 -10 -15 -28q-26 -5 -44 -66q-18 -22 -37 -43q-25 -26 -46 -26q-4 0 -11 -4.5t-12 -4.5q-8 0 -20 13t-16 23q-20 49 -20 145 q0 25 -5 41q-14 -5 -48 -88q-29 -69 -39 -104q-6 2 -17 8q-6 -2 -21 -17q-12 13 -15 29.5t-5 32.5q5 12 5 36q0 14 -8 34q0 97 22 267q12 16 32 16q13 0 23.5 -13.5t10.5 -26.5q0 -10 -6 -31t-6 -32q-8 -8 -9.5 -17t-3.5 -26q-3 -24 -10 -57l-3 -11q0 -30 11 -50q2 5 24 41 l46 98q37 75 62 75q31 0 31 -81q0 -21 -4 -62.5t-4 -62.5q0 -43 6 -110q5 -7 15 -7q3 0 20 24q80 114 139 225q5 1 15 8t16 7q10 0 20 -20.5t10 -31.5q0 -29 -12 -97q-1 -5 -7.5 -15t-6.5 -16q0 -42 20 -80q38 10 95 65q69 69 90 82z" />
<glyph unicode="n" horiz-adv-x="435" d="M477 209q0 -32 -76 -120q-71 -84 -107 -104h-27q-46 18 -59 50q-9 36 -18 73q8 52 7 108v11q-11 -16 -64 -128q-43 -92 -71 -105q2 2 2 5q0 7 -11 7q-7 1 -7 -1l4 -4q-6 6 -22 6q0 4 -2.5 13t-2.5 14q0 33 13 106t13 106q0 22 -8 82q0 6 -4.5 18.5t-4.5 18.5q0 7 10 26 q14 -3 41 -9q19 -133 19 -188q0 -7 -6 -13q7 -7 14 -7q0 5 4 14.5t4 14t21 37t24 37.5q53 114 91 114q5 0 14.5 -23.5t9.5 -30.5q0 -17 -10 -71t-16 -68v-117q0 -5 7 -20q9 -18 9 -21l12 1q15 0 98 82q66 67 93 99q1 -2 3.5 -4.5t2.5 -8.5z" />
<glyph unicode="o" horiz-adv-x="292" d="M194 257q4 38 -4 70q-7 9 -18 28q-21 -70 -48 -91l-9 -75q-2 -15 -0.5 -62t5.5 -60l12 4l-8 8q1 1 3 1q26 26 41 79q5 19 20 91zM247 236q-3 -21 -11 -27l-2 -18q-14 -119 -99 -203q-7 4 -45 12q-24 6 -35 35q-3 9 -5 74.5t0 81.5q7 64 47 156q50 112 96 106 q28 -27 44 -102q15 -70 10 -115z" />
<glyph unicode="p" horiz-adv-x="426" d="M379 249q0 -61 -7 -88q-3 -2 -7 -8q1 -4 1 -9q0 -22 -38.5 -72t-58.5 -50q-5 0 -4 2v2q0 4 -4 4t-11 -2t-10 -2q-12 0 -23 25q-8 21 -8 35q0 5 4 13.5t5 12.5q10 46 38 76q7 -10 23 -26l-12 -9l8 -3q-12 -36 -12 -47q0 -6 7 -19q18 12 27 28q5 9 20.5 66t15.5 66 q0 7 -2.5 9t-2.5 3q-3 9 -3 27v19q0 27 -5 42q-8 22 -47 81q-32 -16 -45 -61q-63 -210 -67 -394q1 -67 -8 -199q4 -8 4 -17q0 -8 -4 -24.5t-4 -24.5q0 -5 1 -9q-1 -2 -8 -48q-6 -38 -19 -38q-5 0 -15 2.5t-15 2.5q-23 57 -23 134q0 34 3 40.5t8 22.5q4 39 17 117 q23 120 23 180q0 4 -5 11q1 11 1 29q0 82 -19 157q-10 37 -63 36h-6l-9 -8h-12q-9 -1 -13 -1q-8 0 -15 2q3 14 24 28q17 12 33 17q7 1 21.5 4.5t10.5 3.5q28 0 51 -39q17 -30 33 -61q7 7 22 59q18 61 32 87q23 45 52 45q52 0 90 -91q30 -76 30 -139z" />
<glyph unicode="q" horiz-adv-x="370" d="M379 60q-22 -16 -63 -52q-67 -73 -102 -241h1q4 0 4 -7q0 -5 -4.5 -12.5t-4.5 -11.5q-3 -11 -3 -34q0 -8 2.5 -23l3.5 -21q-4 -6 -4.5 -24t-8.5 -25q-6 6 -17 6q-4 0 -7 3.5t-6 3.5q-9 0 -9 19v75l44 351v60l-5 6q-6 -5 -17 -16q-17 -27 -49 -75q-7 -2 -21 -17t-14 -21 l2 -5q-3 5 -10 5t-21 -3.5t-21 -3.5q-19 0 -22.5 13.5t-11.5 17.5q20 132 110 251l60 86q49 68 65 68q3 0 8.5 -2t8.5 -2q5 0 12 18q5 12 9 23q18 -4 21 -6q9 -3 19 -12v-21q-10 -14 -25 -45q-3 -19 -15 -55q-14 -27 -21 -91q-2 -26 -22 -136q1 -8 1 -18q0 -15 -3.5 -45 t-3.5 -45t2 -26q44 57 51 65q29 31 69 47q5 -9 18 -22zM236 340q-53 -19 -135 -181l-15 -29q0 -5 2 -5.5t2 -1.5l-6 3q-6 -1 -15.5 -27.5t-9.5 -35.5q0 -13 12 -25q112 97 150 237q3 20 10 60q1 4 5 5z" />
<glyph unicode="r" horiz-adv-x="316" d="M310 163q-5 -20 -29 -53q-36 -48 -38 -50t-13 -13.5t-16 -11.5t-4 -1.5t-3 -2.5q-20 -21 -19 -27q-8 0 -25.5 -12t-19.5 -12q-3 0 -9 4t-10 4q-2 0 -6.5 -2t-5.5 -2q-5 0 -6 4t-6 4q-11 0 -18 16t-7 29q0 22 22 88q24 70 26 92q1 11 8 41q6 27 6 38q0 18 -18 72 q-7 -7 -26 -48.5t-45 -57.5q-12 -8 -15 -8q-5 0 -5 10q0 36 12 48q2 17 27 70q27 59 33 78q5 3 9 12q3 6 22 6q13 0 34 -79q19 -73 19 -97q0 -78 -30 -178q-20 -67 -20 -87l9 6q3 0 5 4t7 4q10 0 68.5 56.5t67.5 72.5l6 -1q4 0 7 3l-6 -8z" />
<glyph unicode="s" horiz-adv-x="294" d="M255 327q56 28 68 20q-39 -31 -57 -50q-19 -20 -39 -44t-20 -46q0 -9 1.5 -27.5t1.5 -27.5q0 -31 -5 -69q-1 -7 -8 -32q-5 -20 -5 -32q0 -8 2 -14q-8 -5 -24 -32.5t-23 -32.5q-10 0 -31.5 4.5t-33 4.5t-29.5 29t-18 42l5 8q-1 3 -1 8q0 48 55 128t55 83q0 8 -3 7l-3 2 q-4 41 -20 121q-2 3 -5 3q-1 18 -22 10q-71 -80 -79 -88q-22 48 96 193q4 0 13.5 -1.5t14.5 -1.5q16 -8 20 -16q18 -38 30 -119q1 -17 2 -35q3 -18 7 -32q12 8 55 37zM147 154q-13 -23 -27 -47q-17 -32 -17 -51q0 -5 1 -9q0 -1 -2.5 -1t-2.5 -6q0 -12 11 -41q9 9 15 10 q7 18 16 56q0 30 6 89z" />
<glyph unicode="t" horiz-adv-x="407" d="M449 369q-21 -22 -79 -59q-62 -40 -83 -40q-15 0 -23 -9t-15 -9q-10 0 -36.5 -9.5t-32.5 -15.5q-7 -33 -7 -39q0 -33 25 -151q1 -4 6 -12.5t5 -14.5q0 -5 -6 -13q-9 -10 -9 -11q-9 8 -23 8q-1 0 -6.5 -2t-6.5 -2q-4 0 -13 34q-8 41 -28 123q-9 24 -27 71q-3 4 -49 43 q-41 35 -41 40q0 13 9.5 22t21.5 9q20 0 43 -19.5t40 -15.5l8 -9l5 7l10 196q8 112 24 195l6 48q8 29 31 29q9 0 19 -11t10 -20q0 -13 -8.5 -40t-8.5 -41q0 -10 -6 -29q-6 -22 -7 -30q-6 -42 -14 -229h-1q-4 0 -4 -9q0 -2 1.5 -7.5t1.5 -7.5q-1 -21 4 -47q12 9 24 9 q5 0 7.5 -4.5t7.5 -4.5q12 0 209 98h16v-21z" />
<glyph unicode="u" horiz-adv-x="445" d="M416 134q0 -24 -32 -71q-38 -54 -41 -64h-4q4 0 -45 -10l-11 -10l-10 10q-4 0 -10.5 2.5t-10.5 2.5q-23 0 -33 32q-7 25 -13 50q-22 -24 -62 -77q-7 0 -21.5 -2.5t-22.5 -2.5q-5 0 -12.5 2.5t-11.5 2.5q-11 0 -20 -10q-31 77 -31 82q0 15 7.5 45t7.5 45q0 35 20.5 100 t20.5 99q0 12 -2 23q6 31 30 31q15 0 33 -12.5t18 -26.5q0 -22 -26 -80q-2 -32 -22 -100q-19 -64 -19 -100q0 -14 8 -39q16 5 70 88q48 72 63 104q7 15 15 30t25 15q11 0 23.5 -16.5t12.5 -29.5q0 -5 -2 -5q-1 1 -4 2q-2 -1 -3 -2q2 -3 2 -9q0 -4 -1 -12t-1 -13 q-11 -8 -14 -19q-1 -5 -8.5 -44t-7.5 -42q0 -9 2.5 -26.5t2.5 -26.5q8 -10 11 -10q2 0 6 2q32 17 57 48q22 29 43 58h17q6 -5 6 -14z" />
<glyph unicode="v" horiz-adv-x="355" d="M353 310q1 -23 -15 -29q-5 -1 -35 -2q-41 -1 -41 -41v-40q-7 0 -13 -9q-9 -51 -36 -151q-13 -17 -32 -54q-17 2 -45 12q-34 12 -36 22l6 6q-17 16 -30 74q-10 47 -12 83q-1 27 -20 84t-19 70q0 16 17 29.5t33 13.5q30 0 42 -92q5 -59 10 -117.5t15 -90.5q20 8 34 66 q9 39 18 79v3q0 8 5 26.5t5 28.5q0 11 -1.5 31.5t-1.5 31.5q5 0 12.5 7.5t13.5 7.5t28 -9.5t29 -9.5q19 0 69 -30z" />
<glyph unicode="w" horiz-adv-x="544" d="M569 321v-5q0 -27 -49 -52q-69 -37 -70 -37q-12 -1 -22 -14v-16q4 -8 13.5 -46t9.5 -49q0 -22 -14 -29l9 -4q-7 -13 -3 -28q-3 -10 -20.5 -27t-26.5 -17q-21 0 -36.5 6.5t-30.5 12.5l-10 9q-18 8 -60 61t-56 58q-14 -57 -41 -169q-9 8 -28 23q-7 -4 -19 -14 q-16 46 -22 68q-10 39 -11 71q-2 14 -12 42q0 35 -31 107t-31 77q0 8 8.5 17.5t16.5 9.5q47 0 102 -192q12 3 13 19q3 22 5 27q8 14 35 14q14 0 48 -42q22 -27 44 -55l36 -36q10 -15 20 -31q13 -19 30 -19q6 1 6 -1q-2 -2 -2 -4t1 -4q4 2 10 8q10 19 10 68q0 11 -10 47 t-16 47q-1 3 -9 13q-6 7 -6 13q0 10 10 26l106 28q68 19 103 19z" />
<glyph unicode="x" horiz-adv-x="519" d="M561 148q0 -41 -109 -114q-4 0 -13.5 -5t-15.5 -5q-8 0 -23 4.5t-21 4.5t-6 1v1q0 3 -4 3q-6 -2 -14 -5q-2 0 -4 2l3 5q0 2 -4 2q-3 0 -3 -1l3 -6q-1 -2 -4 -2q-4 0 -4 2l3 5q-1 2 -4 2q-43 0 -158 86q-45 -51 -89 -103q-67 -74 -100 -74q-12 0 -27 15v21q44 34 74 63 q21 21 56 64q42 53 43 66q-41 72 -41 102q10 7 29 23q10 -2 26 -26q10 -16 21 -33q10 0 33 36l30 48q42 50 89 161l10 -9q5 5 4 14q2 -8 16 -19t14 -27q0 -10 -22 -52q-10 -20 -34 -51q-28 -36 -37 -50q-5 -8 -30 -57q-18 -35 -36 -55q31 -31 78 -68q62 -48 83 -48 q8 0 24 4.5t24 4.5q15 0 69 39q67 50 71 52v-21z" />
<glyph unicode="y" horiz-adv-x="390" d="M363 583q0 -11 -10 -32q-11 -24 -12 -31l2 -6q-52 -131 -64 -208q-1 -23 -8 -69v-7q2 -35 -8 -55q3 -28 3 -40l-1 -16q-9 -277 -66 -461q-5 -4 -6 -10l3 -5q-11 -13 -24 -44t-23 -44q-3 -4 -3 -6t3 -6l-8 4q-13 -24 -42 -48q-39 -34 -46 -42q-6 0 -22.5 -8.5t-22.5 -8.5 h-67q-4 0 -4 1q1 3 1 4q0 2 -3 3q-4 0 -4 -1l3 -5l-4 -2q-26 12 -36 12q-5 0 -13 2t-12 2t-4 1v1q0 2 -4 2q-33 0 -91 55q-54 52 -68 87q-14 22 -33 65q-11 38 -11 76q0 84 79 197q15 -5 23 -1q-4 -16 -11 -47q-3 -14 -16 -35q-15 -25 -19 -35q-15 -39 -15 -83q0 5 5 -14 q1 -9 2 -26q7 -51 28 -84q82 -126 176 -126q12 0 36.5 -2t37.5 -2q15 0 57 27t54 42q85 104 109 367q2 29 7 86q0 5 5 31q3 20 3 31l-2 84q-13 -19 -46 -77q0 -10 -26.5 -48.5t-33.5 -38.5q-1 0 -6 2t-7 2h-24q-5 0 -10.5 8.5t-8.5 9.5q-16 35 -16 54v199q-1 13 -2 24t5 45 q6 17 48 37q23 -10 23 -27q0 -5 -8 -26q-10 -26 -10 -28q-5 -14 -6.5 -43t-5.5 -42q1 -15 1 -32t-2 -42l-3 2q-3 -1 -3 -6q0 -6 2 -6t3 -1.5t1 -30.5q0 -4 3 -14t2 -13l8 -15q13 4 27 28q106 177 119 306q7 68 26 129q28 87 70 103q26 -25 26 -29z" />
<glyph unicode="z" horiz-adv-x="442" d="M442 245q-10 -16 -27 -28l-34 -24q-8 -6 -45.5 -50.5t-39.5 -44.5q-6 0 -73.5 -86.5t-79.5 -86.5h-20q-7 0 -19 14t-12 20q0 38 165 414h1q0 2 -7 2q-8 0 -40.5 -17.5t-38.5 -26.5q-39 -16 -76 -47q2 -7 16 -27q-10 -14 -42 -14q-11 0 -24.5 14.5t-13.5 25.5q0 12 20 38 t32 33q16 9 133.5 63.5t122.5 54.5q10 0 18 -9.5t8 -20.5q0 -2 -42 -74q-47 -77 -50 -83q-69 -130 -92 -225l-9 -9v-11h4q45 43 67 76q20 29 79 81q66 58 90 58h20z" />
<glyph unicode="&#xa0;" />
<glyph unicode="&#xaa;" horiz-adv-x="502" d="M90 102h-8v13h8v-13zM539 197q-9 -16 -22 -62q-12 -39 -33 -69l-2 1q-3 -1 -19.5 -13.5t-22.5 -12.5t-7.5 -5t-5.5 -5q-29 -31 -28 -38q-3 0 -10 2t-11 2l-7 -3l3 -7l-12 10l1 1q-1 4 -7 4q-3 0 -9 -3l3 -7q-16 13 -47 40q-61 64 -74 178q-9 -7 -10 -14l1 -4q-3 4 -7 4 l-6 -1l-8 -12q8 -9 19 -10q-19 -12 -34 -43l-24 -50q-16 -21 -31 -42q-20 -27 -22 -45q-19 -11 -50 -11q-40 44 -40 64q0 42 125 221l-3 6q34 45 69 90q43 55 85 70q6 -16 20 -27q-13 -31 -8 -60q-20 -67 -20 -119q0 -45 21 -101q26 -70 62 -70h29q16 0 124 141h18zM210 285 l-6 15l-7 -3l6 -12h7zM162 226l-5 5l-12 -12l5 -5zM138 176v18h-8v-18h8zM208 246q0 5 -7 13q-2 -7 -10 -19l-3 1q-3 -2 -11 -4l4 -3v-2q-6 -3 -13 -16.5t-22 -17.5q2 -4 2 -7q0 -21 -30 -32q1 -3 4 -10l-2 -4l-7 8q6 8 13 26q-2 0 -8 -2t-9 -1q0 -8 -8 -24t-8 -24 q0 3 5 -13h-4q0 -27 -10 -36q11 -12 18 -13q23 37 47 73q28 44 38 78q6 17 21 29z" />
<glyph unicode="&#xb2;" horiz-adv-x="443" d="M406 92q-64 -39 -76 -39q-5 0 -5 1l1 1q0 3 -5 3q-4 0 -10.5 -9.5t-12.5 -9.5q-15 0 -53 -21q-26 -16 -53 -31q-5 -3 -42 -12q-6 -2 -13 -5q-5 0 -26 15q-24 17 -27 19l175 434l-4 16q-49 -28 -91 -74q-51 -56 -52 -103l13 -13q-8 -9 -20 -31q-19 10 -39 21 q-24 13 -24 32q0 56 97.5 144.5t153.5 88.5q35 0 35 -39q0 -11 -16 -69q2 -4 15 -4l-156 -328q4 -4 5 -15t7 -11q17 0 99 27.5t99 27.5q9 0 25 -16z" />
<glyph unicode="&#xb3;" horiz-adv-x="429" d="M391 186q0 -37 -44 -112q-7 -12 -79 -76.5t-79 -64.5q-5 0 -20 9.5t-19 10.5q13 25 100 113q76 75 76 111q0 40 -35 40q-21 0 -62.5 -7.5t-62.5 -7.5q-5 0 -21.5 7t-21.5 8v21q30 28 73 89q39 56 61 100q-3 3 -6 3q-12 0 -13.5 -1t-1.5 -10q0 -4 -5 -4q-4 0 -11.5 2.5 t-11.5 2.5q-17 0 -55 -51l-10 9q-19 -18 -39 -37q-22 -22 -25 -46q-11 7 -29 9q-11 2 -30 21q11 29 59 69q43 36 78 52q124 58 134 58q17 0 37.5 -10t20.5 -25q0 -22 -55.5 -102.5t-56.5 -99.5q4 5 17 5q7 0 19 -2.5t18 -2.5q2 0 7.5 2.5t6.5 2.5q24 0 55 -31t31 -55z" />
<glyph unicode="&#xb9;" horiz-adv-x="232" d="M177 440q-2 2 -4 2q-4 0 -8 -10q-30 -80 -30 -241q0 -3 -1 -9.5t-1 -9.5q0 -11 4 -20q-5 -6 -5 -19q0 -8 1.5 -24t1.5 -23q0 -23 -10 -31q5 -2 15 -9v-19q-10 -4 -17 -69q-17 4 -32 18q-5 29 -14 88q-1 20 -4 60q0 2 -6 8.5t-6 13.5q0 5 3 13.5t3 13.5q2 13 2 85 q0 52 9 84l-3 -2q-4 1 -4 8t8.5 28.5t9.5 30.5q6 51 7 52q7 19 42 19q8 0 21 -16z" />
<glyph unicode="&#xba;" horiz-adv-x="292" d="M194 257q4 38 -4 70q-7 9 -18 28q-21 -70 -48 -91l-9 -75q-2 -15 -0.5 -62t5.5 -60l12 4l-8 8q1 1 3 1q26 26 41 79q5 19 20 91zM247 236q-3 -21 -11 -27l-2 -18q-14 -119 -99 -203q-7 4 -45 12q-24 6 -35 35q-3 9 -5 74.5t0 81.5q7 64 47 156q50 112 96 106 q28 -27 44 -102q15 -70 10 -115z" />
<glyph unicode="&#x152;" horiz-adv-x="1209" d="M1355 796q-2 0 -8 -5.5t-13 -5.5q-4 0 -13 3.5t-14 3.5q-9 0 -27 3.5t-28 3.5q-5 0 -9 -4.5t-9 -4.5q-4 0 -12 2t-13 2q-10 0 -11 -2l3 -3q-5 5 -22 5q-10 0 -47.5 -9t-47.5 -9q-2 0 -7.5 2t-6.5 2q-22 0 -32 -18l-9 9q-9 -9 -17 -9l-10 -9q-3 0 -7 2.5t-9 2.5 q-7 0 -7 -2l4 -5l-8 7q-9 -19 -19 -19q-5 0 -5 2q1 0 1 1q0 2 -5 2q-8 0 -9 -1l3 -4q-2 2 -5 2q-11 0 -26 -7.5t-26 -7.5l-9 -9h-6q-18 1 -26.5 -5t-27.5 -18q-7 -3 -16 -6.5t-11 -10.5q-4 -12 -26 -94t-22 -87v-22q2 -4 20 -4q14 0 18 -4l9 9q6 0 18.5 4.5t18.5 4.5 q28 0 96 27l9 -9q4 5 17 5l9 9l28 5q5 0 5 -7q0 -2 5 -3q7 0 23 2t24 2q0 -17 -16 -17q-7 0 -25.5 -7t-27.5 -7l-14 -13q-7 -2 -38 -15q-21 -8 -45 -8q-5 0 -5 1q1 2 2 5q0 1 -1 3q-21 -31 -95 -46l-10 -9q-4 1 -8 1q-34 0 -42 -63q-3 -21 -2 -88q-5 -12 -5 -19 q0 -60 12 -97q8 -25 35 -64q31 -44 51 -44h10h10q45 0 180 57q59 27 120 91q57 64 62 64q1 0 6.5 -2.5t6.5 -2.5q6 0 11 4t9 4q-68 -103 -70 -103q-5 0 -5 2l2 4q0 2 -1 4q-19 -45 -121 -110q-126 -57 -147 -57q-4 0 -4 -2l3 -5q-1 -2 -4 -2q-5 -1 -5 1q1 0 1 1q0 2 -5 2 t-9 -4.5t-9 -4.5t-14 -2t-14 -2q-6 0 -44 20q-45 25 -49 27q0 5 4 10q-26 32 -42 72l3 9q-24 71 -24 96q0 6 6 20t6 23q0 7 -2.5 21t-2.5 21q0 10 5.5 27.5t5.5 26.5q0 5 -2 14.5t-2 14.5v1q-1 2 -7 2t-9 -2t-4 -2l-9 -9v-1q0 -4 -9.5 -4t-18 -7t-8.5 -15h-6q-12 0 -28 -1 q-16 -4 -13 -4q-9 0 -21 25q13 27 65 57l80 44l-1 3q0 16 12.5 49t10.5 52q6 13 15 51q9 34 19 49q-5 12 -20 12q-4 -3 -12.5 -15.5t-14.5 -12.5t-12.5 -4.5t-11.5 -4.5t-12 7t-12 7q-2 8 -2 14q0 28 52 55q59 29 69 49q3 0 10 -2t11 -2q5 0 59 14q215 54 217 54 q9 0 26.5 -2.5t25.5 -2.5q6 0 7 2l-6 6q7 0 21 5.5t22 5.5q3 0 8.5 -2.5t10.5 -2.5t31 -2q19 -1 31 0q2 0 5 -3.5t10 -3.5q4 0 4 1v1q12 7 18 7t18.5 -11.5t18 -11t5.5 -1.5q-1 0 -1 -1q0 -2 5.5 -2t13.5 -5.5t11 -6.5zM507 638h-6l-5 10l6 2zM527 487q-4 -2 -13 -8 q2 -5 7 -13l-4 2l-7 -6l7 -6q1 1 3 1q3 0 3 -4q0 -6 -9 -12l9 -9q-5 -3 -5 -17q0 -53 -32 -173q-12 -25 -34 -75q-3 -8 -24 -33q-15 -19 -14 -36q-9 -6 -26 -31q-15 -21 -35 -30q-4 -2 -2 -5q-2 -7 -12 -7q-5 0 -6.5 -4t-5.5 -4l-12 -13q-8 1 -16.5 -6t-9.5 -15q-6 1 -21 9 l-3 -5l5 -7q-5 0 -14 3.5t-14 3.5q-4 0 -12 -8l-12 5h-19q-9 8 -20 8q-7 0 -38 22q-26 20 -37 30q-34 32 -57 99q-22 62 -22 114q0 37 25 125q25 84 44 122l-3 5q75 153 80 161q48 84 116 138q-2 2 -1.5 6t-5.5 4q-20 0 -44 -7q18 31 32 41v-1q0 -4 3 -7l3 8h14q37 0 70 -24 q46 -34 59 -40q8 -12 21 -19q-6 1 -6 -3l6 -4l-8 -9l7 -6q3 3 10 7l-4 -9q4 -4 8 -6q0 -7 7 -20q10 -16 11 -19q9 -27 32 -80q2 0 4 3l-3 5q4 -3 4 -6q0 -5 -9 -9q3 -2 17 -2q-4 -14 -2 -20q0 7 -5 17q-5 -5 -14 -11q4 -2 5.5 -10.5t5.5 -12.5q3 3 3 5t-3 5q4 -2 9 -6l-3 -2 q4 -5 11 -4q-6 0 -11 -5v-37q3 -3 10 -8h-1q-4 0 -5 -4q6 -5 6 -9t-6 -13q5 -3 13 -9zM485 526q-10 16 -18 54t-18 55q1 8 6 21q-17 10 -38 48q-24 41 -36 51q0 -1 -1 -9t-7 -8q-8 0 -24 8t-22 13q-26 -17 -61 -48q-11 -18 -23 -36t-32 -27q2 -6 2 -11q0 -16 -27 -22 q-4 -24 -22 -35l7 -6q0 -1 -2 -1q-17 -38 -53 -113q1 -1 1 -3q0 -12 -18 -47q1 -4 1 -8q0 -19 -12 -68t-12 -68q0 -121 94 -204q13 -11 38 -27q3 -1 21 -1l8 -9q61 13 69 13q35 0 86 74q44 63 56 106q23 85 37 198q-3 3 -3 18t3 92z" />
<glyph unicode="&#x153;" horiz-adv-x="631" d="M550 -29l-10 -9l2 5q-1 4 -6 4t-9 -4.5t-9 -4.5q-4 0 -4 1l3 5q0 2 -4 3q-4 0 -3 -2l2 -5l-4 -2v4h-25q-78 50 -104 86q-10 9 -25.5 32.5t-16.5 57.5q-1 49 -3 58q-6 9 -6 27q0 41 12 99q8 39 44 89q42 56 76 56q22 0 43 -27.5t22 -50.5l-5 -6q-2 -30 -11 -75 q-6 -15 -62 -101q-2 -2 -28 -31q-21 -23 -21 -32q0 -18 27.5 -64t43.5 -46q4 0 5 -2q-1 0 -1 -1q0 -2 4.5 -2t4.5 -1v-1q0 -2 6 -2t20 -4.5t21 -4.5q42 0 59 8q10 5 47 35l17 -20q-5 -10 -44.5 -39t-49.5 -29q-6 0 -6.5 -2.5t-1.5 -1.5zM489 399q-11 0 -20 9 q-88 -80 -88 -144q0 -26 11 -50q35 32 49 49q27 32 33 60q15 -2 15 28v48zM194 257q4 38 -4 70q-7 9 -18 28q-21 -70 -48 -91l-9 -75q-2 -15 -0.5 -62t5.5 -60l12 4l-8 8q1 1 3 1q26 26 41 79q5 19 20 91zM247 236q-3 -21 -11 -27l-2 -18q-14 -119 -99 -203q-7 4 -45 12 q-24 6 -35 35q-3 9 -5 74.5t0 81.5q7 64 47 156q50 112 96 106q28 -27 44 -102q15 -70 10 -115z" />
<glyph unicode="&#x2000;" horiz-adv-x="494" />
<glyph unicode="&#x2001;" horiz-adv-x="989" />
<glyph unicode="&#x2002;" horiz-adv-x="494" />
<glyph unicode="&#x2003;" horiz-adv-x="989" />
<glyph unicode="&#x2004;" horiz-adv-x="329" />
<glyph unicode="&#x2005;" horiz-adv-x="247" />
<glyph unicode="&#x2006;" horiz-adv-x="164" />
<glyph unicode="&#x2007;" horiz-adv-x="164" />
<glyph unicode="&#x2008;" horiz-adv-x="123" />
<glyph unicode="&#x2009;" horiz-adv-x="197" />
<glyph unicode="&#x200a;" horiz-adv-x="54" />
<glyph unicode="&#x2013;" horiz-adv-x="500" d="M100 250v100h300v-100h-300z" />
<glyph unicode="&#x2014;" horiz-adv-x="1000" d="M100 250v100h800v-100h-800z" />
<glyph unicode="&#x2026;" horiz-adv-x="783" d="M662 21q0 -17 -11.5 -28.5t-28.5 -11.5q-11 0 -22 20t-11 32q0 11 15.5 22t26.5 11q31 0 31 -45zM401 21q0 -17 -11.5 -28.5t-28.5 -11.5q-11 0 -22 20t-11 32q0 11 15.5 22t26.5 11q31 0 31 -45zM140 21q0 -17 -11.5 -28.5t-28.5 -11.5q-11 0 -22 20t-11 32 q0 11 15.5 22t26.5 11q31 0 31 -45z" />
<glyph unicode="&#x202f;" horiz-adv-x="197" />
<glyph unicode="&#x205f;" horiz-adv-x="247" />
<glyph unicode="&#x2122;" horiz-adv-x="1277" d="M1280 259q0 -7 1 -17v-17q0 -26 -14 -36q3 -6 3 -8q0 -9 -11 -28q-14 -24 -15 -27q-20 -51 -31 -70q-25 -44 -52 -48q-14 -1 -15 -22q-1 1 -3 1q-1 0 -7 -2.5t-9 -2.5l-11 5h-20q-119 95 -119 322q0 27 2 50q-3 12 -8 34q-15 -15 -16 -34q-8 -2 -10 -9q-3 -16 -9 -46 q-24 -77 -71 -165h-5q-3 -3 -3 -6q0 -2 4 -7q-3 0 -10 -3t-12.5 -3t-6.5 -1l5 -6l-10 7v2q0 3 -6.5 3t-10.5 4t-9 4q-20 0 -50 98q-18 61 -35 122q-32 -93 -32 -274q0 -6 -2 -15q-2 -12 -2 -16l-3 -66q-6 1 -16 -11q-6 -8 -13 -16q1 7 -6 7q-3 0 -7 -3q-6 25 -6 56 q0 23 6 65q7 47 9 65q4 74 19 188q22 158 25 187q-3 4 -3 14t4 29t4 29q0 4 -1 12.5t-1 13.5q0 37 25 47h15q7 -14 20 -45q3 -16 13 -47q11 -172 15 -201q18 -142 60 -178q33 47 57 112q3 7 39 119q11 28 31 83q3 11 13 74q21 141 31 179q30 124 79 150q-3 -8 -3 -64 q0 1 -7 -14v-3q0 -25 -17 -96.5t-17 -98.5q0 -9 1 -16q-1 -8 -8 -19q-7 -63 -15 -189q-1 1 -2 1q-7 0 -7 -8q0 -4 3 -11.5t4 -10.5q2 -19 1 -50q-2 -47 -2 -51q0 -13 1 -24q3 -5 4 -15v-16q17 -82 52 -139l-5 -5q3 -1 9 -10.5t11 -9.5q12 0 11 -10q15 -8 29 -8q5 0 5 1l-1 1 q0 3 5 3q25 0 84 115q33 63 55 95zM736 736q-7 0 -21 -15q1 24 -96 24l-12 -7l-24 -3l-4 2l2 6q-1 1 -5 2q-4 0 -4 -2l4 -6q-1 -2 -4 -2q-6 0 -16.5 2.5t-16.5 2.5q-3 0 -10.5 -3.5t-12.5 -1.5l-9 -9q-9 9 -19 9q1 0 -20 -7t-31 -7q-1 0 -7 2.5t-7 2.5q-4 0 -9.5 -2.5 t-9.5 -2.5q-18 0 -74 -28l-5 2q1 0 1 1q0 2 -5 2q-9 0 -11.5 -9.5t-1.5 -24.5q1 -24 1 -20q-11 -22 -11 -46q0 -11 3 -17q-8 -38 -8 -47q0 -12 3 -24q-17 -141 -20 -504q-4 -1 -9 -1q-42 0 -40 1q-11 19 -11 89l-2 6l25 541q2 37 -9 37q-7 0 -40.5 -16t-40.5 -16 q-27 0 -44.5 -19t-19.5 -46q-4 2 -9 2q-3 0 -10 -1t-10 -1q-10 0 -34 15t-24 24q0 6 17 28q21 27 22 28q212 72 223 72q2 0 7.5 -2t6.5 -2q7 0 9 11q-5 0 7 0q9 0 16 12q10 -2 25 -2q25 0 62 5q50 8 62 9q118 11 161 11q5 0 6 -2.5t6 -2.5q64 0 95 -16q0 -6 13 -34z" />
<glyph unicode="&#xe000;" horiz-adv-x="495" d="M0 495h495v-495h-495v495z" />
<glyph unicode="&#xfb01;" horiz-adv-x="617" d="M703 673q0 -2 -10 -20q-8 3 -25 2q-27 -2 -26 -2q-4 0 -3 1l3 5q-1 2 -4 2q-4 0 -4 -1l3 -5q0 -2 -3 -2q-5 0 -6.5 4t-6.5 4q-4 0 -4 -1v-1q0 -2 -25 -2q-3 0 -11.5 -4t-13.5 -4q-8 0 -53.5 -17.5t-50.5 -21.5q-19 -17 -30 -39q5 -13 5 -12v-40l-11 8q-5 -2 -12 -4 q-17 0 -69 31q7 7 9 17q12 43 94 83q75 37 126 37q3 0 10.5 -2.5t10.5 -2.5q5 0 14.5 4.5t14.5 4.5q23 0 78 -22zM550 167q0 -7 -23 -47.5t-31 -51.5q-2 -3 -65 -79q-15 8 -40 31v336q0 36 48 36q10 0 10 -29q0 -18 -5.5 -51.5t-5.5 -50.5q0 -146 22 -160q17 9 41 39t44 41 q5 -18 5 -14zM239 362q-6 -4 -13 -8q-10 -7 -7 -10q1 4 -13 4q-15 0 -45 -23q-26 -21 -37 -36q-14 -20 -19 -106q1 -7 7 -18q-11 -1 -13 -12q1 2 1 -21q0 -47 -6 -142.5t-6 -143.5q0 -67 8 -67q7 0 10.5 2.5t4.5 2.5q18 -33 18 -111q0 -6 -1 -38q-4 -6 -4 -14q0 -7 4 -16 q17 -8 17 -34q0 -6 -2 -6q-2 1 -4 1q-4 0 -5 -18q0 -13 1 -36q1 -28 1 -26q0 -7 -1.5 -21t-1.5 -20q-5 1 -9 1q-13 0 -15 -16q1 13 1 -26q0 -8 -1 -14q1 9 -8.5 20.5t-17.5 11.5t-10 -2t-3 -2v50q0 -3 -8 72q-10 87 -10 153q0 27 1 53l-6 4q0 6 4 17t4 18q0 11 -2 31.5 t-2 30.5q0 6 4 17t5 16q-1 -3 -1 55q0 22 6 32q0 13 -2 47q-2 30 -2 47q0 28 7 82.5t7 81.5q0 68 -30 68q-4 0 -4.5 4t-11 5.5t-10.5 21.5q0 8 29.5 54t32.5 64q6 30 9 92.5t10 93.5q12 63 25 127q16 74 43 121q35 61 50 61h21q20 0 40 -61q17 -52 17 -77q0 -14 -13 -23v-4 q1 -60 -30 -102l10 -5q-16 -63 -29 -63q-8 -1 -8 2l1 1q0 2 -2 2q-5 -15 -23 -50q-4 -4 -4 -25q-18 -4 -36 -47q-24 -55 -28 -60v-20l9 -9q25 11 59 11q6 0 18.5 -3t18.5 -3q43 0 52 -23q-6 0 -24.5 -9.5t-27.5 -6.5zM248 796q-10 18 -15 20l-2 -5q-20 -29 -50 -91 q-36 -72 -36 -94q0 -15 7 -11q-13 -19 -14 -32q4 -4 5 -14v-16q3 0 3 5.5t7 5.5q11 0 47 71q33 68 38 89q9 40 10 72z" />
<glyph unicode="&#xfb02;" horiz-adv-x="603" d="M469 -36q-5 0 -16 2.5t-16.5 2.5t-16.5 14q-14 18 -18 20l9 10q-3 1 -8 2.5t-1 2.5q-9 27 -20.5 92.5t-11.5 93.5q0 23 14 30l-9 3q2 49 5 133q0 22 2 65q5 25 12 76q13 117 19 153q15 86 42 148q1 -1 34 -1q1 -8 1 -19q0 -62 -20 -107v-7q0 -1 -5 -29q3 -4 3 -10 q0 -10 -9.5 -30.5t-9.5 -31.5q0 -7 4 -11q-5 -3 -14 -9l9 -4q-16 -92 -16 -100t2 -23.5t2 -23.5q0 -19 -6 -68q-5 -43 -4 -68h-1q-4 0 -4 -9q0 -6 2.5 -6.5t2.5 -2.5q0 4 0 -30q0 -148 40 -208l8 -4q46 36 71 67q28 38 57 75q6 9 27 30.5t25 21.5q2 0 2 -1q0 -21 -92 -157 q-12 -18 -44 -48q-37 -34 -51 -34zM239 362q-6 -4 -13 -8q-10 -7 -7 -10q1 4 -13 4q-15 0 -45 -23q-26 -21 -37 -36q-14 -20 -19 -106q1 -7 7 -18q-11 -1 -13 -12q1 2 1 -21q0 -47 -6 -142.5t-6 -143.5q0 -67 8 -67q7 0 10.5 2.5t4.5 2.5q18 -33 18 -111q0 -6 -1 -38 q-4 -6 -4 -14q0 -7 4 -16q17 -8 17 -34q0 -6 -2 -6q-2 1 -4 1q-4 0 -5 -18q0 -13 1 -36q1 -28 1 -26q0 -7 -1.5 -21t-1.5 -20q-5 1 -9 1q-13 0 -15 -16q1 13 1 -26q0 -8 -1 -14q1 9 -8.5 20.5t-17.5 11.5t-10 -2t-3 -2v50q0 -3 -8 72q-10 87 -10 153q0 27 1 53l-6 4 q0 6 4 17t4 18q0 11 -2 31.5t-2 30.5q0 6 4 17t5 16q-1 -3 -1 55q0 22 6 32q0 13 -2 47q-2 30 -2 47q0 28 7 82.5t7 81.5q0 68 -30 68q-4 0 -4.5 4t-11 5.5t-10.5 21.5q0 8 29.5 54t32.5 64q6 30 9 92.5t10 93.5q12 63 25 127q16 74 43 121q35 61 50 61h21q20 0 40 -61 q17 -52 17 -77q0 -14 -13 -23v-4q1 -60 -30 -102l10 -5q-16 -63 -29 -63q-8 -1 -8 2l1 1q0 2 -2 2q-5 -15 -23 -50q-4 -4 -4 -25q-18 -4 -36 -47q-24 -55 -28 -60v-20l9 -9q25 11 59 11q6 0 18.5 -3t18.5 -3q43 0 52 -23q-6 0 -24.5 -9.5t-27.5 -6.5zM248 796q-10 18 -15 20 l-2 -5q-20 -29 -50 -91q-36 -72 -36 -94q0 -15 7 -11q-13 -19 -14 -32q4 -4 5 -14v-16q3 0 3 5.5t7 5.5q11 0 47 71q33 68 38 89q9 40 10 72z" />
<glyph unicode="&#xfb03;" horiz-adv-x="964" d="M1050 673q0 -2 -10 -20q-8 3 -25 2q-27 -2 -26 -2q-4 0 -3 1l3 5q-1 2 -4 2q-4 0 -4 -1l3 -5q0 -2 -3 -2q-5 0 -6.5 4t-6.5 4q-4 0 -4 -1v-1q0 -2 -25 -2q-3 0 -11.5 -4t-13.5 -4q-8 0 -53.5 -17.5t-50.5 -21.5q-19 -17 -30 -39q5 -13 5 -12v-40l-11 8q-5 -2 -12 -4 q-17 0 -69 31q7 7 9 17q12 43 94 83q75 37 126 37q3 0 10.5 -2.5t10.5 -2.5q5 0 14.5 4.5t14.5 4.5q23 0 78 -22zM897 167q0 -7 -23 -47.5t-31 -51.5q-2 -3 -65 -79q-15 8 -40 31v336q0 36 48 36q10 0 10 -29q0 -18 -5.5 -51.5t-5.5 -50.5q0 -146 22 -160q17 9 41 39t44 41 q5 -18 5 -14zM586 362q-6 -4 -13 -8q-10 -7 -7 -10q1 4 -13 4q-15 0 -45 -23q-26 -21 -37 -36q-14 -20 -19 -106q1 -7 7 -18q-11 -1 -13 -12q1 2 1 -21q0 -47 -6 -142.5t-6 -143.5q0 -67 8 -67q7 0 10.5 2.5t4.5 2.5q18 -33 18 -111q0 -6 -1 -38q-4 -6 -4 -14q0 -7 4 -16 q17 -8 17 -34q0 -6 -2 -6q-2 1 -4 1q-4 0 -5 -18q0 -13 1 -36q1 -28 1 -26q0 -7 -1.5 -21t-1.5 -20q-5 1 -9 1q-13 0 -15 -16q1 13 1 -26q0 -8 -1 -14q1 9 -8.5 20.5t-17.5 11.5t-10 -2t-3 -2v50q0 -3 -8 72q-10 87 -10 153q0 27 1 53l-6 4q0 6 4 17t4 18q0 11 -2 31.5 t-2 30.5q0 6 4 17t5 16q-1 -3 -1 55q0 22 6 32q0 13 -2 47q-2 30 -2 47q0 28 7 82.5t7 81.5q0 68 -30 68q-4 0 -4.5 4t-11 5.5t-10.5 21.5q0 8 29.5 54t32.5 64q6 30 9 92.5t10 93.5q12 63 25 127q16 74 43 121q35 61 50 61h21q20 0 40 -61q17 -52 17 -77q0 -14 -13 -23v-4 q1 -60 -30 -102l10 -5q-16 -63 -29 -63q-8 -1 -8 2l1 1q0 2 -2 2q-5 -15 -23 -50q-4 -4 -4 -25q-18 -4 -36 -47q-24 -55 -28 -60v-20l9 -9q25 11 59 11q6 0 18.5 -3t18.5 -3q43 0 52 -23q-6 0 -24.5 -9.5t-27.5 -6.5zM595 796q-10 18 -15 20l-2 -5q-20 -29 -50 -91 q-36 -72 -36 -94q0 -15 7 -11q-13 -19 -14 -32q4 -4 5 -14v-16q3 0 3 5.5t7 5.5q11 0 47 71q33 68 38 89q9 40 10 72zM239 362q-6 -4 -13 -8q-10 -7 -7 -10q1 4 -13 4q-15 0 -45 -23q-26 -21 -37 -36q-14 -20 -19 -106q1 -7 7 -18q-11 -1 -13 -12q1 2 1 -21q0 -47 -6 -142.5 t-6 -143.5q0 -67 8 -67q7 0 10.5 2.5t4.5 2.5q18 -33 18 -111q0 -6 -1 -38q-4 -6 -4 -14q0 -7 4 -16q17 -8 17 -34q0 -6 -2 -6q-2 1 -4 1q-4 0 -5 -18q0 -13 1 -36q1 -28 1 -26q0 -7 -1.5 -21t-1.5 -20q-5 1 -9 1q-13 0 -15 -16q1 13 1 -26q0 -8 -1 -14q1 9 -8.5 20.5 t-17.5 11.5t-10 -2t-3 -2v50q0 -3 -8 72q-10 87 -10 153q0 27 1 53l-6 4q0 6 4 17t4 18q0 11 -2 31.5t-2 30.5q0 6 4 17t5 16q-1 -3 -1 55q0 22 6 32q0 13 -2 47q-2 30 -2 47q0 28 7 82.5t7 81.5q0 68 -30 68q-4 0 -4.5 4t-11 5.5t-10.5 21.5q0 8 29.5 54t32.5 64 q6 30 9 92.5t10 93.5q12 63 25 127q16 74 43 121q35 61 50 61h21q20 0 40 -61q17 -52 17 -77q0 -14 -13 -23v-4q1 -60 -30 -102l10 -5q-16 -63 -29 -63q-8 -1 -8 2l1 1q0 2 -2 2q-5 -15 -23 -50q-4 -4 -4 -25q-18 -4 -36 -47q-24 -55 -28 -60v-20l9 -9q25 11 59 11 q6 0 18.5 -3t18.5 -3q43 0 52 -23q-6 0 -24.5 -9.5t-27.5 -6.5zM248 796q-10 18 -15 20l-2 -5q-20 -29 -50 -91q-36 -72 -36 -94q0 -15 7 -11q-13 -19 -14 -32q4 -4 5 -14v-16q3 0 3 5.5t7 5.5q11 0 47 71q33 68 38 89q9 40 10 72z" />
<glyph unicode="&#xfb04;" horiz-adv-x="950" d="M816 -36q-5 0 -16 2.5t-16.5 2.5t-16.5 14q-14 18 -18 20l9 10q-3 1 -8 2.5t-1 2.5q-9 27 -20.5 92.5t-11.5 93.5q0 23 14 30l-9 3q2 49 5 133q0 22 2 65q5 25 12 76q13 117 19 153q15 86 42 148q1 -1 34 -1q1 -8 1 -19q0 -62 -20 -107v-7q0 -1 -5 -29q3 -4 3 -10 q0 -10 -9.5 -30.5t-9.5 -31.5q0 -7 4 -11q-5 -3 -14 -9l9 -4q-16 -92 -16 -100t2 -23.5t2 -23.5q0 -19 -6 -68q-5 -43 -4 -68h-1q-4 0 -4 -9q0 -6 2.5 -6.5t2.5 -2.5q0 4 0 -30q0 -148 40 -208l8 -4q46 36 71 67q28 38 57 75q6 9 27 30.5t25 21.5q2 0 2 -1q0 -21 -92 -157 q-12 -18 -44 -48q-37 -34 -51 -34zM586 362q-6 -4 -13 -8q-10 -7 -7 -10q1 4 -13 4q-15 0 -45 -23q-26 -21 -37 -36q-14 -20 -19 -106q1 -7 7 -18q-11 -1 -13 -12q1 2 1 -21q0 -47 -6 -142.5t-6 -143.5q0 -67 8 -67q7 0 10.5 2.5t4.5 2.5q18 -33 18 -111q0 -6 -1 -38 q-4 -6 -4 -14q0 -7 4 -16q17 -8 17 -34q0 -6 -2 -6q-2 1 -4 1q-4 0 -5 -18q0 -13 1 -36q1 -28 1 -26q0 -7 -1.5 -21t-1.5 -20q-5 1 -9 1q-13 0 -15 -16q1 13 1 -26q0 -8 -1 -14q1 9 -8.5 20.5t-17.5 11.5t-10 -2t-3 -2v50q0 -3 -8 72q-10 87 -10 153q0 27 1 53l-6 4 q0 6 4 17t4 18q0 11 -2 31.5t-2 30.5q0 6 4 17t5 16q-1 -3 -1 55q0 22 6 32q0 13 -2 47q-2 30 -2 47q0 28 7 82.5t7 81.5q0 68 -30 68q-4 0 -4.5 4t-11 5.5t-10.5 21.5q0 8 29.5 54t32.5 64q6 30 9 92.5t10 93.5q12 63 25 127q16 74 43 121q35 61 50 61h21q20 0 40 -61 q17 -52 17 -77q0 -14 -13 -23v-4q1 -60 -30 -102l10 -5q-16 -63 -29 -63q-8 -1 -8 2l1 1q0 2 -2 2q-5 -15 -23 -50q-4 -4 -4 -25q-18 -4 -36 -47q-24 -55 -28 -60v-20l9 -9q25 11 59 11q6 0 18.5 -3t18.5 -3q43 0 52 -23q-6 0 -24.5 -9.5t-27.5 -6.5zM595 796q-10 18 -15 20 l-2 -5q-20 -29 -50 -91q-36 -72 -36 -94q0 -15 7 -11q-13 -19 -14 -32q4 -4 5 -14v-16q3 0 3 5.5t7 5.5q11 0 47 71q33 68 38 89q9 40 10 72zM239 362q-6 -4 -13 -8q-10 -7 -7 -10q1 4 -13 4q-15 0 -45 -23q-26 -21 -37 -36q-14 -20 -19 -106q1 -7 7 -18q-11 -1 -13 -12 q1 2 1 -21q0 -47 -6 -142.5t-6 -143.5q0 -67 8 -67q7 0 10.5 2.5t4.5 2.5q18 -33 18 -111q0 -6 -1 -38q-4 -6 -4 -14q0 -7 4 -16q17 -8 17 -34q0 -6 -2 -6q-2 1 -4 1q-4 0 -5 -18q0 -13 1 -36q1 -28 1 -26q0 -7 -1.5 -21t-1.5 -20q-5 1 -9 1q-13 0 -15 -16q1 13 1 -26 q0 -8 -1 -14q1 9 -8.5 20.5t-17.5 11.5t-10 -2t-3 -2v50q0 -3 -8 72q-10 87 -10 153q0 27 1 53l-6 4q0 6 4 17t4 18q0 11 -2 31.5t-2 30.5q0 6 4 17t5 16q-1 -3 -1 55q0 22 6 32q0 13 -2 47q-2 30 -2 47q0 28 7 82.5t7 81.5q0 68 -30 68q-4 0 -4.5 4t-11 5.5t-10.5 21.5 q0 8 29.5 54t32.5 64q6 30 9 92.5t10 93.5q12 63 25 127q16 74 43 121q35 61 50 61h21q20 0 40 -61q17 -52 17 -77q0 -14 -13 -23v-4q1 -60 -30 -102l10 -5q-16 -63 -29 -63q-8 -1 -8 2l1 1q0 2 -2 2q-5 -15 -23 -50q-4 -4 -4 -25q-18 -4 -36 -47q-24 -55 -28 -60v-20l9 -9 q25 11 59 11q6 0 18.5 -3t18.5 -3q43 0 52 -23q-6 0 -24.5 -9.5t-27.5 -6.5zM248 796q-10 18 -15 20l-2 -5q-20 -29 -50 -91q-36 -72 -36 -94q0 -15 7 -11q-13 -19 -14 -32q4 -4 5 -14v-16q3 0 3 5.5t7 5.5q11 0 47 71q33 68 38 89q9 40 10 72z" />
</font>
</defs>
</svg>
